<?xml version="1.0" encoding="UTF-8"?>
<svg width="83px" height="83px" viewBox="0 0 83 83" version="1.1" xmlns="http://www.w3.org/2000/svg" xmlns:xlink="http://www.w3.org/1999/xlink">
    <!-- Generator: Sketch 50.2 (55047) - http://www.bohemiancoding.com/sketch -->
    <title>Group</title>
    <desc>Created with Sketch.</desc>
    <defs>
        <polygon id="path-1" points="8.10546875e-06 0.000174266634 83 0.000174266634 83 83 8.10546875e-06 83"></polygon>
    </defs>
    <g id="error" stroke="none" stroke-width="1" fill="none" fill-rule="evenodd">
        <g id="Error_Note" transform="translate(-598.000000, -190.000000)">
            <g id="Group" transform="translate(598.000000, 190.000000)">
                <g id="Group-3">
                    <mask id="mask-2" fill="white">
                        <use xlink:href="#path-1"></use>
                    </mask>
                    <g id="Clip-2"></g>
                    <path d="M71.173116,48.375091 C61.0967215,58.4511613 44.7011414,58.4514855 34.6247469,48.375091 C24.5483523,38.2986965 24.5483523,21.9031164 34.6247469,11.8267219 C39.6635926,6.78787617 46.2799246,4.26950703 52.8991746,4.26950703 C59.5161551,4.26950703 66.1357293,6.78917305 71.173116,11.8267219 C81.2493484,21.9031164 81.2493484,38.2988586 71.173116,48.375091 Z M25.6678797,64.6422805 L18.3575574,57.3319582 L21.3951629,54.2943527 L28.705323,61.6043508 L25.6678797,64.6422805 Z M13.0912723,77.2187258 C11.0757664,79.2339074 7.79661797,79.2345559 5.78095,77.2187258 C3.76528203,75.203382 3.76528203,71.9237473 5.78095,69.9084035 L15.3368113,60.3525422 L22.6471336,67.6627023 L13.0912723,77.2187258 Z M74.1937,8.8063 C62.4514695,-2.93544414 43.3460691,-2.93495781 31.6041629,8.8063 C20.3703074,20.0406418 19.8860867,38.0140324 30.1480965,49.8311574 L26.5607781,53.4186379 L22.905698,49.7633957 C22.0714832,48.9296672 20.719491,48.9296672 19.884952,49.7633957 L2.76052813,66.8878195 C-0.920165234,70.568675 -0.920165234,76.557968 2.76052813,80.2393098 C4.60111797,82.0798996 7.0189793,83.0000324 9.43619219,83.0000324 C11.8537293,83.0000324 14.2714285,82.0797375 16.1120184,80.2394719 L33.2364422,63.115048 C34.0704949,62.2809953 34.0704949,60.9285168 33.2364422,60.094302 L29.5812,56.4392219 L33.1685184,52.8519035 C38.8100867,57.7510109 45.8540633,60.2021047 52.8990125,60.2021047 C60.6107176,60.2021047 68.3227469,57.2666281 74.1937,51.3958371 C85.9354441,39.6536066 85.9354441,20.5482063 74.1937,8.8063 Z" id="Fill-1" fill="#FFFFFF" mask="url(#mask-2)"></path>
                </g>
                <path d="M65.5889983,42.5892959 C62.3597625,45.8187114 58.0664796,47.5970871 53.4996658,47.5970871 C48.9331862,47.5970871 44.6397362,45.8187114 41.4106675,42.5892959 C38.1812646,39.3600476 36.4028958,35.066748 36.4028958,30.5002506 C36.4028958,25.9334191 38.1812646,21.6401195 41.4106675,18.4108712 C44.6397362,15.1814557 48.9331862,13.40308 53.4996658,13.40308 C58.0664796,13.40308 62.3597625,15.1814557 65.5889983,18.4108712 C68.8184012,21.6401195 70.5967701,25.9334191 70.5967701,30.5002506 C70.5967701,35.066748 68.8184012,39.3602147 65.5889983,42.5892959 M68.7026059,15.2972515 C64.6419162,11.2365461 59.242646,9 53.4998329,9 C47.7571869,9 42.3580838,11.2365461 38.297227,15.2972515 C34.2363703,19.357957 32,24.7572482 32,30.5000835 C32,36.2427518 34.2365374,41.641876 38.297227,45.7027485 C42.3579167,49.763621 47.7571869,52 53.4998329,52 C59.242646,52 64.6417491,49.763621 68.7026059,45.7027485 C72.7632955,41.642043 75,36.2427518 75,30.5000835 C74.9996658,24.7574153 72.7632955,19.3582911 68.7026059,15.2972515" id="Fill-4" fill="#FFFFFF"></path>
                <path d="M58.2262467,20.6036203 C56.9787473,19.5543944 55.2262222,19 53.1581844,19 C49.6570716,19 47.0841791,20.7118449 46.1020323,23.687469 C46,23.9557396 46,24.1791405 46,24.3126439 C46,25.5816368 47.2490401,26.1497766 48.4869525,26.1497766 C49.6072538,26.1497766 50.3901294,25.618291 50.6914329,24.652643 C51.1055541,23.3082878 51.8358727,22.7346183 53.1338746,22.7346183 C54.4342733,22.7346183 55.3424637,23.3503137 55.3424637,24.2317519 C55.3424637,25.4294904 54.8715058,25.7040807 53.07019,26.5649799 L52.7673457,26.7117546 C51.4157597,27.3852751 50.6712319,28.4566199 50.6715743,29.7387261 L50.745017,31.2611384 C50.7903837,32.3174739 51.5944875,33 52.7933674,33 C53.9491061,33 54.72171,32.3841466 54.8602069,31.350246 L55.0041821,30.1720986 C55.0421874,29.8990882 55.126929,29.8594321 55.1563746,29.8458448 L55.4888356,29.6880107 C57.866052,28.5972329 60,27.3607863 60,24.2521329 C60,22.881551 59.3533958,21.5517311 58.2262467,20.6036203" id="Fill-6" fill="#FFFFFF"></path>
                <path d="M51.5,35 C50.1215678,35 49,36.1214165 49,37.5 C49,38.8785835 50.1215678,40 51.5,40 C52.8784322,40 54,38.8785835 54,37.5 C54,36.1214165 52.8784322,35 51.5,35" id="Fill-8" fill="#FFFFFF"></path>
            </g>
        </g>
    </g>
</svg>