<?xml version="1.0" encoding="utf-8"?>
<!-- Generator: Adobe Illustrator 21.0.2, SVG Export Plug-In . SVG Version: 6.00 Build 0)  -->
<!DOCTYPE svg PUBLIC "-//W3C//DTD SVG 1.1//EN" "http://www.w3.org/Graphics/SVG/1.1/DTD/svg11.dtd">
<svg version="1.1" id="category-cupid" xmlns="http://www.w3.org/2000/svg" xmlns:xlink="http://www.w3.org/1999/xlink" x="0px" y="0px"
	 width="64px" height="768px" viewBox="0 0 64 768" style="enable-background:new 0 0 64 768;" xml:space="preserve">
<style type="text/css">
	.st0{fill-rule:evenodd;clip-rule:evenodd;fill:#333333;}
	.st1{fill-rule:evenodd;clip-rule:evenodd;fill:#F82C61;}
</style>
<path id="black" class="st0" d="M56.1,33.6h0.1l-8,8h0L29,61L9.7,41.6h0.1C7.5,39.1,6,35.7,6,32c0-5.9,3.7-11,8.9-13
	c2-5.2,7.1-8.9,13-8.9c3.5,0,6.7,1.3,9.1,3.4c2.4-2.1,5.6-3.4,9.1-3.4C53.8,10,60,16.3,60,24C60,27.7,58.5,31.1,56.1,33.6z
	 M14.2,26.5c-1.5,1.6-2.2,3.8-2.2,6.1c0,1.4,0.9,3.4,2.7,5.3h-0.1L29,52.4l3.7-3.7l-15-15h0.1C16,31.7,14.7,29.3,14.2,26.5z
	 M45.3,15.9c-2.6,0-6.5,4-8.3,5.6c-1.8-1.6-5.7-5.6-8.3-5.6c-5.8,0-8.7,4.1-8.7,8.7c0,1.4,0.9,3.4,2.7,5.3h-0.1L37,44.4l14.5-14.5
	h-0.1C53.1,28,54,26,54,24.6C54,20,51.1,15.9,45.3,15.9z M14.6,82.4c2.3-4.4,7-7.4,12.3-7.4c3.5,0,6.7,1.3,9.1,3.4
	c2.4-2.1,5.6-3.4,9.1-3.4C52.8,75,59,81.3,59,89c0,3.8-1.5,7.2-3.9,9.7h0.1l-5.7,5.8h0l-19.3,19.4L11,104.4h0.1
	c-2.4-2.5-3.9-5.9-3.9-9.7C7.2,89.4,10.2,84.8,14.6,82.4z M50.4,94.9L50.4,94.9C52.1,93,53,91,53,89.6c0-4.6-2.9-8.7-8.7-8.7
	c-2.6,0-6.5,4-8.3,5.6c-1.8-1.6-5.7-5.6-8.3-5.6c-5.8,0-8.7,4.1-8.7,8.7c0,1.4,0.9,3.4,2.7,5.3h-0.1L36,109.4L50.4,94.9z
	 M15.9,100.6L15.9,100.6l14.4,14.5l1.4-1.4l-15-15h0.1c-1.5-1.6-2.7-3.5-3.3-5.7c-0.2,0.8-0.3,1.6-0.3,2.4
	C13.2,96.8,14.1,98.7,15.9,100.6z M14.3,146.2c2.5-3.7,6.7-6.2,11.5-6.2c3.5,0,6.7,1.3,9.1,3.4c2.4-2.1,5.6-3.4,9.1-3.4
	c7.7,0,13.9,6.3,13.9,14c0,3.8-1.5,7.2-3.9,9.7h0.1l-3.7,3.8h0l-19.3,19.4L12,167.4h0.1c-2.4-2.5-3.9-5.9-3.9-9.7
	C8.2,152.9,10.7,148.7,14.3,146.2z M20.6,159.9L20.6,159.9L35,174.4l14.5-14.5h-0.1c1.8-1.9,2.7-3.9,2.7-5.3c0-4.6-2.9-8.7-8.7-8.7
	c-2.6,0-6.5,4-8.3,5.6c-1.8-1.6-5.7-5.6-8.3-5.6c-5.8,0-8.7,4.1-8.7,8.7C18,156,18.8,158,20.6,159.9z M14.2,210
	c2.6-3.1,6.4-5,10.7-5c3.5,0,6.7,1.3,9.1,3.4c2.4-2.1,5.6-3.4,9.1-3.4c7.7,0,13.9,6.3,13.9,14c0,3.8-1.5,7.2-3.9,9.7h0.1l-1.7,1.8h0
	l-19.3,19.4L13,230.4h0.1c-2.4-2.5-3.9-5.9-3.9-9.7C9.2,216.4,11.2,212.6,14.2,210z M19.6,224.9L19.6,224.9L34,239.4l14.5-14.5h-0.1
	c1.8-1.9,2.7-3.9,2.7-5.3c0-4.6-2.9-8.7-8.7-8.7c-2.6,0-6.5,4-8.3,5.6c-1.8-1.6-5.7-5.6-8.3-5.6c-5.8,0-8.7,4.1-8.7,8.7
	C17,221,17.8,223,19.6,224.9z M23.9,270c3.5,0,6.7,1.3,9.1,3.4c2.4-2.1,5.6-3.4,9.1-3.4c7.7,0,13.9,6.3,13.9,14
	c0,3.8-1.5,7.2-3.9,9.7h0.1L33,313l-19.3-19.4h0.1c-2.4-2.5-3.9-5.9-3.9-9.7C10,276.3,16.2,270,23.9,270z M18.6,289.9L18.6,289.9
	L33,304.4l14.5-14.5h-0.1c1.8-1.9,2.7-3.9,2.7-5.3c0-4.6-2.9-8.7-8.7-8.7c-2.6,0-6.5,4-8.3,5.6c-1.8-1.6-5.7-5.6-8.3-5.6
	c-5.8,0-8.7,4.1-8.7,8.7C16,286,16.8,288,18.6,289.9z M23.9,334c3.5,0,6.7,1.3,9.1,3.4c2.4-2.1,5.6-3.4,9.1-3.4
	c7.7,0,13.9,6.3,13.9,14c0,3.8-1.5,7.2-3.9,9.7h0.1L33,377l-19.3-19.4h0.1c-2.4-2.5-3.9-5.9-3.9-9.7C10,340.3,16.2,334,23.9,334z
	 M18.6,353.9L18.6,353.9L33,368.4l14.5-14.5h-0.1c1.8-1.9,2.7-3.9,2.7-5.3c0-4.6-2.9-8.7-8.7-8.7c-2.6,0-6.5,4-8.3,5.6
	c-1.8-1.6-5.7-5.6-8.3-5.6c-5.8,0-8.7,4.1-8.7,8.7C16,350,16.8,352,18.6,353.9z M23.9,398c3.5,0,6.7,1.3,9.1,3.4
	c2.4-2.1,5.6-3.4,9.1-3.4c7.7,0,13.9,6.3,13.9,14c0,3.8-1.5,7.2-3.9,9.7h0.1L33,441l-19.3-19.4h0.1c-2.4-2.5-3.9-5.9-3.9-9.7
	C10,404.3,16.2,398,23.9,398z M18.6,417.9L18.6,417.9L33,432.4l14.5-14.5h-0.1c1.8-1.9,2.7-3.9,2.7-5.3c0-4.6-2.9-8.7-8.7-8.7
	c-2.6,0-6.5,4-8.3,5.6c-1.8-1.6-5.7-5.6-8.3-5.6c-5.8,0-8.7,4.1-8.7,8.7C16,414,16.8,416,18.6,417.9z M23.9,462
	c3.5,0,6.7,1.3,9.1,3.4c2.4-2.1,5.6-3.4,9.1-3.4c7.7,0,13.9,6.3,13.9,14c0,3.8-1.5,7.2-3.9,9.7h0.1L33,505l-19.3-19.4h0.1
	c-2.4-2.5-3.9-5.9-3.9-9.7C10,468.3,16.2,462,23.9,462z M18.6,481.9L18.6,481.9L33,496.4l14.5-14.5h-0.1c1.8-1.9,2.7-3.9,2.7-5.3
	c0-4.6-2.9-8.7-8.7-8.7c-2.6,0-6.5,4-8.3,5.6c-1.8-1.6-5.7-5.6-8.3-5.6c-5.8,0-8.7,4.1-8.7,8.7C16,478,16.8,480,18.6,481.9z"/>
<path id="pink" class="st1" d="M53.9,613.8h0.1l-20.9,20.9l-20.9-20.9h0.1c-2.6-2.7-4.2-6.4-4.2-10.5c0-8.4,6.8-15.1,15.1-15.1
	c3.8,0,7.2,1.4,9.9,3.7c2.7-2.3,6.1-3.7,9.9-3.7c8.3,0,15.1,6.8,15.1,15.1C58.1,607.4,56.5,611.1,53.9,613.8z M42.2,594.6
	c-2.8,0-7,4.3-9,6c-2-1.7-6.2-6-9-6c-6.3,0-9.4,4.5-9.4,9.4c0,1.5,0.9,3.7,2.9,5.7h-0.1l15.7,15.7l15.7-15.7h-0.1
	c2-2,2.9-4.2,2.9-5.7C51.6,599,48.4,594.6,42.2,594.6z M52.2,549.8h0.1L33,569.2l-19.4-19.4h0.1c-2.4-2.5-3.9-5.9-3.9-9.7
	c0-7.7,6.3-14,14-14c3.5,0,6.7,1.3,9.1,3.4c2.5-2.1,5.6-3.4,9.1-3.4c7.7,0,14,6.3,14,14C56.1,543.9,54.6,547.3,52.2,549.8z
	 M41.4,532c-2.6,0-6.5,4-8.4,5.6c-1.8-1.6-5.7-5.6-8.4-5.6c-5.8,0-8.7,4.1-8.7,8.7c0,1.4,0.9,3.4,2.7,5.3h-0.1L33,560.5L47.5,546
	h-0.1c1.8-1.9,2.7-3.9,2.7-5.3C50.1,536.2,47.1,532,41.4,532z M52.2,485.8h0.1c0,0-2.4,2.4-5.5,5.5c0,0-4.4-4.3-4.4-4.2
	c2.8-2.8,5.1-5.1,5.1-5.1h-0.1c1.8-1.9,2.7-3.9,2.7-5.3c0-4.6-2.9-8.7-8.7-8.7c-2.6,0-6.5,4-8.4,5.6c-1.8-1.6-5.7-5.6-8.4-5.6
	c-5.8,0-8.7,4.1-8.7,8.7c0,1.4,0.9,3.4,2.7,5.3h-0.1c0,0,2.3,2.3,5.1,5.1c0,0-4.3,4.3-4.3,4.3c-3.2-3.2-5.6-5.6-5.6-5.6h0.1
	c-2.4-2.5-3.9-5.9-3.9-9.7c0-7.7,6.3-14,14-14c3.5,0,6.7,1.3,9.1,3.4c2.5-2.1,5.6-3.4,9.1-3.4c7.7,0,14,6.3,14,14
	C56.1,479.8,54.6,483.2,52.2,485.8z M41.4,403.9c-2.6,0-6.5,4-8.4,5.6c-1.8-1.6-5.7-5.6-8.4-5.6c-5.8,0-8.7,4.1-8.7,8.7
	c0,0-6-0.6-6-0.6c0-7.7,6.3-14,14-14c3.5,0,6.7,1.3,9.1,3.4c2.5-2.1,5.6-3.4,9.1-3.4c7.7,0,14,6.3,14,14c0,0-6,0.6-6,0.6
	C50.1,408,47.1,403.9,41.4,403.9z M24.6,339.9c0,0,1-5.8,0.9-5.8c2.8,0.3,5.4,1.5,7.4,3.3c2.1-1.8,4.7-3,7.6-3.3
	c0,0,0.7,5.8,0.7,5.8c-2.6,0-6.5,4-8.4,5.6C31.2,343.8,27.3,339.9,24.6,339.9z M11.4,668.7c0-7.3,5.9-13.2,13.2-13.2
	c3.3,0,6.3,1.2,8.6,3.2c2.3-2,5.3-3.2,8.6-3.2c7.3,0,13.2,5.9,13.2,13.2c0,3.5-1.4,6.8-3.7,9.1h0.1L33.1,696l-18.2-18.2H15
	C12.8,675.4,11.4,672.2,11.4,668.7z M19.6,674.2L19.6,674.2l13.6,13.7l13.7-13.7h-0.1c1.7-1.8,2.5-3.6,2.5-5c0-4.3-2.8-8.2-8.2-8.2
	c-2.5,0-6.1,3.7-7.9,5.2c-1.7-1.5-5.4-5.2-7.9-5.2c-5.4,0-8.2,3.9-8.2,8.2C17,670.6,17.9,672.4,19.6,674.2z M24,718.3
	c3.5,0,6.7,1.3,9.1,3.4c2.4-2.1,5.6-3.4,9.1-3.4c7.7,0,13.9,6.2,13.9,13.9c0,3.7-1.5,7.1-3.9,9.6h0.1l-19.3,19.3l-19.3-19.3H14
	c-2.4-2.5-3.9-5.9-3.9-9.6C10.1,724.5,16.4,718.3,24,718.3z M18.8,738.1L18.8,738.1l14.3,14.4l14.4-14.4h-0.1
	c1.8-1.9,2.7-3.8,2.7-5.2c0-4.6-2.9-8.7-8.7-8.7c-2.6,0-6.5,3.9-8.3,5.5c-1.8-1.6-5.7-5.5-8.3-5.5c-5.8,0-8.7,4.1-8.7,8.7
	C16.1,734.2,17,736.2,18.8,738.1z"/>
</svg>
