<?xml version="1.0" encoding="utf-8"?>
<!-- Generator: Adobe Illustrator 21.0.2, SVG Export Plug-In . SVG Version: 6.00 Build 0)  -->
<!DOCTYPE svg PUBLIC "-//W3C//DTD SVG 1.1//EN" "http://www.w3.org/Graphics/SVG/1.1/DTD/svg11.dtd">
<svg version="1.1" id="category-painting" xmlns="http://www.w3.org/2000/svg" xmlns:xlink="http://www.w3.org/1999/xlink" x="0px" y="0px"
	 width="64px" height="768px" enable-background="new 0 0 64 768" xml:space="preserve">
<g id="c1">
	<path id="bg" fill-rule="evenodd" clip-rule="evenodd" fill="#333333" d="M55,62H9c-0.552,0-1-0.448-1-1V3c0-0.552,0.448-1,1-1h46
		c0.552,0,1,0.448,1,1v58C56,61.552,55.552,62,55,62z M50,9c0-0.552-0.448-1-1-1H15c-0.552,0-1,0.448-1,1v46c0,0.552,0.448,1,1,1h34
		c0.552,0,1-0.448,1-1V9z M47,54H17c-0.552,0-1-0.448-1-1V11c0-0.552,0.448-1,1-1h30c0.552,0,1,0.448,1,1v42
		C48,53.552,47.552,54,47,54z M42,52v-4c0-0.686-0.077-1.353-0.209-2H26h-2c0-4.215,3.26-7.666,7.396-7.975
		c-0.027,0.002-0.054,0.002-0.08,0.003c-0.071,0.005-0.142,0.008-0.212,0.014c-0.212,0.019-0.422,0.046-0.63,0.078
		c-0.081,0.012-0.161,0.026-0.241,0.04c-0.206,0.037-0.411,0.078-0.613,0.128c-0.069,0.017-0.136,0.036-0.204,0.055
		c-0.169,0.045-0.337,0.095-0.503,0.149c-0.059,0.019-0.119,0.037-0.178,0.057c-0.199,0.069-0.395,0.146-0.589,0.227
		c-0.066,0.028-0.133,0.056-0.198,0.085c-0.192,0.086-0.382,0.176-0.568,0.273c-0.053,0.028-0.104,0.057-0.156,0.085
		c-0.166,0.091-0.33,0.185-0.49,0.285c-0.039,0.024-0.08,0.047-0.118,0.072c-0.183,0.117-0.361,0.242-0.535,0.37
		C23.606,41.765,22,44.694,22,48v4H42z M26.349,44H34v-4v-2v-1.831V32V22h-8v10c0,2.209,1.791,4,4,4c0.729,0,1.411-0.198,2-0.54V36
		v2v2C29.389,40,27.173,41.671,26.349,44z M46,12.5c0-0.276-0.224-0.5-0.5-0.5h-27c-0.276,0-0.5,0.224-0.5,0.5v39
		c0,0.276,0.224,0.5,0.5,0.5H20v-4c0-3.553,1.546-6.745,4-8.942V24c0-4.418,3.582-8,8-8s8,3.582,8,8v15.06
		c2.454,2.196,4,5.387,4,8.94v4h1.5c0.276,0,0.5-0.224,0.5-0.5V12.5z"/>
</g>
<g id="c2">
	<path id="bg_1_" fill-rule="evenodd" clip-rule="evenodd" fill="#333333" d="M55,126H9c-0.552,0-1-0.448-1-1V67
		c0-0.552,0.448-1,1-1h46c0.552,0,1,0.448,1,1v58C56,125.552,55.552,126,55,126z M50,73c0-0.552-0.448-1-1-1H15
		c-0.552,0-1,0.448-1,1v46c0,0.552,0.448,1,1,1h34c0.552,0,1-0.448,1-1V73z M47,118H17c-0.552,0-1-0.448-1-1V75c0-0.552,0.448-1,1-1
		h30c0.552,0,1,0.448,1,1v42C48,117.552,47.552,118,47,118z M42,116v-4c0-0.686-0.077-1.353-0.209-2H26h-2
		c0-4.215,3.26-7.666,7.396-7.975c-0.027,0.002-0.054,0.001-0.08,0.003c-0.071,0.005-0.142,0.008-0.212,0.014
		c-0.212,0.019-0.422,0.046-0.63,0.078c-0.081,0.012-0.161,0.025-0.241,0.04c-0.206,0.037-0.411,0.078-0.613,0.128
		c-0.069,0.017-0.136,0.036-0.204,0.055c-0.169,0.045-0.337,0.095-0.503,0.148c-0.059,0.019-0.119,0.037-0.178,0.057
		c-0.199,0.069-0.395,0.146-0.589,0.227c-0.066,0.028-0.133,0.056-0.198,0.085c-0.192,0.085-0.382,0.176-0.568,0.273
		c-0.053,0.027-0.104,0.057-0.156,0.085c-0.166,0.091-0.33,0.185-0.49,0.285c-0.039,0.024-0.08,0.047-0.118,0.072
		c-0.183,0.117-0.361,0.242-0.535,0.37C23.606,105.765,22,108.694,22,112v4H42z M26.349,108H34v-4v-2v-1.831V96V86h-8v10
		c0,2.209,1.791,4,4,4c0.729,0,1.411-0.198,2-0.539V100v2v2C29.389,104,27.173,105.671,26.349,108z M46,76.5
		c0-0.276-0.224-0.5-0.5-0.5h-27c-0.276,0-0.5,0.224-0.5,0.5v39c0,0.276,0.224,0.5,0.5,0.5H20v-4c0-3.553,1.546-6.745,4-8.942V88
		c0-4.418,3.582-8,8-8s8,3.582,8,8v15.06c2.454,2.196,4,5.387,4,8.94v4h1.5c0.276,0,0.5-0.224,0.5-0.5V76.5z"/>
	<g id="shade">
		<defs>
			<path id="SVGID_1_" d="M8.75,66c3.854,0,13.8,0,21.25,0c4,2,2.45,6,2,7C8.75,74,8,74,8,74s0-5.174,0-7.2C8,66.45,8.6,66,8.75,66z
				"/>
		</defs>
		<clipPath id="SVGID_2_">
			<use xlink:href="#SVGID_1_"  overflow="visible"/>
		</clipPath>
		<path clip-path="url(#SVGID_2_)" fill-rule="evenodd" clip-rule="evenodd" fill="#FFFFFF" d="M12,70h40v52H12V70z"/>
		<path clip-path="url(#SVGID_2_)" fill-rule="evenodd" clip-rule="evenodd" fill="#6B5A2C" d="M55,126H9c-0.552,0-1-0.448-1-1V67
			c0-0.552,0.448-1,1-1h46c0.552,0,1,0.448,1,1v58C56,125.552,55.552,126,55,126z M50,73c0-0.552-0.448-1-1-1H15
			c-0.552,0-1,0.448-1,1v46c0,0.552,0.448,1,1,1h34c0.552,0,1-0.448,1-1V73z"/>
		<path clip-path="url(#SVGID_2_)" fill-rule="evenodd" clip-rule="evenodd" fill="#79845C" d="M16.5,74h31
			c0.276,0,0.5,0.224,0.5,0.5v43c0,0.276-0.224,0.5-0.5,0.5h-31c-0.276,0-0.5-0.224-0.5-0.5v-43C16,74.224,16.224,74,16.5,74z"/>
		<path clip-path="url(#SVGID_2_)" fill-rule="evenodd" clip-rule="evenodd" fill="#56502E" d="M32,100c6.627,0,12,5.373,12,12v6H20
			v-6C20,105.373,25.373,100,32,100z"/>
		<path clip-path="url(#SVGID_2_)" fill-rule="evenodd" clip-rule="evenodd" fill="#695F3B" d="M24,110h10v8H24V110z"/>
		<path clip-path="url(#SVGID_2_)" fill-rule="evenodd" clip-rule="evenodd" fill="#F8E0C8" d="M32,110c0,0-2,0-8,0
			c0-4.418,3.582-8,8-8v-2.539C31.411,99.802,30.729,100,30,100c-2.209,0-4-1.791-4-4V86h8v8v2v12v2H32z"/>
		<path clip-path="url(#SVGID_2_)" fill-rule="evenodd" clip-rule="evenodd" fill="#503E28" d="M34,110v-6v-8V86h-8v10
			c0,2.209,1.791,4,4,4c0.729,0,1.411-0.198,2-0.539V100c-3.074,0-5.877,1.157-8,3.058V88c0-4.418,3.582-8,8-8s8,3.582,8,8v16v6H34z
			"/>
	</g>
</g>
<g id="c3">
	<path id="bg_2_" fill-rule="evenodd" clip-rule="evenodd" fill="#333333" d="M55,190H9c-0.552,0-1-0.448-1-1v-58
		c0-0.552,0.448-1,1-1h46c0.552,0,1,0.448,1,1v58C56,189.552,55.552,190,55,190z M50,137c0-0.552-0.448-1-1-1H15
		c-0.552,0-1,0.448-1,1v46c0,0.552,0.448,1,1,1h34c0.552,0,1-0.448,1-1V137z M47,182H17c-0.552,0-1-0.448-1-1v-42
		c0-0.552,0.448-1,1-1h30c0.552,0,1,0.448,1,1v42C48,181.552,47.552,182,47,182z M42,180v-4c0-0.686-0.077-1.353-0.209-2H26h-2
		c0-4.215,3.26-7.666,7.396-7.975c-0.027,0.002-0.054,0.001-0.08,0.003c-0.071,0.005-0.142,0.008-0.212,0.014
		c-0.212,0.019-0.422,0.046-0.63,0.078c-0.081,0.012-0.161,0.025-0.241,0.04c-0.206,0.037-0.411,0.078-0.613,0.128
		c-0.069,0.017-0.136,0.036-0.204,0.055c-0.169,0.045-0.337,0.095-0.503,0.148c-0.059,0.019-0.119,0.037-0.178,0.057
		c-0.199,0.069-0.395,0.146-0.589,0.227c-0.066,0.028-0.133,0.056-0.198,0.085c-0.192,0.086-0.382,0.176-0.568,0.273
		c-0.053,0.028-0.104,0.057-0.156,0.085c-0.166,0.091-0.33,0.185-0.49,0.285c-0.039,0.024-0.08,0.047-0.118,0.072
		c-0.183,0.117-0.361,0.242-0.535,0.37C23.606,169.765,22,172.694,22,176v4H42z M26.349,172H34v-4v-2v-1.831V160v-10h-8v10
		c0,2.209,1.791,4,4,4c0.729,0,1.411-0.198,2-0.54V164v2v2C29.389,168,27.173,169.671,26.349,172z M46,140.5
		c0-0.276-0.224-0.5-0.5-0.5h-27c-0.276,0-0.5,0.224-0.5,0.5v39c0,0.276,0.224,0.5,0.5,0.5H20v-4c0-3.553,1.546-6.745,4-8.942V152
		c0-4.418,3.582-8,8-8s8,3.582,8,8v15.06c2.454,2.196,4,5.387,4,8.94v4h1.5c0.276,0,0.5-0.224,0.5-0.5V140.5z"/>
	<g id="shade_1_">
		<defs>
			<path id="SVGID_3_" d="M8.75,130c3.506,0,39.737,0,46.25,0c0.583,0,1,0.617,1,1c0,1.765,0,5.25,0,5.25L8,138c0,0,0-5.174,0-7.2
				C8,130.45,8.6,130,8.75,130z"/>
		</defs>
		<clipPath id="SVGID_4_">
			<use xlink:href="#SVGID_3_"  overflow="visible"/>
		</clipPath>
		<path clip-path="url(#SVGID_4_)" fill-rule="evenodd" clip-rule="evenodd" fill="#FFFFFF" d="M12,134h40v52H12V134z"/>
		<path clip-path="url(#SVGID_4_)" fill-rule="evenodd" clip-rule="evenodd" fill="#6B5A2C" d="M55,190H9c-0.552,0-1-0.448-1-1v-58
			c0-0.552,0.448-1,1-1h46c0.552,0,1,0.448,1,1v58C56,189.552,55.552,190,55,190z M50,137c0-0.552-0.448-1-1-1H15
			c-0.552,0-1,0.448-1,1v46c0,0.552,0.448,1,1,1h34c0.552,0,1-0.448,1-1V137z"/>
		<path clip-path="url(#SVGID_4_)" fill-rule="evenodd" clip-rule="evenodd" fill="#79845C" d="M16.5,138h31
			c0.276,0,0.5,0.224,0.5,0.5v43c0,0.276-0.224,0.5-0.5,0.5h-31c-0.276,0-0.5-0.224-0.5-0.5v-43C16,138.224,16.224,138,16.5,138z"/>
		<path clip-path="url(#SVGID_4_)" fill-rule="evenodd" clip-rule="evenodd" fill="#56502E" d="M32,164c6.627,0,12,5.373,12,12v6H20
			v-6C20,169.373,25.373,164,32,164z"/>
		<path clip-path="url(#SVGID_4_)" fill-rule="evenodd" clip-rule="evenodd" fill="#695F3B" d="M24,174h10v8H24V174z"/>
		<path clip-path="url(#SVGID_4_)" fill-rule="evenodd" clip-rule="evenodd" fill="#F8E0C8" d="M32,174c0,0-2,0-8,0
			c0-4.418,3.582-8,8-8v-2.54c-0.589,0.341-1.271,0.54-2,0.54c-2.209,0-4-1.791-4-4v-10h8v8v2v12v2H32z"/>
		<path clip-path="url(#SVGID_4_)" fill-rule="evenodd" clip-rule="evenodd" fill="#503E28" d="M34,174v-6v-8v-10h-8v10
			c0,2.209,1.791,4,4,4c0.729,0,1.411-0.198,2-0.54V164c-3.074,0-5.877,1.157-8,3.058V152c0-4.418,3.582-8,8-8s8,3.582,8,8v16v6H34z
			"/>
	</g>
</g>
<g id="c4">
	<path id="bg_3_" fill-rule="evenodd" clip-rule="evenodd" fill="#333333" d="M55,254H9c-0.552,0-1-0.448-1-1v-58
		c0-0.552,0.448-1,1-1h46c0.552,0,1,0.448,1,1v58C56,253.552,55.552,254,55,254z M50,201c0-0.552-0.448-1-1-1H15
		c-0.552,0-1,0.448-1,1v46c0,0.552,0.448,1,1,1h34c0.552,0,1-0.448,1-1V201z M47,246H17c-0.552,0-1-0.448-1-1v-42
		c0-0.552,0.448-1,1-1h30c0.552,0,1,0.448,1,1v42C48,245.552,47.552,246,47,246z M42,244v-4c0-0.686-0.077-1.353-0.209-2H26h-2
		c0-4.215,3.26-7.666,7.396-7.975c-0.027,0.002-0.054,0.001-0.08,0.003c-0.071,0.005-0.142,0.008-0.212,0.014
		c-0.212,0.019-0.422,0.046-0.63,0.078c-0.081,0.012-0.161,0.025-0.241,0.04c-0.206,0.037-0.411,0.078-0.613,0.128
		c-0.069,0.017-0.136,0.036-0.204,0.055c-0.169,0.045-0.337,0.095-0.503,0.148c-0.059,0.019-0.119,0.037-0.178,0.057
		c-0.199,0.069-0.395,0.146-0.589,0.227c-0.066,0.028-0.133,0.056-0.198,0.085c-0.192,0.086-0.382,0.176-0.568,0.273
		c-0.053,0.028-0.104,0.057-0.156,0.085c-0.166,0.091-0.33,0.185-0.49,0.285c-0.039,0.024-0.08,0.047-0.118,0.072
		c-0.183,0.117-0.361,0.242-0.535,0.37C23.606,233.765,22,236.694,22,240v4H42z M26.349,236H34v-4v-2v-1.831V224v-10h-8v10
		c0,2.209,1.791,4,4,4c0.729,0,1.411-0.198,2-0.54V228v2v2C29.389,232,27.173,233.671,26.349,236z M46,204.5
		c0-0.276-0.224-0.5-0.5-0.5h-27c-0.276,0-0.5,0.224-0.5,0.5v39c0,0.276,0.224,0.5,0.5,0.5H20v-4c0-3.553,1.546-6.745,4-8.942V216
		c0-4.418,3.582-8,8-8s8,3.582,8,8v15.06c2.454,2.196,4,5.387,4,8.94v4h1.5c0.276,0,0.5-0.224,0.5-0.5V204.5z"/>
	<g id="shade_2_">
		<defs>
			<path id="SVGID_5_" d="M8.75,194c3.506,0,39.737,0,46.25,0c0.583,0,1,0.617,1,1c0,1.765,0,14.5,0,14.5
				c-0.013,0.007-10-0.125-24.5,1c-5.715-3.874,0.397-9.371,0.397-9.371L8,202c0,0,0-5.174,0-7.2C8,194.45,8.6,194,8.75,194z"/>
		</defs>
		<clipPath id="SVGID_6_">
			<use xlink:href="#SVGID_5_"  overflow="visible"/>
		</clipPath>
		<path clip-path="url(#SVGID_6_)" fill-rule="evenodd" clip-rule="evenodd" fill="#FFFFFF" d="M12,198h40v52H12V198z"/>
		<path clip-path="url(#SVGID_6_)" fill-rule="evenodd" clip-rule="evenodd" fill="#6B5A2C" d="M55,254H9c-0.552,0-1-0.448-1-1v-58
			c0-0.552,0.448-1,1-1h46c0.552,0,1,0.448,1,1v58C56,253.552,55.552,254,55,254z M50,201c0-0.552-0.448-1-1-1H15
			c-0.552,0-1,0.448-1,1v46c0,0.552,0.448,1,1,1h34c0.552,0,1-0.448,1-1V201z"/>
		<path clip-path="url(#SVGID_6_)" fill-rule="evenodd" clip-rule="evenodd" fill="#79845C" d="M16.5,202h31
			c0.276,0,0.5,0.224,0.5,0.5v43c0,0.276-0.224,0.5-0.5,0.5h-31c-0.276,0-0.5-0.224-0.5-0.5v-43C16,202.224,16.224,202,16.5,202z"/>
		<path clip-path="url(#SVGID_6_)" fill-rule="evenodd" clip-rule="evenodd" fill="#56502E" d="M32,228c6.627,0,12,5.373,12,12v6H20
			v-6C20,233.373,25.373,228,32,228z"/>
		<path clip-path="url(#SVGID_6_)" fill-rule="evenodd" clip-rule="evenodd" fill="#695F3B" d="M24,238h10v8H24V238z"/>
		<path clip-path="url(#SVGID_6_)" fill-rule="evenodd" clip-rule="evenodd" fill="#F8E0C8" d="M32,238c0,0-2,0-8,0
			c0-4.418,3.582-8,8-8v-2.54c-0.589,0.341-1.271,0.54-2,0.54c-2.209,0-4-1.791-4-4v-10h8v8v2v12v2H32z"/>
		<path clip-path="url(#SVGID_6_)" fill-rule="evenodd" clip-rule="evenodd" fill="#503E28" d="M34,238v-6v-8v-10h-8v10
			c0,2.209,1.791,4,4,4c0.729,0,1.411-0.198,2-0.54V228c-3.074,0-5.877,1.157-8,3.058V216c0-4.418,3.582-8,8-8s8,3.582,8,8v16v6H34z
			"/>
	</g>
</g>
<g id="c5">
	<path id="bg_4_" fill-rule="evenodd" clip-rule="evenodd" fill="#333333" d="M55,318H9c-0.552,0-1-0.448-1-1v-58
		c0-0.552,0.448-1,1-1h46c0.552,0,1,0.448,1,1v58C56,317.552,55.552,318,55,318z M50,265c0-0.552-0.448-1-1-1H15
		c-0.552,0-1,0.448-1,1v46c0,0.552,0.448,1,1,1h34c0.552,0,1-0.448,1-1V265z M47,310H17c-0.552,0-1-0.448-1-1v-42
		c0-0.552,0.448-1,1-1h30c0.552,0,1,0.448,1,1v42C48,309.552,47.552,310,47,310z M42,308v-4c0-0.686-0.077-1.353-0.209-2H26h-2
		c0-4.215,3.26-7.666,7.396-7.975c-0.027,0.002-0.054,0.001-0.08,0.003c-0.071,0.005-0.142,0.008-0.212,0.014
		c-0.212,0.019-0.422,0.046-0.63,0.078c-0.081,0.012-0.161,0.026-0.241,0.04c-0.206,0.037-0.411,0.078-0.613,0.128
		c-0.069,0.017-0.136,0.036-0.204,0.055c-0.169,0.045-0.337,0.095-0.503,0.148c-0.059,0.019-0.119,0.037-0.178,0.057
		c-0.199,0.069-0.395,0.146-0.589,0.227c-0.066,0.028-0.133,0.056-0.198,0.085c-0.192,0.085-0.382,0.176-0.568,0.273
		c-0.053,0.027-0.104,0.057-0.156,0.085c-0.166,0.091-0.33,0.185-0.49,0.285c-0.039,0.024-0.08,0.047-0.118,0.072
		c-0.183,0.117-0.361,0.242-0.535,0.37C23.606,297.765,22,300.694,22,304v4H42z M26.349,300H34v-4v-2v-1.831V288v-10h-8v10
		c0,2.209,1.791,4,4,4c0.729,0,1.411-0.198,2-0.539V292v2v2C29.389,296,27.173,297.671,26.349,300z M46,268.5
		c0-0.276-0.224-0.5-0.5-0.5h-27c-0.276,0-0.5,0.224-0.5,0.5v39c0,0.276,0.224,0.5,0.5,0.5H20v-4c0-3.553,1.546-6.745,4-8.942V280
		c0-4.418,3.582-8,8-8s8,3.582,8,8v15.06c2.454,2.196,4,5.387,4,8.94v4h1.5c0.276,0,0.5-0.224,0.5-0.5V268.5z"/>
	<g id="shade_3_">
		<defs>
			<path id="SVGID_7_" d="M8.75,258c3.506,0,39.737,0,46.25,0c0.583,0,1,0.617,1,1c0,1.765,0,14.5,0,14.5
				c-0.013,0.007-24-0.474-48,2c0-17.883,0-7,0-16.7C8,258.45,8.6,258,8.75,258z"/>
		</defs>
		<clipPath id="SVGID_8_">
			<use xlink:href="#SVGID_7_"  overflow="visible"/>
		</clipPath>
		<path clip-path="url(#SVGID_8_)" fill-rule="evenodd" clip-rule="evenodd" fill="#FFFFFF" d="M12,262h40v52H12V262z"/>
		<path clip-path="url(#SVGID_8_)" fill-rule="evenodd" clip-rule="evenodd" fill="#6B5A2C" d="M55,318H9c-0.552,0-1-0.448-1-1v-58
			c0-0.552,0.448-1,1-1h46c0.552,0,1,0.448,1,1v58C56,317.552,55.552,318,55,318z M50,265c0-0.552-0.448-1-1-1H15
			c-0.552,0-1,0.448-1,1v46c0,0.552,0.448,1,1,1h34c0.552,0,1-0.448,1-1V265z"/>
		<path clip-path="url(#SVGID_8_)" fill-rule="evenodd" clip-rule="evenodd" fill="#79845C" d="M16.5,266h31
			c0.276,0,0.5,0.224,0.5,0.5v43c0,0.276-0.224,0.5-0.5,0.5h-31c-0.276,0-0.5-0.224-0.5-0.5v-43C16,266.224,16.224,266,16.5,266z"/>
		<path clip-path="url(#SVGID_8_)" fill-rule="evenodd" clip-rule="evenodd" fill="#56502E" d="M32,292c6.627,0,12,5.373,12,12v6H20
			v-6C20,297.373,25.373,292,32,292z"/>
		<path clip-path="url(#SVGID_8_)" fill-rule="evenodd" clip-rule="evenodd" fill="#695F3B" d="M24,302h10v8H24V302z"/>
		<path clip-path="url(#SVGID_8_)" fill-rule="evenodd" clip-rule="evenodd" fill="#F8E0C8" d="M32,302c0,0-2,0-8,0
			c0-4.418,3.582-8,8-8v-2.539c-0.589,0.341-1.271,0.539-2,0.539c-2.209,0-4-1.791-4-4v-10h8v8v2v12v2H32z"/>
		<path clip-path="url(#SVGID_8_)" fill-rule="evenodd" clip-rule="evenodd" fill="#503E28" d="M34,302v-6v-8v-10h-8v10
			c0,2.209,1.791,4,4,4c0.729,0,1.411-0.198,2-0.539V292c-3.074,0-5.877,1.157-8,3.058V280c0-4.418,3.582-8,8-8s8,3.582,8,8v16v6H34
			z"/>
	</g>
</g>
<g id="c6">
	<path id="bg_5_" fill-rule="evenodd" clip-rule="evenodd" fill="#333333" d="M55,382H9c-0.552,0-1-0.448-1-1v-58
		c0-0.552,0.448-1,1-1h46c0.552,0,1,0.448,1,1v58C56,381.552,55.552,382,55,382z M50,329c0-0.552-0.448-1-1-1H15
		c-0.552,0-1,0.448-1,1v46c0,0.552,0.448,1,1,1h34c0.552,0,1-0.448,1-1V329z M47,374H17c-0.552,0-1-0.448-1-1v-42
		c0-0.552,0.448-1,1-1h30c0.552,0,1,0.448,1,1v42C48,373.552,47.552,374,47,374z M42,372v-4c0-0.686-0.077-1.353-0.209-2H26h-2
		c0-4.215,3.26-7.666,7.396-7.975c-0.027,0.002-0.054,0.001-0.08,0.003c-0.071,0.005-0.142,0.008-0.212,0.014
		c-0.212,0.019-0.422,0.046-0.63,0.078c-0.081,0.012-0.161,0.026-0.241,0.04c-0.206,0.037-0.411,0.078-0.613,0.128
		c-0.069,0.017-0.136,0.036-0.204,0.055c-0.169,0.045-0.337,0.095-0.503,0.148c-0.059,0.019-0.119,0.037-0.178,0.057
		c-0.199,0.069-0.395,0.146-0.589,0.227c-0.066,0.028-0.133,0.056-0.198,0.085c-0.192,0.085-0.382,0.176-0.568,0.273
		c-0.053,0.027-0.104,0.057-0.156,0.085c-0.166,0.091-0.33,0.185-0.49,0.285c-0.039,0.024-0.08,0.047-0.118,0.072
		c-0.183,0.117-0.361,0.242-0.535,0.37C23.606,361.765,22,364.694,22,368v4H42z M26.349,364H34v-4v-2v-1.831V352v-10h-8v10
		c0,2.209,1.791,4,4,4c0.729,0,1.411-0.198,2-0.539V356v2v2C29.389,360,27.173,361.671,26.349,364z M46,332.5
		c0-0.276-0.224-0.5-0.5-0.5h-27c-0.276,0-0.5,0.224-0.5,0.5v39c0,0.276,0.224,0.5,0.5,0.5H20v-4c0-3.553,1.546-6.745,4-8.942V344
		c0-4.418,3.582-8,8-8s8,3.582,8,8v15.06c2.454,2.196,4,5.387,4,8.94v4h1.5c0.276,0,0.5-0.224,0.5-0.5V332.5z"/>
	<g id="shade_4_">
		<defs>
			<path id="SVGID_9_" d="M8.75,322c3.506,0,39.737,0,46.25,0c0.583,0,1,0.617,1,1c0,1.765,0,14.5,0,14.5
				c-0.008,0.004-5.301,0.069-18.103,0.526C42,340.25,44.692,349.599,40,349.25c-4.593-0.341-24.893-2.178-32-1.25
				c0-17.883,0-15.5,0-25.2C8,322.45,8.6,322,8.75,322z"/>
		</defs>
		<clipPath id="SVGID_10_">
			<use xlink:href="#SVGID_9_"  overflow="visible"/>
		</clipPath>
		<path clip-path="url(#SVGID_10_)" fill-rule="evenodd" clip-rule="evenodd" fill="#FFFFFF" d="M12,326h40v52H12V326z"/>
		<path clip-path="url(#SVGID_10_)" fill-rule="evenodd" clip-rule="evenodd" fill="#6B5A2C" d="M55,382H9c-0.552,0-1-0.448-1-1v-58
			c0-0.552,0.448-1,1-1h46c0.552,0,1,0.448,1,1v58C56,381.552,55.552,382,55,382z M50,329c0-0.552-0.448-1-1-1H15
			c-0.552,0-1,0.448-1,1v46c0,0.552,0.448,1,1,1h34c0.552,0,1-0.448,1-1V329z"/>
		<path clip-path="url(#SVGID_10_)" fill-rule="evenodd" clip-rule="evenodd" fill="#79845C" d="M16.5,330h31
			c0.276,0,0.5,0.224,0.5,0.5v43c0,0.276-0.224,0.5-0.5,0.5h-31c-0.276,0-0.5-0.224-0.5-0.5v-43C16,330.224,16.224,330,16.5,330z"/>
		<path clip-path="url(#SVGID_10_)" fill-rule="evenodd" clip-rule="evenodd" fill="#56502E" d="M32,356c6.627,0,12,5.373,12,12v6
			H20v-6C20,361.373,25.373,356,32,356z"/>
		<path clip-path="url(#SVGID_10_)" fill-rule="evenodd" clip-rule="evenodd" fill="#695F3B" d="M24,366h10v8H24V366z"/>
		<path clip-path="url(#SVGID_10_)" fill-rule="evenodd" clip-rule="evenodd" fill="#F8E0C8" d="M32,366c0,0-2,0-8,0
			c0-4.418,3.582-8,8-8v-2.539c-0.589,0.341-1.271,0.539-2,0.539c-2.209,0-4-1.791-4-4v-10h8v8v2v12v2H32z"/>
		<path clip-path="url(#SVGID_10_)" fill-rule="evenodd" clip-rule="evenodd" fill="#503E28" d="M34,366v-6v-8v-10h-8v10
			c0,2.209,1.791,4,4,4c0.729,0,1.411-0.198,2-0.539V356c-3.074,0-5.877,1.157-8,3.058V344c0-4.418,3.582-8,8-8s8,3.582,8,8v16v6H34
			z"/>
	</g>
</g>
<g id="c7">
	<path id="bg_6_" fill-rule="evenodd" clip-rule="evenodd" fill="#333333" d="M55,446H9c-0.552,0-1-0.448-1-1v-58
		c0-0.552,0.448-1,1-1h46c0.552,0,1,0.448,1,1v58C56,445.552,55.552,446,55,446z M50,393c0-0.552-0.448-1-1-1H15
		c-0.552,0-1,0.448-1,1v46c0,0.552,0.448,1,1,1h34c0.552,0,1-0.448,1-1V393z M47,438H17c-0.552,0-1-0.448-1-1v-42
		c0-0.552,0.448-1,1-1h30c0.552,0,1,0.448,1,1v42C48,437.552,47.552,438,47,438z M42,436v-4c0-0.686-0.077-1.353-0.209-2H26h-2
		c0-4.215,3.26-7.666,7.396-7.975c-0.027,0.002-0.054,0.001-0.08,0.003c-0.071,0.005-0.142,0.008-0.212,0.014
		c-0.212,0.019-0.422,0.046-0.63,0.078c-0.081,0.012-0.161,0.026-0.241,0.04c-0.206,0.037-0.411,0.078-0.613,0.128
		c-0.069,0.017-0.136,0.036-0.204,0.055c-0.169,0.045-0.337,0.095-0.503,0.148c-0.059,0.019-0.119,0.037-0.178,0.057
		c-0.199,0.069-0.395,0.146-0.589,0.227c-0.066,0.028-0.133,0.056-0.198,0.085c-0.192,0.085-0.382,0.176-0.568,0.273
		c-0.053,0.027-0.104,0.057-0.156,0.085c-0.166,0.091-0.33,0.185-0.49,0.285c-0.039,0.024-0.08,0.047-0.118,0.072
		c-0.183,0.117-0.361,0.242-0.535,0.37C23.606,425.765,22,428.694,22,432v4H42z M26.349,428H34v-4v-2v-1.831V416v-10h-8v10
		c0,2.209,1.791,4,4,4c0.729,0,1.411-0.198,2-0.539V420v2v2C29.389,424,27.173,425.671,26.349,428z M46,396.5
		c0-0.276-0.224-0.5-0.5-0.5h-27c-0.276,0-0.5,0.224-0.5,0.5v39c0,0.276,0.224,0.5,0.5,0.5H20v-4c0-3.553,1.546-6.745,4-8.942V408
		c0-4.418,3.582-8,8-8s8,3.582,8,8v15.06c2.454,2.196,4,5.387,4,8.94v4h1.5c0.276,0,0.5-0.224,0.5-0.5V396.5z"/>
	<g id="shade_5_">
		<defs>
			<path id="SVGID_11_" d="M8.75,386c3.506,0,39.737,0,46.25,0c0.583,0,1,0.617,1,1c0,2.103,0,37,0,37s-3.928-0.071-4.5,0
				c-8.849,1.1-6.325-10.209-5-10.75C34.222,412.452,13.114,411.332,8,412c0-17.883,0-15.5,0-25.2C8,386.45,8.6,386,8.75,386z"/>
		</defs>
		<clipPath id="SVGID_12_">
			<use xlink:href="#SVGID_11_"  overflow="visible"/>
		</clipPath>
		<path clip-path="url(#SVGID_12_)" fill-rule="evenodd" clip-rule="evenodd" fill="#FFFFFF" d="M12,390h40v52H12V390z"/>
		<path clip-path="url(#SVGID_12_)" fill-rule="evenodd" clip-rule="evenodd" fill="#6B5A2C" d="M55,446H9c-0.552,0-1-0.448-1-1v-58
			c0-0.552,0.448-1,1-1h46c0.552,0,1,0.448,1,1v58C56,445.552,55.552,446,55,446z M50,393c0-0.552-0.448-1-1-1H15
			c-0.552,0-1,0.448-1,1v46c0,0.552,0.448,1,1,1h34c0.552,0,1-0.448,1-1V393z"/>
		<path clip-path="url(#SVGID_12_)" fill-rule="evenodd" clip-rule="evenodd" fill="#79845C" d="M16.5,394h31
			c0.276,0,0.5,0.224,0.5,0.5v43c0,0.276-0.224,0.5-0.5,0.5h-31c-0.276,0-0.5-0.224-0.5-0.5v-43C16,394.224,16.224,394,16.5,394z"/>
		<path clip-path="url(#SVGID_12_)" fill-rule="evenodd" clip-rule="evenodd" fill="#56502E" d="M32,420c6.627,0,12,5.373,12,12v6
			H20v-6C20,425.373,25.373,420,32,420z"/>
		<path clip-path="url(#SVGID_12_)" fill-rule="evenodd" clip-rule="evenodd" fill="#695F3B" d="M24,430h10v8H24V430z"/>
		<path clip-path="url(#SVGID_12_)" fill-rule="evenodd" clip-rule="evenodd" fill="#F8E0C8" d="M32,430c0,0-2,0-8,0
			c0-4.418,3.582-8,8-8v-2.539c-0.589,0.341-1.271,0.539-2,0.539c-2.209,0-4-1.791-4-4v-10h8v8v2v12v2H32z"/>
		<path clip-path="url(#SVGID_12_)" fill-rule="evenodd" clip-rule="evenodd" fill="#503E28" d="M34,430v-6v-8v-10h-8v10
			c0,2.209,1.791,4,4,4c0.729,0,1.411-0.198,2-0.539V420c-3.074,0-5.877,1.157-8,3.058V408c0-4.418,3.582-8,8-8s8,3.582,8,8v16v6H34
			z"/>
	</g>
</g>
<g id="c8">
	<path id="bg_7_" fill-rule="evenodd" clip-rule="evenodd" fill="#333333" d="M55,510H9c-0.552,0-1-0.448-1-1v-58
		c0-0.552,0.448-1,1-1h46c0.552,0,1,0.448,1,1v58C56,509.552,55.552,510,55,510z M50,457c0-0.552-0.448-1-1-1H15
		c-0.552,0-1,0.448-1,1v46c0,0.552,0.448,1,1,1h34c0.552,0,1-0.448,1-1V457z M47,502H17c-0.552,0-1-0.448-1-1v-42
		c0-0.552,0.448-1,1-1h30c0.552,0,1,0.448,1,1v42C48,501.552,47.552,502,47,502z M42,500v-4c0-0.686-0.077-1.353-0.209-2H26h-2
		c0-4.215,3.26-7.666,7.396-7.975c-0.027,0.002-0.054,0.001-0.08,0.003c-0.071,0.005-0.142,0.008-0.212,0.014
		c-0.212,0.019-0.422,0.046-0.63,0.078c-0.081,0.012-0.161,0.026-0.241,0.04c-0.206,0.037-0.411,0.078-0.613,0.128
		c-0.069,0.017-0.136,0.036-0.204,0.055c-0.169,0.045-0.337,0.095-0.503,0.148c-0.059,0.019-0.119,0.037-0.178,0.057
		c-0.199,0.069-0.395,0.146-0.589,0.227c-0.066,0.028-0.133,0.056-0.198,0.085c-0.192,0.085-0.382,0.176-0.568,0.273
		c-0.053,0.027-0.104,0.057-0.156,0.085c-0.166,0.091-0.33,0.185-0.49,0.285c-0.039,0.024-0.08,0.047-0.118,0.072
		c-0.183,0.117-0.361,0.242-0.535,0.37C23.606,489.765,22,492.694,22,496v4H42z M26.349,492H34v-4v-2v-1.831V480v-10h-8v10
		c0,2.209,1.791,4,4,4c0.729,0,1.411-0.198,2-0.539V484v2v2C29.389,488,27.173,489.671,26.349,492z M46,460.5
		c0-0.276-0.224-0.5-0.5-0.5h-27c-0.276,0-0.5,0.224-0.5,0.5v39c0,0.276,0.224,0.5,0.5,0.5H20v-4c0-3.553,1.546-6.745,4-8.942V472
		c0-4.418,3.582-8,8-8s8,3.582,8,8v15.06c2.454,2.196,4,5.387,4,8.94v4h1.5c0.276,0,0.5-0.224,0.5-0.5V460.5z"/>
	<g id="shade_6_">
		<defs>
			<path id="SVGID_13_" d="M8.75,450c3.506,0,39.737,0,46.25,0c0.583,0,1,0.617,1,1c0,2.103,0,37,0,37s-14.803-1.17-38,0.75
				c-6.705,0.105-4.918-10.75-3.401-12.947C11.637,475.776,9.301,475.83,8,476c0-17.883,0-15.5,0-25.2C8,450.45,8.6,450,8.75,450z"
				/>
		</defs>
		<clipPath id="SVGID_14_">
			<use xlink:href="#SVGID_13_"  overflow="visible"/>
		</clipPath>
		<path clip-path="url(#SVGID_14_)" fill-rule="evenodd" clip-rule="evenodd" fill="#FFFFFF" d="M12,454h40v52H12V454z"/>
		<path clip-path="url(#SVGID_14_)" fill-rule="evenodd" clip-rule="evenodd" fill="#6B5A2C" d="M55,510H9c-0.552,0-1-0.448-1-1v-58
			c0-0.552,0.448-1,1-1h46c0.552,0,1,0.448,1,1v58C56,509.552,55.552,510,55,510z M50,457c0-0.552-0.448-1-1-1H15
			c-0.552,0-1,0.448-1,1v46c0,0.552,0.448,1,1,1h34c0.552,0,1-0.448,1-1V457z"/>
		<path clip-path="url(#SVGID_14_)" fill-rule="evenodd" clip-rule="evenodd" fill="#79845C" d="M16.5,458h31
			c0.276,0,0.5,0.224,0.5,0.5v43c0,0.276-0.224,0.5-0.5,0.5h-31c-0.276,0-0.5-0.224-0.5-0.5v-43C16,458.224,16.224,458,16.5,458z"/>
		<path clip-path="url(#SVGID_14_)" fill-rule="evenodd" clip-rule="evenodd" fill="#56502E" d="M32,484c6.627,0,12,5.373,12,12v6
			H20v-6C20,489.373,25.373,484,32,484z"/>
		<path clip-path="url(#SVGID_14_)" fill-rule="evenodd" clip-rule="evenodd" fill="#695F3B" d="M24,494h10v8H24V494z"/>
		<path clip-path="url(#SVGID_14_)" fill-rule="evenodd" clip-rule="evenodd" fill="#F8E0C8" d="M32,494c0,0-2,0-8,0
			c0-4.418,3.582-8,8-8v-2.539c-0.589,0.341-1.271,0.539-2,0.539c-2.209,0-4-1.791-4-4v-10h8v8v2v12v2H32z"/>
		<path clip-path="url(#SVGID_14_)" fill-rule="evenodd" clip-rule="evenodd" fill="#503E28" d="M34,494v-6v-8v-10h-8v10
			c0,2.209,1.791,4,4,4c0.729,0,1.411-0.198,2-0.539V484c-3.074,0-5.877,1.157-8,3.058V472c0-4.418,3.582-8,8-8s8,3.582,8,8v16v6H34
			z"/>
	</g>
</g>
<g id="c9">
	<path id="bg_8_" fill-rule="evenodd" clip-rule="evenodd" fill="#333333" d="M55,574H9c-0.552,0-1-0.448-1-1v-58
		c0-0.552,0.448-1,1-1h46c0.552,0,1,0.448,1,1v58C56,573.552,55.552,574,55,574z M50,521c0-0.552-0.448-1-1-1H15
		c-0.552,0-1,0.448-1,1v46c0,0.552,0.448,1,1,1h34c0.552,0,1-0.448,1-1V521z M47,566H17c-0.552,0-1-0.448-1-1v-42
		c0-0.552,0.448-1,1-1h30c0.552,0,1,0.448,1,1v42C48,565.552,47.552,566,47,566z M42,564v-4c0-0.686-0.077-1.353-0.209-2H26h-2
		c0-4.215,3.26-7.666,7.396-7.975c-0.027,0.002-0.054,0.002-0.08,0.003c-0.071,0.005-0.142,0.008-0.212,0.014
		c-0.212,0.019-0.422,0.046-0.63,0.078c-0.081,0.012-0.161,0.025-0.241,0.04c-0.206,0.037-0.411,0.078-0.613,0.128
		c-0.069,0.017-0.136,0.036-0.204,0.055c-0.169,0.045-0.337,0.095-0.503,0.148c-0.059,0.019-0.119,0.037-0.178,0.057
		c-0.199,0.069-0.395,0.146-0.589,0.227c-0.066,0.028-0.133,0.056-0.198,0.085c-0.192,0.086-0.382,0.176-0.568,0.273
		c-0.053,0.027-0.104,0.057-0.156,0.085c-0.166,0.091-0.33,0.185-0.49,0.285c-0.039,0.024-0.08,0.047-0.118,0.072
		c-0.183,0.117-0.361,0.242-0.535,0.37C23.606,553.765,22,556.694,22,560v4H42z M26.349,556H34v-4v-2v-1.831V544v-10h-8v10
		c0,2.209,1.791,4,4,4c0.729,0,1.411-0.198,2-0.539V548v2v2C29.389,552,27.173,553.671,26.349,556z M46,524.5
		c0-0.276-0.224-0.5-0.5-0.5h-27c-0.276,0-0.5,0.224-0.5,0.5v39c0,0.276,0.224,0.5,0.5,0.5H20v-4c0-3.553,1.546-6.745,4-8.942V536
		c0-4.418,3.582-8,8-8s8,3.582,8,8v15.06c2.454,2.196,4,5.387,4,8.94v4h1.5c0.276,0,0.5-0.224,0.5-0.5V524.5z"/>
	<g id="shade_7_">
		<defs>
			<path id="SVGID_15_" d="M8.75,514c3.506,0,39.737,0,46.25,0c0.583,0,1,0.617,1,1c0,2.103,0,37,0,37s-10.55,0.45-11.5,0.5
				c5,2.65,6.2,13.5,1.5,13C27,562.75,8,564,8,564s0-37.162,0-49.2C8,514.45,8.6,514,8.75,514z"/>
		</defs>
		<clipPath id="SVGID_16_">
			<use xlink:href="#SVGID_15_"  overflow="visible"/>
		</clipPath>
		<path clip-path="url(#SVGID_16_)" fill-rule="evenodd" clip-rule="evenodd" fill="#FFFFFF" d="M12,518h40v52H12V518z"/>
		<path clip-path="url(#SVGID_16_)" fill-rule="evenodd" clip-rule="evenodd" fill="#6B5A2C" d="M55,574H9c-0.552,0-1-0.448-1-1v-58
			c0-0.552,0.448-1,1-1h46c0.552,0,1,0.448,1,1v58C56,573.552,55.552,574,55,574z M50,521c0-0.552-0.448-1-1-1H15
			c-0.552,0-1,0.448-1,1v46c0,0.552,0.448,1,1,1h34c0.552,0,1-0.448,1-1V521z"/>
		<path clip-path="url(#SVGID_16_)" fill-rule="evenodd" clip-rule="evenodd" fill="#79845C" d="M16.5,522h31
			c0.276,0,0.5,0.224,0.5,0.5v43c0,0.276-0.224,0.5-0.5,0.5h-31c-0.276,0-0.5-0.224-0.5-0.5v-43C16,522.224,16.224,522,16.5,522z"/>
		<path clip-path="url(#SVGID_16_)" fill-rule="evenodd" clip-rule="evenodd" fill="#56502E" d="M32,548c6.627,0,12,5.373,12,12v6
			H20v-6C20,553.373,25.373,548,32,548z"/>
		<path clip-path="url(#SVGID_16_)" fill-rule="evenodd" clip-rule="evenodd" fill="#695F3B" d="M24,558h10v8H24V558z"/>
		<path clip-path="url(#SVGID_16_)" fill-rule="evenodd" clip-rule="evenodd" fill="#F8E0C8" d="M32,558c0,0-2,0-8,0
			c0-4.418,3.582-8,8-8v-2.539c-0.589,0.341-1.271,0.539-2,0.539c-2.209,0-4-1.791-4-4v-10h8v8v2v12v2H32z"/>
		<path clip-path="url(#SVGID_16_)" fill-rule="evenodd" clip-rule="evenodd" fill="#503E28" d="M34,558v-6v-8v-10h-8v10
			c0,2.209,1.791,4,4,4c0.729,0,1.411-0.198,2-0.539V548c-3.074,0-5.877,1.157-8,3.058V536c0-4.418,3.582-8,8-8s8,3.582,8,8v16v6H34
			z"/>
	</g>
</g>
<g id="c10">
	<path id="bg_9_" fill-rule="evenodd" clip-rule="evenodd" fill="#333333" d="M55,638H9c-0.552,0-1-0.448-1-1v-58
		c0-0.552,0.448-1,1-1h46c0.552,0,1,0.448,1,1v58C56,637.552,55.552,638,55,638z M50,585c0-0.552-0.448-1-1-1H15
		c-0.552,0-1,0.448-1,1v46c0,0.552,0.448,1,1,1h34c0.552,0,1-0.448,1-1V585z M47,630H17c-0.552,0-1-0.448-1-1v-42
		c0-0.552,0.448-1,1-1h30c0.552,0,1,0.448,1,1v42C48,629.552,47.552,630,47,630z M42,628v-4c0-0.686-0.077-1.353-0.209-2H26h-2
		c0-4.215,3.26-7.666,7.396-7.975c-0.027,0.002-0.054,0.002-0.08,0.003c-0.071,0.005-0.142,0.008-0.212,0.014
		c-0.212,0.019-0.422,0.046-0.63,0.078c-0.081,0.012-0.161,0.025-0.241,0.04c-0.206,0.037-0.411,0.078-0.613,0.128
		c-0.069,0.017-0.136,0.036-0.204,0.055c-0.169,0.045-0.337,0.095-0.503,0.148c-0.059,0.019-0.119,0.037-0.178,0.057
		c-0.199,0.069-0.395,0.146-0.589,0.227c-0.066,0.028-0.133,0.056-0.198,0.085c-0.192,0.086-0.382,0.176-0.568,0.273
		c-0.053,0.027-0.104,0.057-0.156,0.085c-0.166,0.091-0.33,0.185-0.49,0.285c-0.039,0.024-0.08,0.047-0.118,0.072
		c-0.183,0.117-0.361,0.242-0.535,0.37C23.606,617.765,22,620.694,22,624v4H42z M26.349,620H34v-4v-2v-1.831V608v-10h-8v10
		c0,2.209,1.791,4,4,4c0.729,0,1.411-0.198,2-0.539V612v2v2C29.389,616,27.173,617.671,26.349,620z M46,588.5
		c0-0.276-0.224-0.5-0.5-0.5h-27c-0.276,0-0.5,0.224-0.5,0.5v39c0,0.276,0.224,0.5,0.5,0.5H20v-4c0-3.553,1.546-6.745,4-8.942V600
		c0-4.418,3.582-8,8-8s8,3.582,8,8v15.06c2.454,2.196,4,5.387,4,8.94v4h1.5c0.276,0,0.5-0.224,0.5-0.5V588.5z"/>
	<g id="shade_8_">
		<defs>
			<path id="SVGID_17_" d="M8.75,578c3.506,0,39.737,0,46.25,0c0.583,0,1,0.617,1,1c0,2.103,0,57.5,0,57.5s-6.15,0.3-9.5,0.5
				c-2.746,0.164-6.5-5.8-1.445-7.634C26.375,626.791,8,628,8,628s0-37.162,0-49.2C8,578.45,8.6,578,8.75,578z"/>
		</defs>
		<clipPath id="SVGID_18_">
			<use xlink:href="#SVGID_17_"  overflow="visible"/>
		</clipPath>
		<path clip-path="url(#SVGID_18_)" fill-rule="evenodd" clip-rule="evenodd" fill="#FFFFFF" d="M12,582h40v52H12V582z"/>
		<path clip-path="url(#SVGID_18_)" fill-rule="evenodd" clip-rule="evenodd" fill="#6B5A2C" d="M55,638H9c-0.552,0-1-0.448-1-1v-58
			c0-0.552,0.448-1,1-1h46c0.552,0,1,0.448,1,1v58C56,637.552,55.552,638,55,638z M50,585c0-0.552-0.448-1-1-1H15
			c-0.552,0-1,0.448-1,1v46c0,0.552,0.448,1,1,1h34c0.552,0,1-0.448,1-1V585z"/>
		<path clip-path="url(#SVGID_18_)" fill-rule="evenodd" clip-rule="evenodd" fill="#79845C" d="M16.5,586h31
			c0.276,0,0.5,0.224,0.5,0.5v43c0,0.276-0.224,0.5-0.5,0.5h-31c-0.276,0-0.5-0.224-0.5-0.5v-43C16,586.224,16.224,586,16.5,586z"/>
		<path clip-path="url(#SVGID_18_)" fill-rule="evenodd" clip-rule="evenodd" fill="#56502E" d="M32,612c6.627,0,12,5.373,12,12v6
			H20v-6C20,617.373,25.373,612,32,612z"/>
		<path clip-path="url(#SVGID_18_)" fill-rule="evenodd" clip-rule="evenodd" fill="#695F3B" d="M24,622h10v8H24V622z"/>
		<path clip-path="url(#SVGID_18_)" fill-rule="evenodd" clip-rule="evenodd" fill="#F8E0C8" d="M32,622c0,0-2,0-8,0
			c0-4.418,3.582-8,8-8v-2.539c-0.589,0.341-1.271,0.539-2,0.539c-2.209,0-4-1.791-4-4v-10h8v8v2v12v2H32z"/>
		<path clip-path="url(#SVGID_18_)" fill-rule="evenodd" clip-rule="evenodd" fill="#503E28" d="M34,622v-6v-8v-10h-8v10
			c0,2.209,1.791,4,4,4c0.729,0,1.411-0.198,2-0.539V612c-3.074,0-5.877,1.157-8,3.058V600c0-4.418,3.582-8,8-8s8,3.582,8,8v16v6H34
			z"/>
	</g>
</g>
<g id="c11">
	<path id="bg_10_" fill-rule="evenodd" clip-rule="evenodd" fill="#333333" d="M55,702H9c-0.552,0-1-0.448-1-1v-58
		c0-0.552,0.448-1,1-1h46c0.552,0,1,0.448,1,1v58C56,701.552,55.552,702,55,702z M50,649c0-0.552-0.448-1-1-1H15
		c-0.552,0-1,0.448-1,1v46c0,0.552,0.448,1,1,1h34c0.552,0,1-0.448,1-1V649z M47,694H17c-0.552,0-1-0.448-1-1v-42
		c0-0.552,0.448-1,1-1h30c0.552,0,1,0.448,1,1v42C48,693.552,47.552,694,47,694z M42,692v-4c0-0.686-0.077-1.353-0.209-2H26h-2
		c0-4.215,3.26-7.666,7.396-7.975c-0.027,0.002-0.054,0.002-0.08,0.003c-0.071,0.005-0.142,0.008-0.212,0.014
		c-0.212,0.019-0.422,0.046-0.63,0.078c-0.081,0.012-0.161,0.025-0.241,0.04c-0.206,0.037-0.411,0.078-0.613,0.128
		c-0.069,0.017-0.136,0.036-0.204,0.055c-0.169,0.045-0.337,0.095-0.503,0.148c-0.059,0.019-0.119,0.037-0.178,0.057
		c-0.199,0.069-0.395,0.146-0.589,0.227c-0.066,0.028-0.133,0.056-0.198,0.085c-0.192,0.086-0.382,0.176-0.568,0.273
		c-0.053,0.027-0.104,0.057-0.156,0.085c-0.166,0.091-0.33,0.185-0.49,0.285c-0.039,0.024-0.08,0.047-0.118,0.072
		c-0.183,0.117-0.361,0.242-0.535,0.37C23.606,681.765,22,684.694,22,688v4H42z M26.349,684H34v-4v-2v-1.831V672v-10h-8v10
		c0,2.209,1.791,4,4,4c0.729,0,1.411-0.198,2-0.539V676v2v2C29.389,680,27.173,681.671,26.349,684z M46,652.5
		c0-0.276-0.224-0.5-0.5-0.5h-27c-0.276,0-0.5,0.224-0.5,0.5v39c0,0.276,0.224,0.5,0.5,0.5H20v-4c0-3.553,1.546-6.745,4-8.942V664
		c0-4.418,3.582-8,8-8s8,3.582,8,8v15.06c2.454,2.196,4,5.387,4,8.94v4h1.5c0.276,0,0.5-0.224,0.5-0.5V652.5z"/>
	<g id="shade_9_">
		<defs>
			<path id="SVGID_19_" d="M8.75,642c3.506,0,39.737,0,46.25,0c0.583,0,1,0.617,1,1c0,2.103,0,57.5,0,57.5s-22.65,0.55-26,0.75
				c-2.746,0.164-20,0.75-20,0.75H9.25c0,0-1.25-0.05-1.25-1.25s0-45.912,0-57.95C8,642.45,8.6,642,8.75,642z"/>
		</defs>
		<clipPath id="SVGID_20_">
			<use xlink:href="#SVGID_19_"  overflow="visible"/>
		</clipPath>
		<path clip-path="url(#SVGID_20_)" fill-rule="evenodd" clip-rule="evenodd" fill="#FFFFFF" d="M12,646h40v52H12V646z"/>
		<path clip-path="url(#SVGID_20_)" fill-rule="evenodd" clip-rule="evenodd" fill="#6B5A2C" d="M55,702H9c-0.552,0-1-0.448-1-1v-58
			c0-0.552,0.448-1,1-1h46c0.552,0,1,0.448,1,1v58C56,701.552,55.552,702,55,702z M50,649c0-0.552-0.448-1-1-1H15
			c-0.552,0-1,0.448-1,1v46c0,0.552,0.448,1,1,1h34c0.552,0,1-0.448,1-1V649z"/>
		<path clip-path="url(#SVGID_20_)" fill-rule="evenodd" clip-rule="evenodd" fill="#79845C" d="M16.5,650h31
			c0.276,0,0.5,0.224,0.5,0.5v43c0,0.276-0.224,0.5-0.5,0.5h-31c-0.276,0-0.5-0.224-0.5-0.5v-43C16,650.224,16.224,650,16.5,650z"/>
		<path clip-path="url(#SVGID_20_)" fill-rule="evenodd" clip-rule="evenodd" fill="#56502E" d="M32,676c6.627,0,12,5.373,12,12v6
			H20v-6C20,681.373,25.373,676,32,676z"/>
		<path clip-path="url(#SVGID_20_)" fill-rule="evenodd" clip-rule="evenodd" fill="#695F3B" d="M24,686h10v8H24V686z"/>
		<path clip-path="url(#SVGID_20_)" fill-rule="evenodd" clip-rule="evenodd" fill="#F8E0C8" d="M32,686c0,0-2,0-8,0
			c0-4.418,3.582-8,8-8v-2.539c-0.589,0.341-1.271,0.539-2,0.539c-2.209,0-4-1.791-4-4v-10h8v8v2v12v2H32z"/>
		<path clip-path="url(#SVGID_20_)" fill-rule="evenodd" clip-rule="evenodd" fill="#503E28" d="M34,686v-6v-8v-10h-8v10
			c0,2.209,1.791,4,4,4c0.729,0,1.411-0.198,2-0.539V676c-3.074,0-5.877,1.157-8,3.058V664c0-4.418,3.582-8,8-8s8,3.582,8,8v16v6H34
			z"/>
	</g>
</g>
<g id="c12">
	<g id="bg_11_">
		<path fill-rule="evenodd" clip-rule="evenodd" fill="#FFFFFF" d="M12,710h40v52H12V710z"/>
		<path fill-rule="evenodd" clip-rule="evenodd" fill="#6B5A2C" d="M55,766H9c-0.552,0-1-0.448-1-1v-58c0-0.552,0.448-1,1-1h46
			c0.552,0,1,0.448,1,1v58C56,765.552,55.552,766,55,766z M50,713c0-0.552-0.448-1-1-1H15c-0.552,0-1,0.448-1,1v46
			c0,0.552,0.448,1,1,1h34c0.552,0,1-0.448,1-1V713z"/>
		<path fill-rule="evenodd" clip-rule="evenodd" fill="#79845C" d="M16.5,714h31c0.276,0,0.5,0.224,0.5,0.5v43
			c0,0.276-0.224,0.5-0.5,0.5h-31c-0.276,0-0.5-0.224-0.5-0.5v-43C16,714.224,16.224,714,16.5,714z"/>
		<path fill-rule="evenodd" clip-rule="evenodd" fill="#56502E" d="M32,740c6.627,0,12,5.373,12,12v6H20v-6
			C20,745.373,25.373,740,32,740z"/>
		<path fill-rule="evenodd" clip-rule="evenodd" fill="#695F3B" d="M24,750h10v8H24V750z"/>
		<path fill-rule="evenodd" clip-rule="evenodd" fill="#F8E0C8" d="M32,750c0,0-2,0-8,0c0-4.418,3.582-8,8-8v-2.539
			c-0.589,0.341-1.271,0.539-2,0.539c-2.209,0-4-1.791-4-4v-10h8v8v2v12v2H32z"/>
		<path fill-rule="evenodd" clip-rule="evenodd" fill="#503E28" d="M34,750v-6v-8v-10h-8v10c0,2.209,1.791,4,4,4
			c0.729,0,1.411-0.198,2-0.539V740c-3.074,0-5.877,1.157-8,3.058V728c0-4.418,3.582-8,8-8s8,3.582,8,8v16v6H34z"/>
	</g>
</g>
</svg>
