<?xml version="1.0" encoding="utf-8"?>
<!-- Generator: Adobe Illustrator 21.0.2, SVG Export Plug-In . SVG Version: 6.00 Build 0)  -->
<!DOCTYPE svg PUBLIC "-//W3C//DTD SVG 1.1//EN" "http://www.w3.org/Graphics/SVG/1.1/DTD/svg11.dtd">
<svg version="1.1" id="category-rock" xmlns="http://www.w3.org/2000/svg" xmlns:xlink="http://www.w3.org/1999/xlink" x="0px" y="0px"
	 width="64px" height="768px" style="enable-background:new 0 0 64 768;" xml:space="preserve">
<style type="text/css">
	.st0{fill:#F3CD9B;}
	.st1{opacity:0.9;fill:#F3CD9B;enable-background:new;}
	.st2{opacity:0.81;fill:#F3CD9B;enable-background:new;}
	.st3{opacity:0.72;fill:#F3CD9B;enable-background:new;}
	.st4{opacity:0.63;fill:#F3CD9B;enable-background:new;}
	.st5{opacity:0.54;fill:#F3CD9B;enable-background:new;}
	.st6{opacity:0.45;fill:#F3CD9B;enable-background:new;}
	.st7{opacity:0.36;fill:#F3CD9B;enable-background:new;}
	.st8{opacity:0.27;fill:#F3CD9B;enable-background:new;}
	.st9{opacity:0.18;fill:#F3CD9B;enable-background:new;}
	.st10{fill:#333333;}
</style>
<path id="b12" class="st0" d="M52,744.5c0,11-9,20-20,20c-9.4,0-17.2-6.4-19.4-15.1c-1.6-0.8-2.6-2.5-2.6-4.4l-6.3-27.9
	c0-2.8,2.2-5,5-5s5,2.2,5,5l5,11.3c0-2.8,3.5-5.8,6.3-5.8s5,2.2,5,5v-2c0-2.8,2.2-5,5-5s5,2.2,5,5l5.9-14c0-2.8,2.2-5,5-5s5,2.2,5,5
	L50,737.8C51.3,739.5,52,741.8,52,744.5z"/>
<path id="b11" class="st1" d="M52,680.3c0,11-9,20-20,20c-9.4,0-17.2-6.4-19.4-15.1c-1.6-0.8-2.6-2.5-2.6-4.4l-3.3-27.9
	c0-2.8,2.2-5,5-5s5,2.2,5,5l2,11.3c0-2.8,3.5-5.8,6.3-5.8s5,2.2,5,5v-2c0-2.8,2.2-5,5-5s5,2.2,5,5l3.4-14c0-2.8,2.2-5,5-5s5,2.2,5,5
	L50,673.5C51.3,675.3,52,677.5,52,680.3z"/>
<path id="b10" class="st2" d="M52,617.2c0,11-9,20-20,20c-9.4,0-17.2-6.4-19.4-15.1c-1.6-0.8-2.6-2.5-2.6-4.4l-0.4-27.9
	c0-2.8,2.2-5,5-5s5,2.2,5,5L18.8,601c0-2.8,3.5-5.8,6.3-5.8s5,2.2,5,5v-2c0-2.8,2.2-5,5-5s5,2.2,5,5l-0.1-14c0-2.8,2.2-5,5-5
	s5,2.2,5,5l0.1,26.2C51.3,612.2,52,614.4,52,617.2z"/>
<path id="b9" class="st3" d="M52,555c0,11-9,20-20,20c-9.4,0-17.2-6.4-19.4-15.1c-1.6-0.8-2.6-2.5-2.6-4.4l-0.4-27.9
	c0-2.8,2.2-5,5-5s5,2.2,5,5l-0.9,11.3c0-2.8,3.5-5.8,6.3-5.8s5,2.2,5,5v-2c0-2.8,2.2-5,5-5s5,2.2,5,5l-0.1-14c0-2.8,2.2-5,5-5
	s5,2.2,5,5l0.1,26.2C51.3,550,52,552.3,52,555z"/>
<path id="b8" class="st4" d="M52,492.3c0,11-9,17.8-20,17.8c-9.4,0-17.2-4.3-19.4-12.9c-1.6-0.8-2.6-2.5-2.6-4.4l-0.4-27.9
	c0-2.8,2.2-5,5-5s5,2.2,5,5l-0.3,10.6c0-2.8,2.9-5.2,5.6-5.2s5,2.2,5,5v-2c0-2.8,2.2-5,5-5s5,2.2,5,5l-0.1-14c0-2.8,2.2-5,5-5
	s5,2.2,5,5l0.1,26.2C51.3,487.3,52,489.5,52,492.3z"/>
<path id="b7" class="st5" d="M52,429.5c0,11-9,16.3-20,16.3c-9.4,0-17.2-2.8-19.4-11.4c-1.6-0.8-2.6-2.5-2.6-4.4l-0.4-27.9
	c0-2.8,2.2-5,5-5s5,2.2,5,5l-0.3,10.6c0-2.8,2.9-5.2,5.6-5.2s5,2.2,5,5v-2c0-2.8,2.2-5,5-5s5,2.2,5,5l-0.1-14c0-2.8,2.2-5,5-5
	s5,2.2,5,5l0.1,26.2C51.3,424.5,52,426.8,52,429.5z"/>
<path id="b6" class="st6" d="M52,367.6c0,11-9,14.3-20,14.3c-9.4,0-17.2-0.8-19.4-9.4c-1.6-0.8-2.6-2.5-2.6-4.4l-0.4-27.9
	c0-2.8,2.2-5,5-5s5,2.2,5,5l-0.3,10.6c0-2.8,2.9-5.2,5.6-5.2s5,2.2,5,5v-2c0-2.8,2.2-5,5-5s5,2.2,5,5l-0.1-14c0-2.8,2.2-5,5-5
	s5,2.2,5,5l0.1,26.2C51.3,362.6,52,364.8,52,367.6z"/>
<path id="b5" class="st7" d="M52,301.8c0,11-9,16.3-20,16.3c-9.4,0-17.2-2.8-19.4-11.4c-1.6-0.8-2.6-2.5-2.6-4.4l-0.4-27.9
	c0-2.8,2.2-5,5-5s5,2.2,5,5L19.4,285c0-2.8,2.9-5.2,5.6-5.2s5,2.2,5,5v-2c0-2.8,2.2-5,5-5s5,2.2,5,5l-0.1-14c0-2.8,2.2-5,5-5
	s5,2.2,5,5L50,295C51.3,296.8,52,299,52,301.8z"/>
<path id="b4" class="st8" d="M52,236.8c0,11-9,17.8-20,17.8c-9.4,0-17.2-4.3-19.4-12.9c-1.6-0.8-2.6-2.5-2.6-4.4l-0.4-27.9
	c0-2.8,2.2-5,5-5s5,2.2,5,5L19.4,220c0-2.8,2.9-5.2,5.6-5.2s5,2.2,5,5v-2c0-2.8,2.2-5,5-5s5,2.2,5,5l-0.1-14c0-2.8,2.2-5,5-5
	s5,2.2,5,5L50,230C51.3,231.8,52,234,52,236.8z"/>
<path id="b3" class="st9" d="M52,170.5c0,11-9,20-20,20c-9.4,0-17.2-6.4-19.4-15.1c-1.6-0.8-2.6-2.5-2.6-4.4l-0.4-27.9
	c0-2.8,2.2-5,5-5s5,2.2,5,5l-0.9,11.3c0-2.8,3.5-5.8,6.3-5.8s5,2.2,5,5v-2c0-2.8,2.2-5,5-5s5,2.2,5,5l-0.1-14c0-2.8,2.2-5,5-5
	s5,2.2,5,5l0.1,26.2C51.3,165.5,52,167.8,52,170.5z"/>
<path id="b2" class="st9" d="M52,105.7c0,11-9,20-20,20c-9.4,0-17.2-6.4-19.4-15.1c-1.6-0.8-2.6-2.5-2.6-4.4L9.6,78.3
	c0-2.8,2.2-5,5-5s5,2.2,5,5l-0.9,11.3c0-2.8,3.5-5.8,6.3-5.8s5,2.2,5,5v-2c0-2.8,2.2-5,5-5s5,2.2,5,5l-0.1-14c0-2.8,2.2-5,5-5
	s5,2.2,5,5L50,98.9C51.3,100.7,52,102.9,52,105.7z"/>
<path id="border" class="st10" d="M56.8,714.3l-3.8-1c0.4-1.6-0.5-3.2-2.1-3.7c-1.6-0.4-3.4,0.6-3.8,2.2l-3.8-1c1-3.7,5-6.1,8.7-5.1
	S57.8,710.6,56.8,714.3z M48.3,719.3L48.3,719.3L48.3,719.3L48.3,719.3z M41.9,731.5v0.4h2c0,0,1.8-0.1,4,0.4l5.1-19.1l3.8,1
	l-5.2,19.7c2.3,1.7,4.3,4.6,4.3,9.9c0,13.3-10.7,24-23.8,24c-13.2,0-23.8-10.8-23.8-24l0,0v-2.7L2.2,719c-1-3.7,1.2-7.6,4.9-8.6
	s7.5,1.2,8.5,5l2.8,10.4c0.9-2.8,3.5-4.8,6.6-4.8c1.5,0,2.9,0.5,4,1.3c1.2-2,3.4-3.3,5.9-3.3c2.2,0,4.2,1.1,5.5,2.7l2.9-10.9l3.8,1
	L41.9,731.5z M28,728c0-1.7-1.3-3-3-3c-1.6,0-3,1.3-3,3v11c0,1.7,1.3,3,3,3c1.6,0,3-1.3,3-3V728z M38,726c0-1.7-1.3-3-3-3
	c-1.6,0-3,1.3-3,3v7.1c1.2-0.7,2.5-1.1,4-1.1l0,0h2V726z M36,736L36,736c-2.2,0-4,1.8-4,4s1.8,4,4,4h6l0,0c1.1,0,2,0.9,2,2
	s-0.9,2-2,2l0,0l0,0c-3.3,0-6,2.7-6,6c0,1.1-0.9,2-2,2s-2-0.9-2-2c0-2.4,0.8-4.5,2.2-6.2c-2-0.5-3.7-1.7-4.8-3.3
	c-1.2,1-2.7,1.5-4.3,1.5c-3.8,0-7-3.1-7-7v-1.4v2.2l-6.3-23.3l0,0c-0.4-1.6-2.1-2.6-3.6-2.1c-1.6,0.4-2.5,2.1-2.1,3.7l0,0l6,22l0,0
	v4l0,0c0,11.1,8.9,20,19.9,20s19.9-9,19.9-20c0-4-1.6-6-3.3-7l-1.6-0.7l0,0c-1.6-0.4-2.9-0.3-2.9-0.3L36,736L36,736z M55.7,617.5
	C55,630.1,44.6,640,32,640s-23-9.9-23.7-22.5H8.2V616l0,0l0,0v-25.5c0-3.9,3.1-7,6.9-7s6.9,3.1,6.9,7v4.7c0.9-0.4,1.9-0.7,3-0.7
	c1.5,0,2.9,0.5,4,1.3c1.2-2,3.4-3.3,5.9-3.3c1.1,0,2.1,0.2,3,0.7v-8.7c0-3.9,3.1-7,6.9-7s6.9,3.1,6.9,7v23.3c2,1.5,3.6,4,3.9,8.2
	h0.1c0,0.2,0,0.5,0,0.7C55.8,617,55.8,617.2,55.7,617.5L55.7,617.5z M28,601.5c0-1.7-1.3-3-3-3c-1.6,0-3,1.3-3,3v11c0,1.7,1.3,3,3,3
	c1.6,0,3-1.3,3-3V601.5z M37.9,599.5c0-1.7-1.3-3-3-3c-1.6,0-3,1.3-3,3v7.1c1.2-0.7,2.5-1.1,4-1.1l0,0h2V599.5z M47.9,584.5
	c0-1.7-1.3-3-3-3c-1.6,0-3,1.3-3,3v21h2c0,0,1.8-0.1,4,0.4V584.5z M43.9,609.5H36l0,0c-2.2,0-4,1.8-4,4s1.8,4,4,4h5.9l0,0
	c1.1,0,2,0.9,2,2s-0.9,2-2,2l0,0l0,0c-3.3,0-5.9,1.2-5.9,4.5c0,1.1-0.9,2-2,2s-2-0.9-2-2c0-2,0.6-3.6,1.5-4.9
	c-1.7-0.6-3.2-1.7-4.1-3.1c-1.2,1-2.7,1.5-4.3,1.5c-3.8,0-6.9-3.1-6.9-7v-22c0-1.7-1.3-3-3-3c-1.6,0-3,1.3-3,3V616
	c0,11,8.9,20,19.8,20c10.7,0,19.4-8.5,19.8-19.2C51.4,608.7,43.9,609.5,43.9,609.5z M55.7,555C55,567.4,44.6,576,32,576
	s-23-8.6-23.7-21H8.2v-1.5l0,0l0,0V528c0-3.9,3.1-7,6.9-7s6.9,3.1,6.9,7v4.7c0.9-0.4,1.9-0.7,3-0.7c1.5,0,2.9,0.5,4,1.3
	c1.2-2,3.4-3.3,5.9-3.3c1.1,0,2.1,0.2,3,0.7V522c0-3.9,3.1-7,6.9-7s6.9,3.1,6.9,7v23.3c2,1.5,3.6,4,3.9,8.2h0.1c0,0.3,0,0.5,0,0.8
	C55.8,554.5,55.8,554.8,55.7,555L55.7,555z M28,539c0-1.7-1.3-3-3-3c-1.6,0-3,1.3-3,3v11c0,1.7,1.3,3,3,3c1.6,0,3-1.3,3-3V539z
	 M37.9,537c0-1.7-1.3-3-3-3c-1.6,0-3,1.3-3,3v7.1c1.2-0.7,2.5-1.1,4-1.1l0,0h2V537z M47.9,522c0-1.7-1.3-3-3-3c-1.6,0-3,1.3-3,3v21
	h2c0,0,1.8-0.1,4,0.4V522z M43.9,547H36l0,0c-2.2,0-4,1.8-4,4s1.8,4,4,4h5.9l0,0c1.1,0,2,0.9,2,2s-0.9,2-2,2l0,0h-2.2
	c-2.2,0.1-3.8,0.5-3.8,3c0,1.1-0.9,2-2,2s-2-0.9-2-2c0-1.5,0.3-2.7,0.9-3.6c-1.4-0.6-2.7-1.6-3.5-2.9c-1.2,1-2.7,1.5-4.3,1.5
	c-3.8,0-6.9-3.1-6.9-7v-22c0-1.7-1.3-3-3-3c-1.6,0-3,1.3-3,3v25.5c0,11,8.9,18.5,19.8,18.5c10.7,0,19.4-7.1,19.8-17.7
	C51.4,546.2,43.9,547,43.9,547z M55.7,492.5C55,504.8,44.6,512,32,512s-23-7.2-23.7-19.5H8.2V491l0,0l0,0v-25.5c0-3.9,3.1-7,6.9-7
	s6.9,3.1,6.9,7v4.7c0.9-0.4,1.9-0.7,3-0.7c1.5,0,2.9,0.5,4,1.3c1.2-2,3.4-3.3,5.9-3.3c1.1,0,2.1,0.2,3,0.7v-8.7c0-3.9,3.1-7,6.9-7
	s6.9,3.1,6.9,7v23.3c2,1.5,3.6,4,3.9,8.2h0.1c0,0.3,0,0.5,0,0.8C55.8,492,55.8,492.3,55.7,492.5L55.7,492.5z M28,476.5
	c0-1.7-1.3-3-3-3c-1.6,0-3,1.3-3,3v11c0,1.7,1.3,3,3,3c1.6,0,3-1.3,3-3V476.5z M37.9,474.5c0-1.7-1.3-3-3-3c-1.6,0-3,1.3-3,3v7.1
	c1.2-0.7,2.5-1.1,4-1.1l0,0h2V474.5z M47.9,459.5c0-1.7-1.3-3-3-3c-1.6,0-3,1.3-3,3v21h2c0,0,1.8-0.1,4,0.4V459.5z M43.9,484.5H36
	l0,0c-2.2,0-4,1.8-4,4s1.8,4,4,4h5.9H42c1.1,0,2,0.9,2,2s-0.9,2-2,2l0,0h-5.6c-0.2,0.3-0.4,0.8-0.4,1.5c0,1.1-0.9,2-2,2s-2-0.9-2-2
	c0-0.9,0.1-1.7,0.4-2.4c-1.2-0.6-2.2-1.5-3-2.7c-1.2,1-2.7,1.5-4.3,1.5c-3.8,0-6.9-3.1-6.9-7v-22c0-1.7-1.3-3-3-3c-1.6,0-3,1.3-3,3
	V491c0,11,8.9,17,19.8,17c10.7,0,19.4-5.7,19.8-16.2C51.4,483.7,43.9,484.5,43.9,484.5z M55.7,430C55,442.2,44.6,448,32,448
	s-23-5.8-23.7-18H8.2v-1.5l0,0l0,0V403c0-3.9,3.1-7,6.9-7s6.9,3.1,6.9,7v4.7c0.9-0.4,1.9-0.7,3-0.7c1.5,0,2.9,0.5,4,1.3
	c1.2-2,3.4-3.3,5.9-3.3c1.1,0,2.1,0.2,3,0.7V397c0-3.9,3.1-7,6.9-7s6.9,3.1,6.9,7v23.3c2,1.5,3.6,4,3.9,8.2h0.1c0,0.3,0,0.5,0,0.8
	C55.8,429.5,55.8,429.8,55.7,430L55.7,430z M28,414c0-1.7-1.3-3-3-3c-1.6,0-3,1.3-3,3v11c0,1.7,1.3,3,3,3c1.6,0,3-1.3,3-3V414z
	 M37.9,412c0-1.7-1.3-3-3-3c-1.6,0-3,1.3-3,3v7.1c1.2-0.7,2.5-1.1,4-1.1l0,0h2V412z M47.9,397c0-1.7-1.3-3-3-3c-1.6,0-3,1.3-3,3v21
	h2c0,0,1.8-0.1,4,0.4V397z M43.9,422H36l0,0c-2.2,0-4,1.8-4,4c0,1.8,1.2,3.3,2.8,3.8c1.5-0.1,3.8,0.2,7.1,0.2c1.1,0,2,0.9,2,2
	s-0.9,2-2,2l0,0H36l0,0c0,1.1-0.9,2-2,2s-2-0.9-2-2c0-0.4,0-0.7,0-1.1c-1.1-0.6-2-1.5-2.6-2.5c-1.2,1-2.7,1.5-4.3,1.5
	c-3.8,0-6.9-3.1-6.9-7v-22c0-1.7-1.3-3-3-3c-1.6,0-3,1.3-3,3v25.5c0,11,8.9,15.5,19.8,15.5c10.7,0,19.4-4.2,19.8-14.7
	C51.4,421.2,43.9,422,43.9,422z M55.7,367.5C54.9,379.6,43.4,384,32,384s-22.9-4.4-23.7-16.5H8.2V366l0,0l0,0v-25.5
	c0-3.9,3.1-7,6.9-7s6.9,3.1,6.9,7v4.7c0.9-0.4,1.9-0.7,3-0.7c1.5,0,2.9,0.5,4,1.3c1.2-2,3.4-3.3,5.9-3.3c1.1,0,2.1,0.2,3,0.7v-8.7
	c0-3.9,3.1-7,6.9-7s6.9,3.1,6.9,7v23.3c2,1.5,3.6,4,3.9,8.2h0.1c0,0.3,0,0.5,0,0.8C55.8,367,55.8,367.2,55.7,367.5L55.7,367.5z
	 M28,351.5c0-1.7-1.3-3-3-3c-1.6,0-3,1.3-3,3v11c0,1.7,1.3,3,3,3c1.6,0,3-1.3,3-3V351.5z M37.9,349.5c0-1.7-1.3-3-3-3
	c-1.6,0-3,1.3-3,3v7.1c1.2-0.7,2.5-1.1,4-1.1l0,0h2V349.5z M47.9,334.5c0-1.7-1.3-3-3-3c-1.6,0-3,1.3-3,3v21h2c0,0,1.8-0.1,4,0.4
	V334.5z M43.9,359.5H36l0,0c-2.2,0-4,1.8-4,4s1.8,4,4,4h5.9c1.1,0,2,0.9,2,2s-0.9,2-2,2H36c-2.7,0-5.2-1.4-6.6-3.5
	c-1.2,1-2.7,1.5-4.3,1.5c-3.5,0-6.4-2.6-6.9-6h-0.1v-23c0-1.7-1.3-3-3-3c-1.6,0-3,1.3-3,3V366c0,11,9.9,14,19.8,14
	c9.7,0,19.4-2.8,19.8-13.3C51.4,358.7,43.9,359.5,43.9,359.5z M55.7,302C55,314.2,44.6,320,32,320s-23-5.8-23.7-18H8.2v-1.5l0,0l0,0
	V275c0-3.9,3.1-7,6.9-7s6.9,3.1,6.9,7v4.7c0.9-0.4,1.9-0.7,3-0.7c1.5,0,2.9,0.5,4,1.3c1.2-2,3.4-3.3,5.9-3.3c1.1,0,2.1,0.2,3,0.7
	V269c0-3.9,3.1-7,6.9-7s6.9,3.1,6.9,7v23.3c2,1.5,3.6,4,3.9,8.2h0.1c0,0.3,0,0.5,0,0.8C55.8,301.5,55.8,301.8,55.7,302L55.7,302z
	 M28,286c0-1.7-1.3-3-3-3c-1.6,0-3,1.3-3,3v11c0,1.7,1.3,3,3,3c1.6,0,3-1.3,3-3V286z M37.9,284c0-1.7-1.3-3-3-3c-1.6,0-3,1.3-3,3
	v7.1c1.2-0.7,2.5-1.1,4-1.1l0,0h2V284z M47.9,269c0-1.7-1.3-3-3-3c-1.6,0-3,1.3-3,3v21h2c0,0,1.8-0.1,4,0.4V269z M43.9,294H36l0,0
	c-2.2,0-4,1.8-4,4c0,1.8,1.2,3.3,2.8,3.8c1.5-0.1,3.8,0.2,7.1,0.2c1.1,0,2,0.9,2,2s-0.9,2-2,2l0,0H36l0,0c0,1.1-0.9,2-2,2
	s-2-0.9-2-2c0-0.4,0-0.7,0-1.1c-1.1-0.6-2-1.5-2.6-2.5c-1.2,1-2.7,1.5-4.3,1.5c-3.8,0-6.9-3.1-6.9-7v-22c0-1.7-1.3-3-3-3
	c-1.6,0-3,1.3-3,3v25.5c0,11,8.9,15.5,19.8,15.5c10.7,0,19.4-4.2,19.8-14.7C51.4,293.2,43.9,294,43.9,294z M55.7,236.5
	C55,248.8,44.6,256,32,256s-23-7.2-23.7-19.5H8.2V235l0,0l0,0v-25.5c0-3.9,3.1-7,6.9-7s6.9,3.1,6.9,7v4.7c0.9-0.4,1.9-0.7,3-0.7
	c1.5,0,2.9,0.5,4,1.3c1.2-2,3.4-3.3,5.9-3.3c1.1,0,2.1,0.2,3,0.7v-8.7c0-3.9,3.1-7,6.9-7s6.9,3.1,6.9,7v23.3c2,1.5,3.6,4,3.9,8.2
	h0.1c0,0.3,0,0.5,0,0.8C55.8,236,55.8,236.3,55.7,236.5L55.7,236.5z M28,220.5c0-1.7-1.3-3-3-3c-1.6,0-3,1.3-3,3v11c0,1.7,1.3,3,3,3
	c1.6,0,3-1.3,3-3V220.5z M37.9,218.5c0-1.7-1.3-3-3-3c-1.6,0-3,1.3-3,3v7.1c1.2-0.7,2.5-1.1,4-1.1l0,0h2V218.5z M47.9,203.5
	c0-1.7-1.3-3-3-3c-1.6,0-3,1.3-3,3v21h2c0,0,1.8-0.1,4,0.4V203.5z M43.9,228.5H36l0,0c-2.2,0-4,1.8-4,4s1.8,4,4,4h5.9H42
	c1.1,0,2,0.9,2,2s-0.9,2-2,2l0,0h-5.6c-0.2,0.3-0.4,0.8-0.4,1.5c0,1.1-0.9,2-2,2s-2-0.9-2-2c0-0.9,0.1-1.7,0.4-2.4
	c-1.2-0.6-2.2-1.5-3-2.7c-1.2,1-2.7,1.5-4.3,1.5c-3.8,0-6.9-3.1-6.9-7v-22c0-1.7-1.3-3-3-3c-1.6,0-3,1.3-3,3V235
	c0,11,8.9,17,19.8,17c10.7,0,19.4-5.7,19.8-16.2C51.4,227.7,43.9,228.5,43.9,228.5z M55.7,171C55,183.4,44.6,192,32,192
	s-23-8.6-23.7-21H8.2v-1.5l0,0l0,0V144c0-3.9,3.1-7,6.9-7s6.9,3.1,6.9,7v4.7c0.9-0.4,1.9-0.7,3-0.7c1.5,0,2.9,0.5,4,1.3
	c1.2-2,3.4-3.3,5.9-3.3c1.1,0,2.1,0.2,3,0.7V138c0-3.9,3.1-7,6.9-7s6.9,3.1,6.9,7v23.3c2,1.5,3.6,4,3.9,8.2h0.1c0,0.3,0,0.5,0,0.8
	C55.8,170.5,55.8,170.8,55.7,171L55.7,171z M28,155c0-1.7-1.3-3-3-3c-1.6,0-3,1.3-3,3v11c0,1.7,1.3,3,3,3c1.6,0,3-1.3,3-3V155z
	 M37.9,153c0-1.7-1.3-3-3-3c-1.6,0-3,1.3-3,3v7.1c1.2-0.7,2.5-1.1,4-1.1l0,0h2V153z M47.9,138c0-1.7-1.3-3-3-3c-1.6,0-3,1.3-3,3v21
	h2c0,0,1.8-0.1,4,0.4V138z M43.9,163H36l0,0c-2.2,0-4,1.8-4,4s1.8,4,4,4h5.9l0,0c1.1,0,2,0.9,2,2s-0.9,2-2,2l0,0h-2.2
	c-2.2,0.1-3.8,0.5-3.8,3c0,1.1-0.9,2-2,2s-2-0.9-2-2c0-1.5,0.3-2.7,0.9-3.6c-1.4-0.6-2.7-1.6-3.5-2.9c-1.2,1-2.7,1.5-4.3,1.5
	c-3.8,0-6.9-3.1-6.9-7v-22c0-1.7-1.3-3-3-3c-1.6,0-3,1.3-3,3v25.5c0,11,8.9,18.5,19.8,18.5c10.7,0,19.4-7.1,19.8-17.7
	C51.4,162.2,43.9,163,43.9,163z M55.7,105.5C55,118.1,44.6,128,32,128s-23-9.9-23.7-22.5H8.2V104l0,0l0,0V78.5c0-3.9,3.1-7,6.9-7
	s6.9,3.1,6.9,7v4.7c0.9-0.4,1.9-0.7,3-0.7c1.5,0,2.9,0.5,4,1.3c1.2-2,3.4-3.3,5.9-3.3c1.1,0,2.1,0.2,3,0.7v-8.7c0-3.9,3.1-7,6.9-7
	s6.9,3.1,6.9,7v23.3c2,1.5,3.6,4,3.9,8.2h0.1c0,0.2,0,0.5,0,0.7C55.8,105,55.8,105.2,55.7,105.5L55.7,105.5z M28,89.5
	c0-1.7-1.3-3-3-3c-1.6,0-3,1.3-3,3v11c0,1.7,1.3,3,3,3c1.6,0,3-1.3,3-3V89.5z M37.9,87.5c0-1.7-1.3-3-3-3c-1.6,0-3,1.3-3,3v7.1
	c1.2-0.7,2.5-1.1,4-1.1l0,0h2V87.5z M47.9,72.5c0-1.7-1.3-3-3-3c-1.6,0-3,1.3-3,3v21h2c0,0,1.8-0.1,4,0.4V72.5z M43.9,97.5H36l0,0
	c-2.2,0-4,1.8-4,4s1.8,4,4,4h5.9l0,0c1.1,0,2,0.9,2,2s-0.9,2-2,2l0,0l0,0c-3.3,0-5.9,1.2-5.9,4.5c0,1.1-0.9,2-2,2s-2-0.9-2-2
	c0-2,0.6-3.6,1.5-4.9c-1.7-0.6-3.2-1.7-4.1-3.1c-1.2,1-2.7,1.5-4.3,1.5c-3.8,0-6.9-3.1-6.9-7v-22c0-1.7-1.3-3-3-3c-1.6,0-3,1.3-3,3
	V104c0,11,8.9,20,19.8,20c10.7,0,19.4-8.5,19.8-19.2C51.4,96.7,43.9,97.5,43.9,97.5z M32,64C18.8,64,8.2,53.3,8.2,40l0,0V13
	c0-3.9,3.1-7,6.9-7S22,9.1,22,13v4.7c0.9-0.4,1.9-0.7,3-0.7c1.5,0,2.9,0.5,4,1.3c1.2-2,3.4-3.3,5.9-3.3c1.1,0,2.1,0.2,3,0.7V7
	c0-3.9,3.1-7,6.9-7s6.9,3.1,6.9,7v23.3c2.2,1.7,4,4.6,4,9.7C55.8,53.3,45.1,64,32,64z M28,24c0-1.7-1.3-3-3-3c-1.6,0-3,1.3-3,3v11
	c0,1.7,1.3,3,3,3c1.6,0,3-1.3,3-3V24z M37.9,22c0-1.7-1.3-3-3-3c-1.6,0-3,1.3-3,3v7.1c1.2-0.7,2.5-1.1,4-1.1l0,0h2V22z M47.9,7
	c0-1.7-1.3-3-3-3c-1.6,0-3,1.3-3,3v21h2c0,0,1.8-0.1,4,0.4V7z M43.9,32H36l0,0c-2.2,0-4,1.8-4,4s1.8,4,4,4h5.9l0,0c1.1,0,2,0.9,2,2
	s-0.9,2-2,2l0,0l0,0c-3.3,0-5.9,2.7-5.9,6c0,1.1-0.9,2-2,2s-2-0.9-2-2c0-2.3,0.8-4.5,2.1-6.2c-2-0.5-3.7-1.7-4.8-3.3
	c-1.2,1-2.7,1.5-4.3,1.5c-3.8,0-6.9-3.1-6.9-7V13c0-1.7-1.3-3-3-3c-1.6,0-3,1.3-3,3v27l0,0c0,11,8.9,20,19.8,20c11,0,19.8-9,19.8-20
	C51.8,31.1,43.9,32,43.9,32z M19.1,652.2l0.9,7.1c1.3-1.4,3.1-2.3,5.1-2.3c1.5,0,2.9,0.5,4,1.3c1.2-2,3.4-3.3,5.9-3.3
	c1.9,0,3.6,0.8,4.8,2l1.2-9.8c0.5-3.8,3.9-6.6,7.7-6.1s6.6,4,6.1,7.8l-3.9-0.5c0.2-1.6-1.1-3.1-2.7-3.3s-3.1,1-3.3,2.6l0,0l0,0
	L42.5,668h1.4c0,0,2.1-0.2,4.5,0.6l2.5-20.2l3.9,0.5l-2.6,21.7c2,1.7,3.6,4.6,3.6,9.4c0,13.3-10.7,24-23.8,24S8.2,693.2,8.2,680l0,0
	v-3.3l0,0l-2.9-22.9l3.9-0.5l3,22.8V676v4l0,0c0,11.1,8.9,20,19.8,20c11,0,19.8-9,19.8-20c0-8.9-7.9-8-7.9-8H36l0,0
	c-2.2,0-4,1.8-4,4s1.8,4,4,4h6l0,0c1.1,0,2,0.9,2,2s-0.9,2-2,2l0,0l0,0c-3.3,0-6,2.7-6,6c0,1.1-0.9,2-2,2s-2-0.9-2-2
	c0-2.4,0.8-4.5,2.2-6.2c-2-0.5-3.7-1.7-4.8-3.3c-1.2,1-2.7,1.5-4.3,1.5c-3.8,0-6.9-3.1-6.9-7v-0.5l0.1,1.3l-3.1-23.2l0,0l0,0
	c-0.2-1.6-1.7-2.8-3.3-2.6s-2.8,1.7-2.6,3.3l-3.9,0.5c-0.5-3.8,2.2-7.3,6-7.8C15.1,645.6,18.6,648.3,19.1,652.2z M32,664v5.1
	c1.2-0.7,2.5-1.1,4-1.1l0,0h2v-6c0-1.7-1.3-3-3-3c-1.6,0-3,1.3-3,3V664z M22.1,675c0,1.7,1.3,3,3,3s3-1.3,3-3v-4v-7c0-1.7-1.3-3-3-3
	s-3,1.3-3,3V675z M47,655L47,655L47,655L47,655z"/>
</svg>
