<?xml version="1.0" encoding="utf-8"?>
<!-- Generator: Adobe Illustrator 21.0.2, SVG Export Plug-In . SVG Version: 6.00 Build 0)  -->
<!DOCTYPE svg PUBLIC "-//W3C//DTD SVG 1.1//EN" "http://www.w3.org/Graphics/SVG/1.1/DTD/svg11.dtd">
<svg version="1.1" id="globe" xmlns="http://www.w3.org/2000/svg" xmlns:xlink="http://www.w3.org/1999/xlink" x="0px" y="0px"
	 width="64px" height="768px" enable-background="new 0 0 64 768" xml:space="preserve">
<g id="_x31_">
	<path id="earth" fill="#333333" d="M32,56.045c-8.211,0-15.597-3.515-20.719-9.114l1.058-1.821
		c1.665,1.912,3.607,3.579,5.763,4.939l1.001-1.725c-6.004-3.813-10.18-10.208-10.96-17.611c-0.01-0.091-0.019-0.183-0.027-0.274
		C8.047,29.703,8,28.959,8,28.204c0-0.01,0.001-0.021,0.001-0.031c0-0.01-0.001-0.02-0.001-0.03C8,14.94,18.745,4.237,32,4.237
		c3.994,0,7.753,0.986,11.066,2.706l0.959-1.654c-2.209-1.148-4.604-1.994-7.129-2.473L37.952,1C50.557,3.713,60,14.859,60,28.204
		C60,43.581,47.464,56.045,32,56.045z M32,10.213c-9.941,0-18,8.027-18,17.929c0,9.901,8.059,17.929,18,17.929
		c9.941,0,18-8.027,18-17.929C50,18.241,41.941,10.213,32,10.213z M45.762,6.279l-0.967,1.664c4.993,3.145,8.73,8.064,10.329,13.878
		c0.06,0.212,0.112,0.427,0.166,0.641c0.112,0.463,0.219,0.928,0.306,1.402c0.09,0.487,0.166,0.978,0.228,1.476
		c0.028,0.252,0.054,0.505,0.073,0.76c0.058,0.636,0.095,1.278,0.1,1.928c0,0.039,0.006,0.076,0.006,0.114
		c0,0.008-0.001,0.016-0.001,0.024c0,0.013,0.001,0.025,0.001,0.038c0,13.18-10.745,23.864-24,23.864
		c-4.033,0-7.832-0.994-11.168-2.742l-1.001,1.724c3.63,1.918,7.771,3.006,12.169,3.006c14.357,0,26-11.575,26-25.853
		C58,18.953,53.107,10.845,45.762,6.279z M34,60.022h-2.042H30v-3.977h2h2V60.022z M54,64H10v-1.989c0,0,10.972-1.989,21.958-1.989
		C42.973,60.022,54,62.011,54,62.011V64z"/>
	<g id="map">
		<defs>
			<circle id="SVGID_1_" cx="32" cy="28.1" r="18"/>
		</defs>
		<clipPath id="SVGID_2_">
			<use xlink:href="#SVGID_1_"  overflow="visible"/>
		</clipPath>
		<path clip-path="url(#SVGID_2_)" fill="#333333" d="M59.323,25.554l-6.234-0.566l0.513-2.637l0.08-9.055l-0.771,0.465
			l-0.482-1.088L52.4,26.005l4.17,1.699l-0.657,1.138l-10.22,3.708l-2.941,6.492l-4.039,0.701l-1.444,2.503l-1.662,0.255
			l-0.808,1.05l-4.967,1.784l-3.937-2.273l2.031-10.86l0.493-1.03l1.698-0.84l2.102-3.641L31.782,22.9l1.883-3.262l-1.817-1.049
			l0.299-1.041l-1.308-1.058l-6.1-1.499l-1.581-6.879l3.523-5.752l8.479-3.498l3.052,1.357l2.767,0.283l3.439,2.086l-1.051,1.82
			l1.737,1.711l0.016,1.021l1.49,1.265l1.339-0.744l5.727,4.419l2.238-2.651l4.451,1.559l0.175,10.011l0.745,0.632l1.434-0.385
			l0.812,2.793L59.323,25.554z M47.602,12.525l-1.49,0.583L41.42,9.244l-0.24-1.583L38.31,5.138l0.5-0.866l-1.674-0.1l-2.072-0.908
			l-5.621,2.244l-2.002,3.467l0.729,2.732l4.087,0.915l4.6,3.522l-0.25,0.434l2.556,1.475l-3.253,5.633l0.486,3.75l-3.719,5.941
			l-0.934,0.617l-1.306,6.758l2.049-0.551l0.625-1.083l1.707-0.459l1.377-2.384l3.632-0.793l2.944-6.1l5.496-2.027l0.198-14.331
			L47.602,12.525z M5.191,14.929L1.77,19.628l-4.554-0.506l-1.528,1.949l-4.353,2.645l-1.391-1.613l0.105,2.791l-4.056-0.318
			l-3.276,6.198l1.547,2.915l-2.045-0.841l-1.44-6.935l1.194-2.243l-0.442-1.62l6.132-12.083L-14,6.378l-0.383-7.394l1.502-2.601
			l3.146-0.892l1.979-2.902l2.282-0.806l3.212,1.955l0.774,1.458L0.35-3.438l0.874,3.032L3.44,1.177L3.099,4.216l0.634,1.175
			l1.443,2.046L4.749,8l2.367,1.67l1.536,3.11l-0.776,1.171L5.191,14.929z M-1.105,8.961l1.342-1.825l-1.321-2.207l0.227-1.892
			l-1.389-1.091l-0.73-2.732l-1.605-1.216l-0.581-1.491L-5.72-3.527l-1.501,2.601L-10.295-0.1l0.219,5.615l2.301,4.507l-2.786,5.325
			l2.619,2.957l0.899-0.059l2.56-3.434l4.336,0.481l3.026-3.742L-1.105,8.961z"/>
	</g>
</g>
<g id="_x32_">
	<path id="earth_1_" fill="#333333" d="M32,120.045c-8.211,0-15.597-3.515-20.719-9.114l1.058-1.821
		c1.665,1.912,3.607,3.579,5.763,4.939l1.001-1.725c-6.004-3.813-10.18-10.208-10.96-17.611c-0.01-0.091-0.019-0.183-0.027-0.274
		C8.047,93.703,8,92.959,8,92.204c0-0.01,0.001-0.021,0.001-0.031c0-0.01-0.001-0.02-0.001-0.03C8,78.94,18.745,68.237,32,68.237
		c3.994,0,7.753,0.986,11.066,2.706l0.959-1.654c-2.209-1.148-4.604-1.994-7.129-2.473L37.952,65C50.557,67.713,60,78.859,60,92.204
		C60,107.581,47.464,120.045,32,120.045z M32,74.213c-9.941,0-18,8.027-18,17.929c0,9.901,8.059,17.929,18,17.929
		c9.941,0,18-8.027,18-17.929C50,82.241,41.941,74.213,32,74.213z M45.762,70.279l-0.967,1.664
		c4.993,3.145,8.73,8.064,10.329,13.878c0.06,0.212,0.112,0.427,0.166,0.641c0.112,0.463,0.219,0.928,0.306,1.402
		c0.09,0.487,0.166,0.979,0.228,1.477c0.028,0.252,0.054,0.505,0.073,0.76c0.058,0.636,0.095,1.278,0.1,1.928
		c0,0.039,0.006,0.076,0.006,0.114c0,0.008-0.001,0.016-0.001,0.024c0,0.013,0.001,0.025,0.001,0.038
		c0,13.18-10.745,23.864-24,23.864c-4.033,0-7.832-0.994-11.168-2.742l-1.001,1.724c3.63,1.918,7.771,3.006,12.169,3.006
		c14.357,0,26-11.575,26-25.853C58,82.953,53.107,74.845,45.762,70.279z M34,124.022h-2.042H30v-3.977h2h2V124.022z M54,128H10
		v-1.989c0,0,10.972-1.989,21.958-1.989c11.015,0,22.042,1.989,22.042,1.989V128z"/>
	<linearGradient id="sea_11_" gradientUnits="userSpaceOnUse" x1="32" y1="110.1001" x2="32" y2="74.1001">
		<stop  offset="0" style="stop-color:#4AB4F7"/>
		<stop  offset="1" style="stop-color:#4AB4F7"/>
	</linearGradient>
	<circle id="sea_2_" opacity="0.12" fill="url(#sea_11_)" cx="32" cy="92.1" r="18"/>
	<g id="map_1_">
		<defs>
			<circle id="SVGID_3_" cx="32" cy="92.1" r="18"/>
		</defs>
		<clipPath id="SVGID_4_">
			<use xlink:href="#SVGID_3_"  overflow="visible"/>
		</clipPath>
		<g opacity="0.12" clip-path="url(#SVGID_4_)">
			<g>
				<path fill-rule="evenodd" clip-rule="evenodd" fill="#80DD1C" d="M48.165,77.017l-1.26,0.071l-4.391-3.433l0.016-1.731
					l-3.107-2.263l0.692-0.966l-2.082-0.125l-2.074-0.909l-5.748,2.455l-2.216,3.339l0.607,2.949l4.647,0.951l4.172,3.274
					l-0.375,0.65l2.815,1.625l-3.25,5.629l0.449,3.723L33.5,97.5l-1.183,0.967l-1.21,7.096l2.174-0.766l0.915-0.959l1.417-0.581
					l1.708-2.003l3.515-1.044l3.026-6.081l5.413-2.037l0.188-14.325L48.165,77.017z M1.201,71.722l-1.198-2.424l0.317-1.549
					l-1.482-1.433l-0.732-2.732l-1.391-1.091L-4.3,60.25l-1.842,3.19l-3.415,0.915l0.44,5.739l2.089,4.382l-2.692,5.663l2.839,3.083
					l0.808-0.399l2.433-3.214L1.04,80l2.808-3.864l-3.647-2.683L1.201,71.722z"/>
			</g>
		</g>
		<path clip-path="url(#SVGID_4_)" fill="#333333" d="M60.189,90.054l-6.234-0.566l0.512-2.637l0.08-9.055l-0.773,0.465l-0.48-1.088
			l-0.024,13.332l4.168,1.699l-0.656,1.138L46.56,97.05l-2.939,6.492l-4.04,0.701l-1.442,2.503l-1.662,0.255l-0.81,1.049
			l-4.966,1.785l-3.937-2.273l2.03-10.861l0.494-1.029l1.697-0.84l2.102-3.641L32.648,87.4l1.883-3.262l-1.817-1.049l0.3-1.041
			l-1.309-1.059l-6.1-1.498l-1.581-6.88l3.522-5.752l8.479-3.497l3.053,1.357l2.766,0.282l3.438,2.087l-1.052,1.82l1.737,1.711
			l0.017,1.021l1.492,1.265l1.336-0.744l5.729,4.419l2.236-2.651l4.451,1.559l0.176,10.011l0.746,0.632l1.434-0.385l0.81,2.793
			L60.189,90.054z M48.467,77.024l-1.49,0.584l-4.689-3.864l-0.24-1.583l-2.869-2.523l0.5-0.866l-1.674-0.1l-2.07-0.908
			l-5.622,2.244l-2.002,3.467l0.729,2.732l4.086,0.915l4.602,3.522l-0.25,0.434l2.553,1.475l-3.252,5.633l0.488,3.75l-3.721,5.941
			l-0.935,0.617l-1.303,6.758l2.047-0.551l0.625-1.084l1.707-0.458l1.377-2.384l3.629-0.793l2.947-6.1l5.496-2.027l0.197-14.332
			L48.467,77.024z M6.057,79.429l-3.42,4.699l-4.554-0.506l-1.528,1.949l-4.354,2.645l-1.391-1.613l0.104,2.791l-4.055-0.318
			l-3.276,6.198l1.547,2.915l-2.045-0.842l-1.44-6.934l1.194-2.244l-0.442-1.619l6.133-12.083l-1.664-3.589l-0.382-7.394
			l1.502-2.601l3.146-0.892l1.979-2.902l2.282-0.806l3.212,1.955l0.773,1.458l1.837,1.364l0.874,3.032l2.215,1.583l-0.341,3.038
			l0.635,1.176l1.443,2.046L5.615,72.5l2.367,1.67l1.536,3.11l-0.776,1.17L6.057,79.429z M-0.239,73.461l1.343-1.825l-1.322-2.208
			l0.227-1.892l-1.389-1.091l-0.73-2.733l-1.605-1.215l-0.581-1.491l-0.558-0.033l-1.501,2.6l-3.073,0.826l0.219,5.616l2.301,4.507
			l-2.786,5.325l2.619,2.957l0.899-0.059l2.559-3.435l4.337,0.482l3.026-3.743L-0.239,73.461z"/>
	</g>
</g>
<g id="_x33_">
	<path id="earth_2_" fill="#333333" d="M32,184.045c-8.211,0-15.597-3.515-20.719-9.114l1.058-1.821
		c1.665,1.912,3.607,3.579,5.763,4.939l1.001-1.725c-6.004-3.813-10.18-10.208-10.96-17.611c-0.01-0.091-0.019-0.183-0.027-0.274
		C8.047,157.703,8,156.959,8,156.204c0-0.01,0.001-0.021,0.001-0.031c0-0.01-0.001-0.02-0.001-0.03
		c0-13.203,10.745-23.905,24-23.905c3.994,0,7.753,0.986,11.066,2.706l0.959-1.654c-2.209-1.148-4.604-1.994-7.129-2.473L37.952,129
		C50.557,131.713,60,142.859,60,156.204C60,171.581,47.464,184.045,32,184.045z M32,138.213c-9.941,0-18,8.027-18,17.929
		c0,9.901,8.059,17.929,18,17.929c9.941,0,18-8.027,18-17.929C50,146.241,41.941,138.213,32,138.213z M45.762,134.279l-0.967,1.664
		c4.993,3.145,8.73,8.064,10.329,13.878c0.06,0.212,0.112,0.427,0.166,0.641c0.112,0.463,0.219,0.928,0.306,1.402
		c0.09,0.487,0.166,0.979,0.228,1.477c0.028,0.252,0.054,0.505,0.073,0.76c0.058,0.636,0.095,1.278,0.1,1.928
		c0,0.039,0.006,0.076,0.006,0.114c0,0.008-0.001,0.016-0.001,0.024c0,0.013,0.001,0.025,0.001,0.038
		c0,13.18-10.745,23.864-24,23.864c-4.033,0-7.832-0.994-11.168-2.742l-1.001,1.724c3.63,1.918,7.771,3.006,12.169,3.006
		c14.357,0,26-11.575,26-25.853C58,146.953,53.107,138.845,45.762,134.279z M34,188.022h-2.042H30v-3.977h2h2V188.022z M54,192H10
		v-1.989c0,0,10.972-1.989,21.958-1.989c11.015,0,22.042,1.989,22.042,1.989V192z"/>
	<linearGradient id="sea_12_" gradientUnits="userSpaceOnUse" x1="32" y1="174.1001" x2="32" y2="138.1001">
		<stop  offset="0" style="stop-color:#4AB4F7"/>
		<stop  offset="1" style="stop-color:#4AB4F7"/>
	</linearGradient>
	<circle id="sea_10_" opacity="0.24" fill="url(#sea_12_)" cx="32" cy="156.1" r="18"/>
	<g id="map_11_">
		<defs>
			<circle id="SVGID_5_" cx="32" cy="156.1" r="18"/>
		</defs>
		<clipPath id="SVGID_6_">
			<use xlink:href="#SVGID_5_"  overflow="visible"/>
		</clipPath>
		<g opacity="0.24" clip-path="url(#SVGID_6_)">
			<g>
				<path fill-rule="evenodd" clip-rule="evenodd" fill="#80DD1C" d="M49.816,142.246l-1.26,0.071l-4.391-3.433l0.016-1.731
					l-3.107-2.263l0.692-0.967l-2.082-0.125l-2.074-0.908l-5.748,2.455l-2.216,3.339l0.607,2.949l4.647,0.951l4.172,3.274
					l-0.375,0.65l2.815,1.625l-3.25,5.629l0.449,3.723l-3.25,5.629l-1.491,0.582l-1.21,7.096l2.174-0.765l0.915-0.959l1.417-0.581
					l1.708-2.003l3.515-1.044l3.026-6.081l5.413-2.037l0.188-14.325L49.816,142.246z M2.852,136.951l-1.199-2.424l0.317-1.549
					l-1.482-1.433l-0.732-2.732l-1.391-1.092l-1.015-2.242l-1.842,3.19l-3.415,0.915l0.44,5.739l2.089,4.382l-2.692,5.663
					l2.839,3.083l0.808-0.4l2.433-3.214l4.681,0.393l2.808-3.864l-3.647-2.683L2.852,136.951z"/>
			</g>
		</g>
		<path clip-path="url(#SVGID_6_)" fill="#333333" d="M61.922,155.054l-6.234-0.566l0.514-2.637l0.078-9.055l-0.771,0.464
			l-0.481-1.088L55,155.505l4.168,1.699l-0.656,1.137l-10.218,3.709l-2.94,6.492l-4.039,0.701l-1.443,2.503L38.205,172l-0.809,1.05
			l-4.966,1.785l-3.937-2.273l2.031-10.861l0.493-1.029l1.697-0.84l2.102-3.641L34.38,152.4l1.884-3.262l-1.818-1.049l0.3-1.041
			l-1.308-1.059l-6.101-1.499l-1.581-6.879l3.523-5.752l8.479-3.497l3.053,1.357l2.767,0.282l3.438,2.087l-1.052,1.819l1.737,1.712
			l0.017,1.021l1.49,1.265l1.338-0.744l5.728,4.419l2.238-2.651l4.45,1.558l0.175,10.011l0.746,0.633l1.434-0.385l0.812,2.793
			L61.922,155.054z M50.199,142.024l-1.49,0.584l-4.691-3.864l-0.24-1.583l-2.868-2.523l0.501-0.867l-1.676-0.099l-2.07-0.908
			l-5.621,2.244l-2.001,3.467l0.73,2.732l4.085,0.915l4.601,3.522l-0.25,0.434l2.556,1.475l-3.255,5.633l0.489,3.75l-3.721,5.941
			l-0.935,0.617l-1.306,6.758l2.049-0.551l0.626-1.084l1.707-0.459l1.376-2.383l3.63-0.793l2.945-6.1l5.497-2.027l0.197-14.332
			L50.199,142.024z M7.789,144.428l-3.42,4.7l-4.554-0.506l-1.529,1.949l-4.353,2.645l-1.392-1.613l0.105,2.791l-4.056-0.319
			l-3.276,6.198l1.546,2.916l-2.045-0.842l-1.44-6.935l1.194-2.243l-0.441-1.62l6.132-12.082l-1.663-3.59l-0.382-7.393l1.501-2.601
			l3.146-0.893l1.979-2.902l2.282-0.805l3.211,1.955l0.773,1.458l1.837,1.364l0.874,3.032l2.216,1.583l-0.341,3.038l0.634,1.176
			l1.443,2.046L7.348,137.5l2.367,1.67l1.535,3.11l-0.776,1.17L7.789,144.428z M1.493,138.461l1.343-1.826l-1.321-2.207l0.226-1.892
			l-1.389-1.091l-0.73-2.733l-1.604-1.215l-0.582-1.492l-0.558-0.032l-1.501,2.6l-3.073,0.826l0.219,5.616l2.301,4.507l-2.786,5.325
			l2.619,2.957l0.9-0.059l2.559-3.435l4.337,0.481l3.026-3.742L1.493,138.461z"/>
	</g>
</g>
<g id="_x34_">
	<path id="earth_3_" fill="#333333" d="M32,248.045c-8.211,0-15.597-3.515-20.719-9.114l1.058-1.821
		c1.665,1.912,3.607,3.579,5.763,4.939l1.001-1.725c-6.004-3.813-10.18-10.208-10.96-17.611c-0.01-0.091-0.019-0.183-0.027-0.274
		C8.047,221.703,8,220.959,8,220.204c0-0.01,0.001-0.021,0.001-0.031c0-0.01-0.001-0.02-0.001-0.03
		c0-13.203,10.745-23.905,24-23.905c3.994,0,7.753,0.986,11.066,2.706l0.959-1.654c-2.209-1.148-4.604-1.994-7.129-2.473L37.952,193
		C50.557,195.713,60,206.859,60,220.204C60,235.581,47.464,248.045,32,248.045z M32,202.213c-9.941,0-18,8.027-18,17.929
		c0,9.901,8.059,17.929,18,17.929c9.941,0,18-8.027,18-17.929C50,210.241,41.941,202.213,32,202.213z M45.762,198.279l-0.967,1.664
		c4.993,3.145,8.73,8.064,10.329,13.878c0.06,0.212,0.112,0.427,0.166,0.641c0.112,0.463,0.219,0.928,0.306,1.402
		c0.09,0.487,0.166,0.979,0.228,1.477c0.028,0.252,0.054,0.505,0.073,0.76c0.058,0.636,0.095,1.278,0.1,1.928
		c0,0.039,0.006,0.076,0.006,0.114c0,0.008-0.001,0.016-0.001,0.024c0,0.013,0.001,0.025,0.001,0.038
		c0,13.18-10.745,23.864-24,23.864c-4.033,0-7.832-0.994-11.168-2.742l-1.001,1.724c3.63,1.918,7.771,3.006,12.169,3.006
		c14.357,0,26-11.575,26-25.853C58,210.953,53.107,202.845,45.762,198.279z M34,252.022h-2.042H30v-3.977h2h2V252.022z M54,256H10
		v-1.989c0,0,10.972-1.989,21.958-1.989c11.015,0,22.042,1.989,22.042,1.989V256z"/>
	<linearGradient id="sea_13_" gradientUnits="userSpaceOnUse" x1="32" y1="238.1011" x2="32" y2="202.1011">
		<stop  offset="0" style="stop-color:#4AB4F7"/>
		<stop  offset="1" style="stop-color:#4AB4F7"/>
	</linearGradient>
	<circle id="sea_9_" opacity="0.36" fill="url(#sea_13_)" cx="32" cy="220.101" r="18"/>
	<g id="map_10_">
		<defs>
			<circle id="SVGID_7_" cx="32" cy="220.101" r="18"/>
		</defs>
		<clipPath id="SVGID_8_">
			<use xlink:href="#SVGID_7_"  overflow="visible"/>
		</clipPath>
		<g opacity="0.36" clip-path="url(#SVGID_8_)">
			<g>
				<path fill-rule="evenodd" clip-rule="evenodd" fill="#80DD1C" d="M51.607,206.808l-1.26,0.071l-4.391-3.433l0.016-1.731
					l-3.107-2.263l0.692-0.966l-2.082-0.125l-2.074-0.909l-5.748,2.455l-2.217,3.339l0.607,2.949l4.647,0.951l4.172,3.275
					l-0.375,0.649l2.815,1.625l-3.25,5.629l0.448,3.723l-3.458,5.496l-1.282,0.716l-1.21,7.096l2.409-0.437l0.68-1.288l1.57-0.295
					l1.555-2.288l3.515-1.044l3.026-6.081l5.413-2.037l0.188-14.325L51.607,206.808z M4.643,201.512l-1.199-2.424l0.317-1.549
					l-1.482-1.433l-0.732-2.732l-1.391-1.091l-1.015-2.242l-1.842,3.19l-3.415,0.915l0.44,5.738l2.089,4.382l-2.692,5.663
					l2.839,3.082l0.808-0.399l2.433-3.214l4.681,0.393l2.808-3.864l-3.647-2.683L4.643,201.512z"/>
			</g>
		</g>
		<path clip-path="url(#SVGID_8_)" fill="#333333" d="M63.652,220.055l-6.233-0.566l0.513-2.637l0.08-9.055l-0.773,0.464
			l-0.48-1.088l-0.023,13.333l4.168,1.699l-0.657,1.137l-10.218,3.709l-2.94,6.492l-4.039,0.701l-1.444,2.502l-1.662,0.255
			l-0.808,1.05l-4.968,1.785l-3.937-2.273l2.031-10.861l0.493-1.029l1.698-0.84l2.102-3.641l-0.438-3.791l1.884-3.262l-1.817-1.049
			l0.299-1.041l-1.308-1.059l-6.1-1.499l-1.581-6.879l3.523-5.752l8.479-3.497l3.052,1.357l2.767,0.282l3.439,2.087l-1.051,1.819
			l1.737,1.712l0.016,1.02l1.49,1.266l1.338-0.744l5.728,4.418l2.238-2.65l4.45,1.558l0.176,10.011l0.745,0.633l1.435-0.386
			l0.812,2.794L63.652,220.055z M51.932,207.025l-1.49,0.583l-4.69-3.863l-0.237-1.584l-2.871-2.523l0.502-0.866l-1.676-0.099
			l-2.07-0.908l-5.621,2.244l-2.001,3.467l0.729,2.732l4.087,0.914l4.6,3.523l-0.25,0.434l2.556,1.474l-3.253,5.634l0.486,3.749
			l-3.719,5.942l-0.934,0.617l-1.307,6.758l2.049-0.551l0.625-1.084l1.707-0.459l1.377-2.383l3.631-0.793l2.945-6.101l5.496-2.026
			l0.197-14.332L51.932,207.025z M9.521,209.429l-3.421,4.7l-4.554-0.506l-1.528,1.949l-4.353,2.644l-1.391-1.612l0.105,2.791
			l-4.056-0.319l-3.276,6.198l1.547,2.916l-2.045-0.842l-1.44-6.935l1.194-2.243l-0.442-1.62l6.132-12.083l-1.663-3.589
			l-0.383-7.394l1.502-2.6l3.146-0.893l1.979-2.902l2.282-0.805l3.212,1.955l0.774,1.456l1.837,1.364l0.874,3.033l2.216,1.582
			l-0.341,3.039l0.634,1.175l1.443,2.047l-0.426,0.563l2.367,1.67l1.536,3.11l-0.776,1.17L9.521,209.429z M3.225,203.461
			l1.342-1.825l-1.321-2.207l0.227-1.892l-1.389-1.091l-0.73-2.733l-1.605-1.215l-0.581-1.492l-0.558-0.032l-1.501,2.6l-3.073,0.826
			l0.219,5.616l2.301,4.506l-2.786,5.326l2.619,2.956l0.899-0.058l2.56-3.435l4.336,0.481l3.026-3.742L3.225,203.461z"/>
	</g>
</g>
<g id="_x35_">
	<path id="earth_4_" fill="#333333" d="M32,312.045c-8.211,0-15.597-3.515-20.719-9.114l1.058-1.819
		c1.665,1.911,3.607,3.579,5.763,4.938l1.001-1.725c-6.004-3.814-10.18-10.208-10.96-17.611c-0.01-0.091-0.019-0.183-0.027-0.274
		C8.047,285.703,8,284.959,8,284.204c0-0.01,0.001-0.021,0.001-0.031c0-0.01-0.001-0.02-0.001-0.03
		c0-13.203,10.745-23.905,24-23.905c3.994,0,7.753,0.986,11.066,2.706l0.959-1.654c-2.209-1.148-4.604-1.994-7.129-2.473L37.952,257
		C50.557,259.713,60,270.859,60,284.204C60,299.581,47.464,312.045,32,312.045z M32,266.213c-9.941,0-18,8.027-18,17.929
		c0,9.901,8.059,17.929,18,17.929c9.941,0,18-8.027,18-17.929C50,274.241,41.941,266.213,32,266.213z M45.762,262.279l-0.967,1.664
		c4.993,3.145,8.73,8.064,10.329,13.878c0.06,0.212,0.112,0.427,0.166,0.641c0.112,0.463,0.219,0.928,0.306,1.402
		c0.09,0.487,0.166,0.979,0.228,1.477c0.028,0.252,0.054,0.505,0.073,0.76c0.058,0.636,0.095,1.278,0.1,1.928
		c0,0.039,0.006,0.076,0.006,0.114c0,0.008-0.001,0.016-0.001,0.024c0,0.013,0.001,0.025,0.001,0.038
		c0,13.18-10.745,23.864-24,23.864c-4.033,0-7.832-0.994-11.168-2.742l-1.001,1.724c3.63,1.918,7.771,3.006,12.169,3.006
		c14.357,0,26-11.573,26-25.853C58,274.953,53.107,266.845,45.762,262.279z M34,316.022h-2.042H30v-3.979h2h2V316.022z M54,320H10
		v-1.989c0,0,10.972-1.989,21.958-1.989c11.015,0,22.042,1.989,22.042,1.989V320z"/>
	<linearGradient id="sea_14_" gradientUnits="userSpaceOnUse" x1="32" y1="302.1009" x2="32" y2="266.1009">
		<stop  offset="0" style="stop-color:#4AB4F7"/>
		<stop  offset="1" style="stop-color:#4AB4F7"/>
	</linearGradient>
	<circle id="sea_8_" opacity="0.48" fill="url(#sea_14_)" cx="32" cy="284.101" r="18"/>
	<g id="map_9_">
		<defs>
			<circle id="SVGID_9_" cx="32" cy="284.101" r="18"/>
		</defs>
		<clipPath id="SVGID_10_">
			<use xlink:href="#SVGID_9_"  overflow="visible"/>
		</clipPath>
		<g opacity="0.48" clip-path="url(#SVGID_10_)">
			<g>
				<path fill-rule="evenodd" clip-rule="evenodd" fill="#80DD1C" d="M53.961,272.205l-1.26,0.071l-4.391-3.433l0.016-1.731
					l-3.107-2.263l0.692-0.966l-2.082-0.125l-2.073-0.909l-5.748,2.455l-2.217,3.339l0.607,2.949l4.647,0.951l4.172,3.275
					l-0.375,0.649l2.815,1.625l-3.25,5.629l0.449,3.723l-3.25,5.629l-1.491,0.583l-1.21,7.096l2.174-0.766l0.915-0.959l1.417-0.581
					l1.708-2.002l3.515-1.044l3.026-6.081l5.413-2.037l0.188-14.325L53.961,272.205z M6.998,266.909l-1.199-2.424l0.317-1.549
					l-1.482-1.433l-0.732-2.732l-1.391-1.091l-1.015-2.242l-1.842,3.191l-3.415,0.915l0.44,5.739l2.089,4.382l-2.692,5.663
					l2.839,3.083l0.808-0.4l2.433-3.214l4.681,0.393l2.808-3.864l-3.647-2.683L6.998,266.909z"/>
			</g>
		</g>
		<path clip-path="url(#SVGID_10_)" fill="#333333" d="M66.014,285.417l-6.234-0.565l0.514-2.638l0.08-9.054l-0.771,0.463
			l-0.483-1.088L59.09,285.87l4.168,1.697l-0.656,1.139l-10.217,3.707l-2.941,6.493l-4.039,0.702l-1.443,2.502l-1.661,0.254
			l-0.808,1.051l-4.969,1.784l-3.937-2.272l2.031-10.861l0.491-1.029l1.699-0.842l2.102-3.64l-0.438-3.791l1.883-3.261l-1.816-1.05
			l0.299-1.041l-1.309-1.058l-6.099-1.5l-1.581-6.879l3.523-5.752l8.479-3.497l3.051,1.357l2.767,0.282l3.438,2.086l-1.051,1.82
			l1.736,1.711l0.017,1.021l1.49,1.266l1.338-0.745l5.728,4.419l2.237-2.652l4.451,1.559l0.176,10.012l0.744,0.633l1.436-0.387
			l0.811,2.794L66.014,285.417z M54.291,272.387l-1.49,0.584l-4.691-3.864l-0.237-1.583L45,265l0.501-0.867l-1.674-0.099
			l-2.072-0.907l-5.621,2.244l-2.001,3.467l0.729,2.732l4.089,0.914l4.601,3.522L43.3,276.44l2.556,1.474l-3.254,5.635l0.487,3.748
			l-3.719,5.943l-0.935,0.616l-1.307,6.758l2.049-0.553l0.625-1.083l1.707-0.459l1.377-2.383l3.629-0.795l2.946-6.1l5.497-2.026
			l0.197-14.331L54.291,272.387z M11.882,274.792l-3.421,4.699l-4.554-0.506l-1.528,1.949l-4.353,2.644l-1.391-1.611l0.105,2.79
			l-4.056-0.319l-3.276,6.199l1.547,2.915l-2.045-0.842l-1.44-6.935l1.194-2.243l-0.442-1.62l6.132-12.082l-1.663-3.589
			l-0.383-7.394l1.502-2.601l3.146-0.892l1.979-2.902l2.282-0.807l3.212,1.956l0.773,1.458l1.837,1.364l0.874,3.032l2.216,1.582
			l-0.341,3.039l0.634,1.176l1.443,2.047l-0.427,0.563l2.367,1.67l1.536,3.111l-0.776,1.169L11.882,274.792z M5.585,268.825
			L6.928,267l-1.321-2.208l0.227-1.891l-1.389-1.092l-0.73-2.732l-1.605-1.216l-0.581-1.491l-0.558-0.033l-1.501,2.6l-3.073,0.826
			l0.219,5.616l2.301,4.507l-2.786,5.325l2.619,2.957l0.899-0.06l2.56-3.434l4.336,0.482l3.027-3.743L5.585,268.825z"/>
	</g>
</g>
<g id="_x36_">
	<path id="earth_5_" fill="#333333" d="M32,376.045c-8.211,0-15.597-3.515-20.719-9.114l1.058-1.819
		c1.665,1.911,3.607,3.579,5.763,4.938l1.001-1.725c-6.004-3.814-10.18-10.208-10.96-17.611c-0.01-0.091-0.019-0.183-0.027-0.272
		C8.047,349.703,8,348.959,8,348.204c0-0.01,0.001-0.021,0.001-0.031c0-0.01-0.001-0.02-0.001-0.03
		c0-13.201,10.745-23.903,24-23.903c3.994,0,7.753,0.984,11.066,2.706l0.959-1.654c-2.209-1.148-4.604-1.994-7.129-2.473L37.952,321
		C50.557,323.713,60,334.859,60,348.204C60,363.581,47.464,376.045,32,376.045z M32,330.213c-9.941,0-18,8.027-18,17.929
		c0,9.902,8.059,17.931,18,17.931c9.941,0,18-8.027,18-17.931C50,338.241,41.941,330.213,32,330.213z M45.762,326.279l-0.967,1.664
		c4.993,3.145,8.73,8.063,10.329,13.878c0.06,0.212,0.112,0.427,0.166,0.641c0.112,0.463,0.219,0.928,0.306,1.402
		c0.09,0.485,0.166,0.978,0.228,1.476c0.028,0.252,0.054,0.505,0.073,0.76c0.058,0.638,0.095,1.278,0.1,1.93
		c0,0.039,0.006,0.075,0.006,0.112c0,0.01-0.001,0.018-0.001,0.024c0,0.013,0.001,0.025,0.001,0.038
		c0,13.18-10.745,23.864-24,23.864c-4.033,0-7.832-0.994-11.168-2.742l-1.001,1.724c3.63,1.918,7.771,3.006,12.169,3.006
		c14.357,0,26-11.573,26-25.853C58,338.953,53.107,330.845,45.762,326.279z M34,380.022h-2.042H30v-3.979h2h2V380.022z M54,384H10
		v-1.989c0,0,10.972-1.989,21.958-1.989c11.015,0,22.042,1.989,22.042,1.989V384z"/>
	<linearGradient id="sea_15_" gradientUnits="userSpaceOnUse" x1="32" y1="366.1006" x2="32" y2="330.1006">
		<stop  offset="0" style="stop-color:#4AB4F7"/>
		<stop  offset="1" style="stop-color:#4AB4F7"/>
	</linearGradient>
	<circle id="sea_7_" opacity="0.58" fill="url(#sea_15_)" cx="32" cy="348.101" r="18"/>
	<g id="map_8_">
		<defs>
			<circle id="SVGID_11_" cx="32" cy="348.101" r="18"/>
		</defs>
		<clipPath id="SVGID_12_">
			<use xlink:href="#SVGID_11_"  overflow="visible"/>
		</clipPath>
		<g opacity="0.58" clip-path="url(#SVGID_12_)">
			<g>
				<path fill-rule="evenodd" clip-rule="evenodd" fill="#80DD1C" d="M55.841,337.18l-1.26,0.071l-4.391-3.433l0.016-1.731
					l-3.107-2.263l0.692-0.966l-2.082-0.125l-2.073-0.909l-5.748,2.455l-2.216,3.339l0.607,2.949l4.647,0.951l4.172,3.275
					l-0.375,0.649l2.814,1.625l-3.25,5.629l0.449,3.723l-3.25,5.629l-1.491,0.583l-1.21,7.096l2.174-0.766l0.915-0.959l1.417-0.581
					l1.708-2.003l3.515-1.044l3.026-6.081l5.413-2.037l0.188-14.325L55.841,337.18z M8.877,331.885l-1.199-2.424l0.317-1.549
					l-1.482-1.433l-0.732-2.732l-1.391-1.091l-1.015-2.242l-1.842,3.19l-3.415,0.915l0.44,5.739l2.089,4.382l-2.692,5.663
					l2.839,3.083l0.808-0.4l2.433-3.214l4.681,0.393l2.808-3.864l-3.647-2.683L8.877,331.885z"/>
			</g>
		</g>
		<path clip-path="url(#SVGID_12_)" fill="#333333" d="M67.746,350.417l-6.234-0.566l0.512-2.637l0.08-9.055l-0.771,0.464
			l-0.48-1.088l-0.025,13.334l4.168,1.697l-0.657,1.139l-10.216,3.707l-2.941,6.493l-4.039,0.702l-1.445,2.502l-1.659,0.254
			l-0.809,1.051l-4.968,1.784l-3.937-2.272l2.029-10.859l0.492-1.03l1.697-0.841l2.103-3.643l-0.437-3.791l1.883-3.26l-1.816-1.05
			l0.299-1.041l-1.307-1.06l-6.101-1.5l-1.581-6.879l3.52-5.752l8.48-3.497l3.054,1.358l2.766,0.282l3.439,2.086l-1.051,1.818
			l1.737,1.713l0.017,1.021l1.491,1.266l1.337-0.743l5.729,4.419l2.235-2.652l4.451,1.559l0.176,10.014l0.745,0.632l1.435-0.386
			l0.811,2.794L67.746,350.417z M56.023,337.387l-1.49,0.584l-4.691-3.863l-0.24-1.582L46.732,330l0.5-0.867l-1.674-0.1
			l-2.072-0.906l-5.62,2.243l-2.003,3.468l0.729,2.732l4.088,0.914l4.6,3.521l-0.25,0.435l2.554,1.474l-3.253,5.635l0.488,3.748
			L41.1,358.24l-0.935,0.615l-1.306,6.759l2.049-0.553l0.626-1.083l1.707-0.459l1.376-2.383l3.63-0.795l2.946-6.1l5.496-2.027
			l0.196-14.33L56.023,337.387z M13.613,339.792l-3.42,4.7l-4.554-0.506l-1.528,1.947l-4.354,2.646l-1.391-1.611l0.104,2.79
			l-4.055-0.317l-3.276,6.196l1.547,2.916l-2.045-0.842l-1.44-6.935l1.194-2.243l-0.442-1.62l6.133-12.082l-1.664-3.59l-0.382-7.395
			l1.501-2.601l3.147-0.893l1.979-2.902l2.282-0.808l3.212,1.956l0.773,1.458l1.837,1.364l0.874,3.032l2.215,1.582l-0.341,3.039
			l0.634,1.176l1.443,2.046l-0.426,0.564l2.367,1.67l1.536,3.108l-0.776,1.17L13.613,339.792z M7.317,333.825L8.66,332l-1.322-2.208
			l0.227-1.892l-1.389-1.093l-0.73-2.73l-1.605-1.216L3.26,321.37l-0.558-0.033l-1.501,2.602l-3.073,0.824l0.219,5.616l2.301,4.507
			l-2.785,5.325l2.619,2.957l0.899-0.06l2.559-3.435l4.337,0.482l3.026-3.743L7.317,333.825z"/>
	</g>
</g>
<g id="_x37_">
	<path id="earth_6_" fill="#333333" d="M32,440.045c-8.211,0-15.597-3.514-20.719-9.113l1.058-1.819
		c1.665,1.912,3.607,3.579,5.763,4.938l1.001-1.725c-6.004-3.814-10.18-10.208-10.96-17.611c-0.01-0.091-0.019-0.183-0.027-0.272
		C8.047,413.703,8,412.959,8,412.204c0-0.011,0.001-0.021,0.001-0.03c0-0.011-0.001-0.021-0.001-0.031
		c0-13.201,10.745-23.903,24-23.903c3.994,0,7.753,0.984,11.066,2.706l0.959-1.654c-2.209-1.148-4.604-1.994-7.129-2.473L37.952,385
		C50.557,387.713,60,398.859,60,412.204C60,427.58,47.464,440.045,32,440.045z M32,394.213c-9.941,0-18,8.027-18,17.93
		c0,9.901,8.059,17.931,18,17.931c9.941,0,18-8.027,18-17.931C50,402.24,41.941,394.213,32,394.213z M45.762,390.279l-0.967,1.663
		c4.993,3.145,8.73,8.063,10.329,13.878c0.06,0.213,0.112,0.428,0.166,0.642c0.112,0.464,0.219,0.929,0.306,1.401
		c0.09,0.486,0.166,0.978,0.228,1.477c0.028,0.253,0.054,0.506,0.073,0.761c0.058,0.638,0.095,1.278,0.1,1.93
		c0,0.038,0.006,0.073,0.006,0.112c0,0.01-0.001,0.018-0.001,0.023c0,0.014,0.001,0.025,0.001,0.038
		c0,13.18-10.745,23.864-24,23.864c-4.033,0-7.832-0.994-11.168-2.742l-1.001,1.725c3.63,1.918,7.771,3.006,12.169,3.006
		c14.357,0,26-11.572,26-25.853C58,402.953,53.107,394.846,45.762,390.279z M34,444.022h-2.042H30v-3.979h2h2V444.022z M54,448H10
		v-1.988c0,0,10.972-1.987,21.958-1.987c11.015,0,22.042,1.987,22.042,1.987V448z"/>
	<linearGradient id="sea_16_" gradientUnits="userSpaceOnUse" x1="32" y1="430.0996" x2="32" y2="394.0996">
		<stop  offset="0" style="stop-color:#4AB4F7"/>
		<stop  offset="1" style="stop-color:#4AB4F7"/>
	</linearGradient>
	<circle id="sea_6_" opacity="0.68" fill="url(#sea_16_)" cx="32" cy="412.1" r="18"/>
	<g id="map_7_">
		<defs>
			<circle id="SVGID_13_" cx="32" cy="412.1" r="18"/>
		</defs>
		<clipPath id="SVGID_14_">
			<use xlink:href="#SVGID_13_"  overflow="visible"/>
		</clipPath>
		<g opacity="0.68" clip-path="url(#SVGID_14_)">
			<g>
				<path fill-rule="evenodd" clip-rule="evenodd" fill="#80DD1C" d="M57.211,402.33l-1.26,0.071l-4.391-3.433l0.016-1.731
					l-3.107-2.263l0.692-0.966l-2.082-0.125l-2.074-0.909l-5.748,2.455l-2.217,3.339l0.607,2.949l4.647,0.951l4.172,3.275
					l-0.375,0.649l2.815,1.625l-3.25,5.629l0.449,3.723l-3.25,5.629l-1.491,0.583l-1.21,7.096l2.174-0.766l0.915-0.959l1.417-0.581
					l1.708-2.002l3.515-1.044l3.026-6.081l5.413-2.037l0.188-14.325L57.211,402.33z M10.248,397.034l-1.199-2.424l0.317-1.549
					l-1.482-1.433l-0.732-2.732l-1.391-1.091l-1.015-2.242l-1.842,3.19l-3.415,0.915l0.44,5.739l2.089,4.382l-2.692,5.663
					l2.839,3.083l0.808-0.4l2.433-3.214l4.681,0.393l2.808-3.864l-3.647-2.683L10.248,397.034z"/>
			</g>
		</g>
		<path clip-path="url(#SVGID_14_)" fill="#333333" d="M69.478,415.418l-6.234-0.566l0.513-2.638l0.08-9.056l-0.772,0.465
			l-0.481-1.088l-0.024,13.333l4.168,1.698l-0.656,1.138l-10.219,3.708l-2.938,6.492l-4.04,0.703l-1.443,2.502l-1.66,0.254
			l-0.81,1.051l-4.968,1.783l-3.937-2.272l2.029-10.858l0.494-1.03l1.697-0.84l2.102-3.644l-0.438-3.791l1.883-3.262l-1.816-1.049
			l0.299-1.041l-1.308-1.058l-6.101-1.5l-1.58-6.88l3.521-5.752l8.479-3.498l3.054,1.357l2.767,0.283l3.438,2.086l-1.051,1.818
			l1.735,1.714l0.018,1.021l1.49,1.265l1.338-0.742l5.728,4.419l2.237-2.652l4.451,1.559l0.176,10.013l0.744,0.634l1.435-0.387
			l0.811,2.794L69.478,415.418z M57.756,402.387l-1.49,0.584l-4.69-3.863l-0.239-1.582L48.465,395l0.5-0.866l-1.673-0.1
			l-2.071-0.908L39.6,395.37l-2.002,3.468l0.729,2.733l4.087,0.914l4.601,3.52l-0.25,0.436l2.553,1.474l-3.252,5.634l0.486,3.749
			l-3.72,5.943l-0.935,0.614l-1.307,6.76l2.049-0.554l0.625-1.081l1.709-0.46l1.375-2.385l3.631-0.793l2.945-6.1l5.497-2.027
			l0.198-14.33L57.756,402.387z M15.346,404.791l-3.421,4.7l-4.553-0.506l-1.529,1.947l-4.353,2.645l-1.391-1.611l0.105,2.789
			l-4.056-0.316l-3.276,6.196l1.546,2.916l-2.044-0.842l-1.44-6.935l1.194-2.242l-0.441-1.621l6.132-12.082l-1.663-3.59
			l-0.382-7.395l1.501-2.601l3.146-0.894L2.4,382.45l2.282-0.807l3.212,1.955l0.773,1.458l1.837,1.363l0.874,3.033l2.215,1.582
			l-0.341,3.039l0.634,1.175l1.443,2.047l-0.426,0.564l2.366,1.671l1.536,3.108l-0.776,1.17L15.346,404.791z M9.049,398.823
			l1.343-1.825l-1.321-2.207l0.226-1.891l-1.389-1.094l-0.73-2.73l-1.605-1.216l-0.581-1.492l-0.558-0.032l-1.501,2.6l-3.073,0.826
			l0.219,5.615l2.301,4.508l-2.786,5.324l2.619,2.958l0.899-0.06l2.559-3.434l4.337,0.48l3.026-3.742L9.049,398.823z"/>
	</g>
</g>
<g id="_x38_">
	<path id="earth_7_" fill="#333333" d="M32,504.045c-8.211,0-15.597-3.514-20.719-9.113l1.058-1.819
		c1.665,1.912,3.607,3.579,5.763,4.938l1.001-1.725c-6.004-3.814-10.18-10.208-10.96-17.611c-0.01-0.091-0.019-0.183-0.027-0.272
		C8.047,477.703,8,476.959,8,476.204c0-0.011,0.001-0.022,0.001-0.03c0-0.011-0.001-0.021-0.001-0.031
		c0-13.201,10.745-23.903,24-23.903c3.994,0,7.753,0.984,11.066,2.706l0.959-1.654c-2.209-1.148-4.604-1.994-7.129-2.473L37.952,449
		C50.557,451.713,60,462.859,60,476.204C60,491.58,47.464,504.045,32,504.045z M32,458.213c-9.941,0-18,8.027-18,17.93
		c0,9.901,8.059,17.931,18,17.931c9.941,0,18-8.027,18-17.931C50,466.24,41.941,458.213,32,458.213z M45.762,454.279l-0.967,1.663
		c4.993,3.145,8.73,8.063,10.329,13.878c0.06,0.213,0.112,0.428,0.166,0.642c0.112,0.464,0.219,0.929,0.306,1.401
		c0.09,0.486,0.166,0.978,0.228,1.477c0.028,0.253,0.054,0.506,0.073,0.761c0.058,0.638,0.095,1.278,0.1,1.93
		c0,0.038,0.006,0.073,0.006,0.112c0,0.01-0.001,0.018-0.001,0.023c0,0.014,0.001,0.025,0.001,0.038
		c0,13.18-10.745,23.864-24,23.864c-4.033,0-7.832-0.994-11.168-2.742l-1.001,1.725c3.63,1.918,7.771,3.006,12.169,3.006
		c14.357,0,26-11.572,26-25.853C58,466.953,53.107,458.846,45.762,454.279z M34,508.022h-2.042H30v-3.979h2h2V508.022z M54,512H10
		v-1.988c0,0,10.972-1.987,21.958-1.987c11.015,0,22.042,1.987,22.042,1.987V512z"/>
	<linearGradient id="sea_17_" gradientUnits="userSpaceOnUse" x1="32" y1="494.0996" x2="32" y2="458.0996">
		<stop  offset="0" style="stop-color:#4AB4F7"/>
		<stop  offset="1" style="stop-color:#4AB4F7"/>
	</linearGradient>
	<circle id="sea_5_" opacity="0.76" fill="url(#sea_17_)" cx="32" cy="476.1" r="18"/>
	<g id="map_6_">
		<defs>
			<circle id="SVGID_15_" cx="32" cy="476.1" r="18"/>
		</defs>
		<clipPath id="SVGID_16_">
			<use xlink:href="#SVGID_15_"  overflow="visible"/>
		</clipPath>
		<g opacity="0.76" clip-path="url(#SVGID_16_)">
			<g>
				<path fill-rule="evenodd" clip-rule="evenodd" fill="#80DD1C" d="M59.211,467.455l-1.26,0.071l-4.391-3.433l0.016-1.731
					l-3.107-2.263l0.692-0.966l-2.082-0.125l-2.074-0.909l-5.748,2.455l-2.217,3.339l0.607,2.949l4.647,0.951l4.172,3.275
					l-0.375,0.649l2.815,1.625l-3.25,5.629l0.449,3.723l-3.25,5.629l-1.491,0.583L42.153,496l2.174-0.766l0.915-0.959l1.417-0.581
					l1.708-2.002l3.515-1.044l3.026-6.081l5.413-2.037l0.188-14.325L59.211,467.455z M12.248,462.159l-1.199-2.424l0.317-1.549
					l-1.482-1.433l-0.732-2.732l-1.391-1.091l-1.015-2.242l-1.842,3.19l-3.415,0.915l0.44,5.739l2.089,4.382l-2.692,5.663
					l2.839,3.083l0.808-0.4l2.433-3.214l4.681,0.393l2.808-3.864l-3.647-2.683L12.248,462.159z"/>
			</g>
		</g>
		<path clip-path="url(#SVGID_16_)" fill="#333333" d="M71.209,480.417l-6.234-0.566l0.512-2.638l0.082-9.055l-0.772,0.465
			l-0.481-1.088l-0.025,13.333l4.169,1.698l-0.657,1.138l-10.217,3.708l-2.941,6.492l-4.039,0.703l-1.442,2.501l-1.661,0.255
			l-0.811,1.051l-4.967,1.783l-3.938-2.272l2.031-10.858l0.492-1.03l1.696-0.841l2.105-3.643l-0.439-3.791l1.884-3.262l-1.816-1.049
			l0.299-1.041l-1.309-1.058l-6.101-1.5l-1.58-6.88l3.521-5.752l8.479-3.498l3.054,1.358l2.767,0.282l3.438,2.086l-1.053,1.819
			l1.737,1.712l0.017,1.021l1.491,1.266l1.338-0.743l5.728,4.419l2.237-2.651l4.45,1.559l0.175,10.013l0.746,0.634l1.435-0.387
			l0.811,2.793L71.209,480.417z M59.486,467.387l-1.49,0.584l-4.691-3.863l-0.238-1.582L50.195,460l0.5-0.866l-1.672-0.1
			l-2.071-0.908l-5.621,2.244l-2.002,3.468l0.729,2.733l4.088,0.913l4.6,3.521l-0.251,0.436l2.554,1.474l-3.253,5.634l0.489,3.749
			l-3.721,5.943l-0.934,0.614l-1.307,6.759l2.049-0.553l0.625-1.081l1.708-0.46l1.376-2.385l3.63-0.793l2.946-6.1l5.494-2.027
			l0.199-14.331L59.486,467.387z M17.078,469.791l-3.421,4.7l-4.553-0.507l-1.529,1.948l-4.353,2.646l-1.392-1.611l0.106,2.789
			l-4.056-0.316l-3.276,6.196l1.547,2.916l-2.045-0.842l-1.44-6.935l1.193-2.243l-0.441-1.62l6.132-12.083l-1.663-3.589
			l-0.382-7.396l1.501-2.6l3.147-0.893l1.979-2.901l2.282-0.808l3.212,1.955l0.774,1.459l1.837,1.363l0.874,3.033l2.216,1.582
			l-0.341,3.039l0.634,1.175l1.443,2.047l-0.426,0.564l2.367,1.671l1.536,3.108l-0.776,1.17L17.078,469.791z M10.781,463.823
			l1.342-1.825l-1.321-2.207l0.226-1.891l-1.389-1.095l-0.73-2.729l-1.605-1.216l-0.581-1.492l-0.558-0.032l-1.501,2.6l-3.073,0.826
			l0.219,5.615l2.301,4.508l-2.786,5.324l2.619,2.958l0.9-0.06l2.559-3.435l4.337,0.481l3.026-3.742L10.781,463.823z"/>
	</g>
</g>
<g id="_x39_">
	<path id="earth_8_" fill="#333333" d="M32,568.045c-8.211,0-15.597-3.514-20.719-9.113l1.058-1.819
		c1.665,1.912,3.607,3.579,5.763,4.938l1.001-1.725c-6.004-3.813-10.18-10.208-10.96-17.611c-0.01-0.091-0.019-0.183-0.027-0.273
		C8.047,541.703,8,540.959,8,540.204c0-0.011,0.001-0.021,0.001-0.03c0-0.011-0.001-0.021-0.001-0.031
		c0-13.203,10.745-23.903,24-23.903c3.994,0,7.753,0.984,11.066,2.706l0.959-1.654c-2.209-1.148-4.604-1.994-7.129-2.474L37.952,513
		C50.557,515.713,60,526.859,60,540.204C60,555.58,47.464,568.045,32,568.045z M32,522.213c-9.941,0-18,8.027-18,17.93
		c0,9.901,8.059,17.931,18,17.931c9.941,0,18-8.027,18-17.931C50,530.24,41.941,522.213,32,522.213z M45.762,518.279l-0.967,1.663
		c4.993,3.146,8.73,8.063,10.329,13.878c0.06,0.213,0.112,0.428,0.166,0.642c0.112,0.464,0.219,0.929,0.306,1.401
		c0.09,0.486,0.166,0.979,0.228,1.477c0.028,0.253,0.054,0.506,0.073,0.761c0.058,0.638,0.095,1.278,0.1,1.93
		c0,0.038,0.006,0.073,0.006,0.112c0,0.01-0.001,0.018-0.001,0.023c0,0.014,0.001,0.025,0.001,0.038
		c0,13.18-10.745,23.864-24,23.864c-4.033,0-7.832-0.994-11.168-2.742l-1.001,1.725c3.63,1.918,7.771,3.006,12.169,3.006
		c14.357,0,26-11.572,26-25.852C58,530.953,53.107,522.846,45.762,518.279z M34,572.021h-2.042H30v-3.978h2h2V572.021z M54,576H10
		v-1.988c0,0,10.972-1.987,21.958-1.987c11.015,0,22.042,1.987,22.042,1.987V576z"/>
	<linearGradient id="sea_18_" gradientUnits="userSpaceOnUse" x1="32" y1="558.0996" x2="32" y2="522.0996">
		<stop  offset="0" style="stop-color:#4AB4F7"/>
		<stop  offset="1" style="stop-color:#4AB4F7"/>
	</linearGradient>
	<circle id="sea_4_" opacity="0.84" fill="url(#sea_18_)" cx="32" cy="540.1" r="18"/>
	<g id="map_5_">
		<defs>
			<circle id="SVGID_17_" cx="32" cy="540.1" r="18"/>
		</defs>
		<clipPath id="SVGID_18_">
			<use xlink:href="#SVGID_17_"  overflow="visible"/>
		</clipPath>
		<g opacity="0.84" clip-path="url(#SVGID_18_)">
			<g>
				<path fill-rule="evenodd" clip-rule="evenodd" fill="#80DD1C" d="M61.177,532.292l-1.26,0.071l-4.391-3.433l0.016-1.731
					l-3.107-2.263l0.692-0.966l-2.083-0.125l-2.073-0.909l-5.748,2.455l-2.216,3.339l0.607,2.949l4.647,0.951l4.172,3.274
					l-0.375,0.65l2.815,1.625l-3.25,5.629l0.448,3.723l-3.25,5.629l-1.491,0.582l-1.21,7.096l2.174-0.766l0.915-0.959l1.417-0.581
					l1.708-2.003l3.515-1.044l3.026-6.081l5.413-2.037l0.188-14.325L61.177,532.292z M14.213,526.996l-1.199-2.424l0.317-1.549
					l-1.482-1.433l-0.732-2.732l-1.391-1.092l-1.015-2.242l-1.842,3.19l-3.415,0.915l0.44,5.739l2.089,4.382l-2.692,5.663
					l2.839,3.083l0.808-0.4l2.433-3.214l4.681,0.393l2.808-3.864l-3.647-2.683L14.213,526.996z"/>
			</g>
		</g>
		<path clip-path="url(#SVGID_18_)" fill="#333333" d="M72.941,545.417l-6.234-0.566l0.512-2.638l0.08-9.055l-0.773,0.465
			l-0.48-1.088l-0.023,13.333l4.168,1.698l-0.656,1.138l-10.217,3.708l-2.941,6.492l-4.039,0.703l-1.445,2.501l-1.66,0.255
			l-0.809,1.051l-4.967,1.783l-3.938-2.273l2.029-10.858l0.492-1.031l1.695-0.84l2.104-3.643l-0.439-3.791l1.885-3.262l-1.816-1.049
			l0.299-1.041l-1.309-1.058l-6.102-1.5l-1.58-6.88l3.521-5.752l8.48-3.498l3.052,1.358l2.767,0.282l3.438,2.086l-1.052,1.818
			l1.738,1.711L58.738,527l1.492,1.266l1.336-0.744l5.73,4.419l2.237-2.65l4.449,1.559l0.177,10.013l0.743,0.633l1.437-0.387
			l0.812,2.794L72.941,545.417z M61.219,532.387l-1.49,0.584l-4.689-3.863l-0.239-1.582L51.93,525l0.5-0.866l-1.674-0.1l-2.07-0.908
			l-5.621,2.244l-2.002,3.468l0.73,2.732l4.087,0.914l4.602,3.521l-0.25,0.436l2.554,1.475l-3.253,5.634l0.488,3.749l-3.722,5.942
			l-0.933,0.616l-1.307,6.758l2.049-0.552l0.625-1.081l1.707-0.46l1.377-2.386l3.629-0.793l2.945-6.1l5.498-2.027l0.196-14.331
			L61.219,532.387z M18.81,534.791l-3.421,4.7l-4.553-0.507l-1.529,1.948l-4.353,2.646l-1.391-1.611l0.105,2.789l-4.056-0.318
			l-3.276,6.198l1.547,2.916l-2.045-0.843l-1.44-6.934l1.194-2.243l-0.442-1.62l6.132-12.083l-1.663-3.589l-0.382-7.395l1.501-2.6
			l3.147-0.894l1.979-2.901l2.282-0.808l3.212,1.955l0.773,1.459l1.837,1.363l0.874,3.033l2.216,1.582l-0.341,3.039l0.634,1.175
			l1.443,2.046l-0.426,0.563l2.367,1.671l1.536,3.108l-0.776,1.17L18.81,534.791z M12.513,528.823l1.342-1.825l-1.321-2.207
			l0.226-1.892l-1.389-1.094l-0.73-2.729l-1.605-1.216l-0.581-1.492l-0.558-0.032l-1.501,2.6l-3.073,0.826l0.219,5.615l2.301,4.508
			l-2.785,5.324l2.619,2.958l0.899-0.06l2.559-3.436l4.337,0.481l3.026-3.742L12.513,528.823z"/>
	</g>
</g>
<g id="_x31_0">
	<path id="earth_9_" fill="#333333" d="M32,632.045c-8.211,0-15.597-3.514-20.719-9.113l1.058-1.819
		c1.665,1.912,3.607,3.579,5.763,4.938l1.001-1.725c-6.004-3.813-10.18-10.208-10.96-17.611c-0.01-0.091-0.019-0.183-0.027-0.273
		C8.047,605.703,8,604.959,8,604.204c0-0.011,0.001-0.021,0.001-0.03c0-0.011-0.001-0.021-0.001-0.031
		c0-13.203,10.745-23.903,24-23.903c3.994,0,7.753,0.984,11.066,2.706l0.959-1.654c-2.209-1.148-4.604-1.994-7.129-2.474L37.952,577
		C50.557,579.713,60,590.859,60,604.204C60,619.58,47.464,632.045,32,632.045z M32,586.213c-9.941,0-18,8.027-18,17.93
		c0,9.901,8.059,17.931,18,17.931c9.941,0,18-8.027,18-17.931C50,594.24,41.941,586.213,32,586.213z M45.762,582.279l-0.967,1.663
		c4.993,3.146,8.73,8.063,10.329,13.878c0.06,0.213,0.112,0.428,0.166,0.642c0.112,0.464,0.219,0.929,0.306,1.401
		c0.09,0.486,0.166,0.979,0.228,1.477c0.028,0.253,0.054,0.506,0.073,0.761c0.058,0.638,0.095,1.278,0.1,1.93
		c0,0.038,0.006,0.073,0.006,0.112c0,0.01-0.001,0.018-0.001,0.023c0,0.014,0.001,0.025,0.001,0.038
		c0,13.18-10.745,23.864-24,23.864c-4.033,0-7.832-0.994-11.168-2.742l-1.001,1.725c3.63,1.918,7.771,3.006,12.169,3.006
		c14.357,0,26-11.572,26-25.852C58,594.953,53.107,586.846,45.762,582.279z M34,636.021h-2.042H30v-3.978h2h2V636.021z M54,640H10
		v-1.988c0,0,10.972-1.987,21.958-1.987c11.015,0,22.042,1.987,22.042,1.987V640z"/>
	<linearGradient id="sea_19_" gradientUnits="userSpaceOnUse" x1="32" y1="622.0996" x2="32" y2="586.0996">
		<stop  offset="0" style="stop-color:#4AB4F7"/>
		<stop  offset="1" style="stop-color:#4AB4F7"/>
	</linearGradient>
	<circle id="sea_3_" opacity="0.9" fill="url(#sea_19_)" cx="32" cy="604.1" r="18"/>
	<g id="map_4_">
		<defs>
			<circle id="SVGID_19_" cx="32" cy="604.1" r="18"/>
		</defs>
		<clipPath id="SVGID_20_">
			<use xlink:href="#SVGID_19_"  overflow="visible"/>
		</clipPath>
		<g opacity="0.9" clip-path="url(#SVGID_20_)">
			<g>
				<path fill-rule="evenodd" clip-rule="evenodd" fill="#80DD1C" d="M62.701,597.205l-1.26,0.071l-4.391-3.433l0.016-1.731
					l-3.107-2.263l0.692-0.966l-2.082-0.125l-2.073-0.909l-5.748,2.455l-2.216,3.339l0.607,2.949l4.647,0.951l4.172,3.274
					l-0.375,0.65l2.815,1.625l-3.25,5.629l0.448,3.723l-3.25,5.629l-1.491,0.583l-1.21,7.096l2.174-0.766l0.915-0.959l1.417-0.581
					l1.708-2.002l3.515-1.044l3.026-6.081l5.413-2.037L64,597.955L62.701,597.205z M15.737,591.909l-1.199-2.424l0.317-1.549
					l-1.482-1.433l-0.732-2.732l-1.391-1.091l-1.015-2.242l-1.842,3.19l-3.415,0.915l0.44,5.739l2.089,4.382l-2.692,5.663
					l2.839,3.083l0.808-0.4l2.433-3.214l4.681,0.393l2.808-3.864l-3.647-2.683L15.737,591.909z"/>
			</g>
		</g>
		<path clip-path="url(#SVGID_20_)" fill="#333333" d="M74.674,610.418l-6.234-0.566l0.514-2.638l0.08-9.055l-0.773,0.465
			l-0.48-1.088l-0.025,13.332l4.168,1.699l-0.656,1.137l-10.218,3.709l-2.941,6.492l-4.039,0.702l-1.443,2.502l-1.661,0.254
			l-0.81,1.052l-4.967,1.783l-3.937-2.273l2.029-10.857l0.494-1.031l1.695-0.84l2.104-3.643l-0.438-3.791l1.885-3.262l-1.817-1.049
			l0.299-1.041l-1.308-1.058l-6.102-1.5l-1.581-6.88l3.522-5.752l8.479-3.498l3.051,1.358l2.769,0.283l3.438,2.086l-1.052,1.819
			l1.737,1.712l0.018,1.021l1.49,1.265l1.337-0.742l5.729,4.419l2.236-2.651l4.45,1.56l0.177,10.011l0.746,0.634l1.434-0.386
			l0.811,2.793L74.674,610.418z M62.951,597.388l-1.49,0.583l-4.691-3.862l-0.24-1.583L53.661,590l0.5-0.865l-1.675-0.1l-2.07-0.908
			l-5.621,2.244l-2.002,3.467l0.728,2.733l4.086,0.914l4.603,3.521l-0.251,0.435l2.555,1.475l-3.254,5.633l0.488,3.75l-3.721,5.942
			l-0.933,0.616l-1.306,6.758l2.05-0.551l0.625-1.082l1.707-0.461l1.376-2.385l3.63-0.793l2.946-6.1l5.497-2.027l0.197-14.331
			L62.951,597.388z M20.542,599.791l-3.421,4.701l-4.553-0.507l-1.529,1.948l-4.353,2.646l-1.391-1.612l0.105,2.79l-4.056-0.317
			l-3.276,6.197l1.546,2.915l-2.045-0.842l-1.44-6.934l1.194-2.243l-0.442-1.62l6.133-12.083l-1.664-3.589l-0.382-7.396l1.501-2.601
			l3.147-0.892l1.979-2.903l2.282-0.806l3.212,1.954l0.773,1.458l1.837,1.364l0.874,3.033l2.215,1.582l-0.341,3.039l0.634,1.175
			l1.443,2.046l-0.426,0.563l2.366,1.671l1.536,3.11l-0.777,1.172L20.542,599.791z M14.245,593.824l1.342-1.825l-1.321-2.208
			l0.227-1.891l-1.389-1.094l-0.73-2.729l-1.605-1.217l-0.581-1.492l-0.558-0.032l-1.501,2.602l-3.073,0.825l0.219,5.615
			l2.301,4.508L4.79,600.21l2.619,2.957l0.899-0.059l2.559-3.435l4.337,0.48l3.026-3.741L14.245,593.824z"/>
	</g>
</g>
<g id="_x31_1">
	<path id="earth_10_" fill="#333333" d="M32,696.045c-8.211,0-15.597-3.514-20.719-9.113l1.058-1.819
		c1.665,1.912,3.607,3.579,5.763,4.938l1.001-1.725c-6.004-3.813-10.18-10.208-10.96-17.611c-0.01-0.091-0.019-0.183-0.027-0.273
		C8.047,669.703,8,668.959,8,668.204c0-0.011,0.001-0.021,0.001-0.03c0-0.011-0.001-0.021-0.001-0.031
		c0-13.203,10.745-23.903,24-23.903c3.994,0,7.753,0.984,11.066,2.706l0.959-1.654c-2.209-1.148-4.604-1.994-7.129-2.474L37.952,641
		C50.557,643.713,60,654.859,60,668.204C60,683.58,47.464,696.045,32,696.045z M32,650.213c-9.941,0-18,8.027-18,17.93
		c0,9.901,8.059,17.931,18,17.931c9.941,0,18-8.027,18-17.931C50,658.24,41.941,650.213,32,650.213z M45.762,646.279l-0.967,1.663
		c4.993,3.146,8.73,8.063,10.329,13.878c0.06,0.213,0.112,0.428,0.166,0.642c0.112,0.464,0.219,0.929,0.306,1.401
		c0.09,0.486,0.166,0.979,0.228,1.477c0.028,0.253,0.054,0.506,0.073,0.761c0.058,0.638,0.095,1.278,0.1,1.93
		c0,0.038,0.006,0.073,0.006,0.112c0,0.01-0.001,0.018-0.001,0.023c0,0.014,0.001,0.025,0.001,0.038
		c0,13.18-10.745,23.864-24,23.864c-4.033,0-7.832-0.994-11.168-2.742l-1.001,1.725c3.63,1.918,7.771,3.006,12.169,3.006
		c14.357,0,26-11.572,26-25.852C58,658.953,53.107,650.846,45.762,646.279z M34,700.021h-2.042H30v-3.978h2h2V700.021z M54,704H10
		v-1.988c0,0,10.972-1.987,21.958-1.987c11.015,0,22.042,1.987,22.042,1.987V704z"/>
	<linearGradient id="sea_20_" gradientUnits="userSpaceOnUse" x1="32" y1="686.0996" x2="32" y2="650.0996">
		<stop  offset="0" style="stop-color:#4AB4F7"/>
		<stop  offset="1" style="stop-color:#4AB4F7"/>
	</linearGradient>
	<circle id="sea_1_" opacity="0.96" fill="url(#sea_20_)" cx="32" cy="668.1" r="18"/>
	<g id="map_3_">
		<defs>
			<circle id="SVGID_21_" cx="32" cy="668.1" r="18"/>
		</defs>
		<clipPath id="SVGID_22_">
			<use xlink:href="#SVGID_21_"  overflow="visible"/>
		</clipPath>
		<g opacity="0.96" clip-path="url(#SVGID_22_)">
			<g>
				<path fill-rule="evenodd" clip-rule="evenodd" fill="#80DD1C" d="M64.677,662.21l-1.26,0.071l-4.391-3.433l0.016-1.731
					l-3.107-2.263l0.692-0.966l-2.083-0.125l-2.073-0.909l-5.748,2.455l-2.216,3.339l0.607,2.949l4.647,0.951l4.172,3.275
					l-0.375,0.65l2.815,1.625l-3.25,5.629l0.448,3.723l-3.25,5.629l-1.491,0.583l-1.21,7.096l2.174-0.766l0.915-0.959l1.417-0.581
					l1.708-2.003l3.515-1.044l3.026-6.081l5.413-2.037l0.188-14.325L64.677,662.21z M17.713,656.915l-1.199-2.424l0.317-1.549
					l-1.482-1.433l-0.732-2.732l-1.391-1.091l-1.015-2.242l-1.842,3.19l-3.415,0.915l0.44,5.739l2.089,4.382l-2.692,5.663
					l2.839,3.083l0.808-0.4l2.433-3.214l4.681,0.393l2.808-3.864l-3.647-2.683L17.713,656.915z"/>
			</g>
		</g>
		<path clip-path="url(#SVGID_22_)" fill="#333333" d="M76.406,675.417l-6.235-0.566l0.513-2.637l0.08-9.055l-0.771,0.465
			l-0.482-1.088l-0.023,13.332l4.168,1.699l-0.656,1.137l-10.219,3.709l-2.94,6.492l-4.041,0.702l-1.443,2.501l-1.662,0.255
			l-0.809,1.051l-4.966,1.784l-3.937-2.273l2.027-10.858l0.494-1.03l1.697-0.84l2.102-3.643l-0.436-3.791l1.883-3.262l-1.816-1.049
			l0.299-1.041l-1.309-1.059l-6.1-1.499l-1.582-6.879l3.521-5.752l8.479-3.498l3.052,1.358l2.766,0.281l3.44,2.087l-1.051,1.819
			l1.736,1.711l0.018,1.021l1.49,1.266l1.338-0.744l5.727,4.418l2.238-2.648l4.451,1.559l0.176,10.011l0.744,0.635l1.434-0.388
			l0.811,2.794L76.406,675.417z M64.684,662.387l-1.49,0.584l-4.689-3.862l-0.238-1.583L55.394,655l0.5-0.865l-1.674-0.1
			l-2.072-0.908l-5.621,2.244l-2.002,3.467l0.729,2.733l4.086,0.913l4.601,3.522l-0.25,0.435l2.554,1.475l-3.252,5.633l0.487,3.75
			l-3.719,5.942l-0.935,0.616l-1.306,6.758l2.049-0.551l0.625-1.084l1.707-0.46l1.377-2.384l3.63-0.793l2.944-6.101l5.498-2.026
			l0.196-14.332L64.684,662.387z M22.273,664.791l-3.421,4.701l-4.553-0.507l-1.529,1.947l-4.353,2.646l-1.391-1.612l0.105,2.79
			l-4.056-0.317l-3.276,6.197l1.546,2.915l-2.044-0.842l-1.44-6.934l1.194-2.243l-0.441-1.62l6.132-12.084l-1.663-3.588
			l-0.382-7.396l1.501-2.6l3.146-0.892l1.979-2.903l2.282-0.806l3.212,1.954l0.773,1.458l1.837,1.364l0.874,3.032l2.215,1.583
			l-0.341,3.039l0.635,1.175l1.443,2.046l-0.426,0.563l2.366,1.67l1.536,3.108l-0.776,1.17L22.273,664.791z M15.977,658.824
			l1.343-1.825l-1.321-2.208l0.226-1.891l-1.389-1.094l-0.73-2.73L12.5,647.86l-0.581-1.492l-0.558-0.032l-1.501,2.6l-3.073,0.827
			l0.219,5.615l2.301,4.508l-2.786,5.324l2.619,2.957l0.899-0.06l2.559-3.435l4.337,0.48l3.026-3.742L15.977,658.824z"/>
	</g>
</g>
<g id="_x31_2">
	<path id="earth_11_" fill="#333333" d="M32,760.045c-8.211,0-15.597-3.514-20.719-9.113l1.058-1.819
		c1.665,1.912,3.607,3.579,5.763,4.938l1.001-1.725c-6.004-3.813-10.18-10.208-10.96-17.611c-0.01-0.091-0.019-0.183-0.027-0.273
		C8.047,733.703,8,732.959,8,732.204c0-0.011,0.001-0.021,0.001-0.03c0-0.011-0.001-0.021-0.001-0.031
		c0-13.203,10.745-23.903,24-23.903c3.994,0,7.753,0.984,11.066,2.706l0.959-1.654c-2.209-1.148-4.604-1.994-7.129-2.474L37.952,705
		C50.557,707.713,60,718.859,60,732.204C60,747.58,47.464,760.045,32,760.045z M32,714.213c-9.941,0-18,8.027-18,17.93
		c0,9.901,8.059,17.931,18,17.931c9.941,0,18-8.027,18-17.931C50,722.24,41.941,714.213,32,714.213z M45.762,710.279l-0.967,1.663
		c4.993,3.146,8.73,8.063,10.329,13.878c0.06,0.213,0.112,0.428,0.166,0.642c0.112,0.464,0.219,0.929,0.306,1.401
		c0.09,0.486,0.166,0.979,0.228,1.477c0.028,0.253,0.054,0.506,0.073,0.761c0.058,0.638,0.095,1.278,0.1,1.93
		c0,0.038,0.006,0.073,0.006,0.112c0,0.01-0.001,0.018-0.001,0.023c0,0.014,0.001,0.025,0.001,0.038
		c0,13.18-10.745,23.864-24,23.864c-4.033,0-7.832-0.994-11.168-2.742l-1.001,1.725c3.63,1.918,7.771,3.006,12.169,3.006
		c14.357,0,26-11.572,26-25.852C58,722.953,53.107,714.846,45.762,710.279z M34,764.021h-2.042H30v-3.978h2h2V764.021z M54,768H10
		v-1.988c0,0,10.972-1.987,21.958-1.987c11.015,0,22.042,1.987,22.042,1.987V768z"/>
	<linearGradient id="sea_21_" gradientUnits="userSpaceOnUse" x1="32" y1="750.0996" x2="32" y2="714.0996">
		<stop  offset="0" style="stop-color:#4AB4F7"/>
		<stop  offset="1" style="stop-color:#4AB4F7"/>
	</linearGradient>
	<circle id="sea" fill="url(#sea_21_)" cx="32" cy="732.1" r="18"/>
	<g id="map_2_">
		<defs>
			<circle id="SVGID_23_" cx="32" cy="732.1" r="18"/>
		</defs>
		<clipPath id="SVGID_24_">
			<use xlink:href="#SVGID_23_"  overflow="visible"/>
		</clipPath>
		<g clip-path="url(#SVGID_24_)">
			<g>
				<path fill-rule="evenodd" clip-rule="evenodd" fill="#80DD1C" d="M66.302,727.304l-1.26,0.071l-4.391-3.433l0.016-1.731
					l-3.107-2.263l0.692-0.966l-2.083-0.125l-2.073-0.909l-5.748,2.455l-2.216,3.339l0.607,2.949l4.647,0.951l4.172,3.274
					l-0.375,0.649l2.815,1.625l-3.25,5.629l0.448,3.723l-3.25,5.629l-1.491,0.582l-1.21,7.096l2.174-0.766l0.915-0.959l1.417-0.581
					l1.708-2.002l3.515-1.044L62,744.417l5.413-2.037l0.188-14.325L66.302,727.304z M19.338,722.009l-1.199-2.424l0.317-1.549
					l-1.482-1.433l-0.732-2.732l-1.391-1.091l-1.015-2.242l-1.842,3.19l-3.415,0.915l0.44,5.739l2.089,4.382l-2.692,5.663
					l2.839,3.083l0.808-0.399l2.433-3.214l4.681,0.393l2.808-3.864l-3.647-2.683L19.338,722.009z"/>
			</g>
		</g>
		<path clip-path="url(#SVGID_24_)" fill="#333333" d="M78.139,740.417l-6.236-0.566l0.515-2.637l0.081-9.055l-0.771,0.465
			l-0.483-1.088l-0.025,13.332l4.169,1.699l-0.656,1.137l-10.219,3.709l-2.938,6.492l-4.041,0.702l-1.442,2.501l-1.662,0.255
			l-0.809,1.051l-4.969,1.784l-3.936-2.273l2.03-10.858l0.494-1.03l1.697-0.84l2.102-3.643l-0.435-3.791l1.883-3.262l-1.818-1.049
			l0.299-1.041l-1.308-1.059l-6.1-1.5l-1.58-6.879l3.521-5.751l8.479-3.498l3.053,1.358l2.767,0.282l3.438,2.087l-1.051,1.818
			l1.735,1.711l0.019,1.021l1.489,1.266l1.339-0.744l5.728,4.418l2.237-2.648l4.451,1.558l0.174,10.012l0.746,0.634l1.435-0.387
			l0.812,2.794L78.139,740.417z M66.416,727.387l-1.491,0.584l-4.69-3.862l-0.238-1.583L57.125,720l0.5-0.865l-1.673-0.101
			l-2.072-0.907l-5.621,2.244l-2.002,3.467l0.729,2.733l4.087,0.913l4.6,3.522l-0.25,0.435l2.554,1.475l-3.252,5.633l0.487,3.75
			l-3.719,5.942l-0.935,0.616l-1.308,6.758l2.05-0.551l0.625-1.084l1.708-0.46l1.375-2.384l3.632-0.793l2.944-6.101l5.497-2.026
			l0.197-14.332L66.416,727.387z M24.006,729.791l-3.421,4.7l-4.553-0.506l-1.529,1.947l-4.353,2.646l-1.392-1.612l0.106,2.79
			l-4.056-0.316l-3.276,6.195l1.547,2.916l-2.045-0.842l-1.44-6.935l1.194-2.242l-0.441-1.62l6.132-12.084l-1.663-3.588
			l-0.382-7.396l1.501-2.6l3.147-0.892l1.979-2.903l2.282-0.806l3.212,1.955l0.773,1.457l1.837,1.364l0.874,3.032l2.216,1.583
			l-0.341,3.039l0.634,1.175l1.443,2.046l-0.426,0.563l2.367,1.671l1.536,3.109l-0.776,1.17L24.006,729.791z M17.709,723.824
			l1.342-1.825l-1.321-2.208l0.226-1.893l-1.389-1.092l-0.73-2.73l-1.605-1.216l-0.581-1.492l-0.558-0.032l-1.501,2.6l-3.073,0.826
			l0.219,5.616l2.301,4.508l-2.786,5.324l2.619,2.957l0.9-0.061l2.559-3.433l4.337,0.479l3.026-3.741L17.709,723.824z"/>
	</g>
</g>
</svg>
