<?xml version="1.0" encoding="utf-8"?>
<!-- Generator: Adobe Illustrator 21.0.2, SVG Export Plug-In . SVG Version: 6.00 Build 0)  -->
<!DOCTYPE svg PUBLIC "-//W3C//DTD SVG 1.1//EN" "http://www.w3.org/Graphics/SVG/1.1/DTD/svg11.dtd">
<svg version="1.1" id="category-food" xmlns="http://www.w3.org/2000/svg" xmlns:xlink="http://www.w3.org/1999/xlink" x="0px" y="0px"
	 width="64px" height="768px" viewBox="0 0 64 768" style="enable-background:new 0 0 64 768;" xml:space="preserve">
<style type="text/css">
	.st0{opacity:0.15;fill-rule:evenodd;clip-rule:evenodd;fill:url(#knife_11_);}
	.st1{opacity:0.15;fill-rule:evenodd;clip-rule:evenodd;fill:url(#fork_11_);}
	.st2{opacity:0.3;fill-rule:evenodd;clip-rule:evenodd;fill:url(#knife_12_);}
	.st3{opacity:0.3;fill-rule:evenodd;clip-rule:evenodd;fill:url(#fork_12_);}
	.st4{opacity:0.45;fill-rule:evenodd;clip-rule:evenodd;fill:url(#knife_13_);}
	.st5{opacity:0.45;fill-rule:evenodd;clip-rule:evenodd;fill:url(#fork_13_);}
	.st6{opacity:0.55;fill-rule:evenodd;clip-rule:evenodd;fill:url(#knife_14_);}
	.st7{opacity:0.55;fill-rule:evenodd;clip-rule:evenodd;fill:url(#fork_14_);}
	.st8{opacity:0.65;fill-rule:evenodd;clip-rule:evenodd;fill:url(#knife_15_);}
	.st9{opacity:0.65;fill-rule:evenodd;clip-rule:evenodd;fill:url(#fork_15_);}
	.st10{opacity:0.75;fill-rule:evenodd;clip-rule:evenodd;fill:url(#knife_16_);}
	.st11{opacity:0.75;fill-rule:evenodd;clip-rule:evenodd;fill:url(#fork_16_);}
	.st12{opacity:0.8;fill-rule:evenodd;clip-rule:evenodd;fill:url(#knife_17_);}
	.st13{opacity:0.8;fill-rule:evenodd;clip-rule:evenodd;fill:url(#fork_17_);}
	.st14{opacity:0.9;fill-rule:evenodd;clip-rule:evenodd;fill:url(#fork_18_);}
	.st15{opacity:0.9;fill-rule:evenodd;clip-rule:evenodd;fill:url(#knife_18_);}
	.st16{opacity:0.95;fill-rule:evenodd;clip-rule:evenodd;fill:url(#fork_19_);}
	.st17{opacity:0.95;fill-rule:evenodd;clip-rule:evenodd;fill:url(#knife_19_);}
	.st18{fill-rule:evenodd;clip-rule:evenodd;fill:url(#fork_20_);}
	.st19{fill-rule:evenodd;clip-rule:evenodd;fill:url(#knife_20_);}
	.st20{fill-rule:evenodd;clip-rule:evenodd;fill:url(#fork_21_);}
	.st21{fill-rule:evenodd;clip-rule:evenodd;fill:url(#knife_21_);}
	.st22{fill:#333333;}
</style>
<g id="c2">
	<linearGradient id="knife_11_" gradientUnits="userSpaceOnUse" x1="41.002" y1="122.0137" x2="41.002" y2="75.2">
		<stop  offset="0" style="stop-color:#79C8E2"/>
		<stop  offset="1" style="stop-color:#D0EFF9"/>
	</linearGradient>
	<path id="knife" class="st0" d="M45,122c-0.6,0-1-0.4-1-1v-19h-8V89.9c0-6.7,4.1-12.3,10-14.7v14.7V121C46,121.6,45.6,122,45,122z"
		/>
	<linearGradient id="fork_11_" gradientUnits="userSpaceOnUse" x1="23" y1="122.002" x2="23" y2="96.002">
		<stop  offset="0" style="stop-color:#79C8E2"/>
		<stop  offset="1" style="stop-color:#D0EFF9"/>
	</linearGradient>
	<path id="fork_10_" class="st1" d="M24,96v25c0,0.6-0.4,1-1,1s-1-0.4-1-1V96H24z"/>
</g>
<g id="c3">
	<linearGradient id="knife_12_" gradientUnits="userSpaceOnUse" x1="32.002" y1="186.0137" x2="32.002" y2="139.2">
		<stop  offset="0" style="stop-color:#79C8E2"/>
		<stop  offset="1" style="stop-color:#D0EFF9"/>
	</linearGradient>
	<path id="knife_1_" class="st2" d="M36,186c-0.6,0-1-0.4-1-1v-19h-8v-12.1c0-6.7,4.1-12.3,10-14.7v14.7V185
		C37,185.6,36.6,186,36,186z"/>
	<linearGradient id="fork_12_" gradientUnits="userSpaceOnUse" x1="32" y1="186.002" x2="32" y2="160.002">
		<stop  offset="0" style="stop-color:#79C8E2"/>
		<stop  offset="1" style="stop-color:#D0EFF9"/>
	</linearGradient>
	<path id="fork" class="st3" d="M33,160v25c0,0.6-0.4,1-1,1s-1-0.4-1-1v-25H33z"/>
</g>
<g id="c4">
	
		<linearGradient id="knife_13_" gradientUnits="userSpaceOnUse" x1="32.1159" y1="250.1521" x2="32.1159" y2="203.3384" gradientTransform="matrix(0.9659 -0.2588 0.2588 0.9659 -57.5597 16.0042)">
		<stop  offset="0" style="stop-color:#79C8E2"/>
		<stop  offset="1" style="stop-color:#D0EFF9"/>
	</linearGradient>
	<path id="knife_2_" class="st4" d="M42.1,248.3c-0.5,0.1-1.1-0.2-1.2-0.7l-4.9-18.3l-7.7,2.1l-3.1-11.7c-1.7-6.5,0.8-13,5.9-16.8
		l3.8,14.2l8.1,30C42.9,247.6,42.6,248.1,42.1,248.3z"/>
	
		<linearGradient id="fork_13_" gradientUnits="userSpaceOnUse" x1="29.0321" y1="250.5168" x2="29.0321" y2="224.5168" gradientTransform="matrix(0.9659 0.2588 -0.2588 0.9659 62.431 -0.2066)">
		<stop  offset="0" style="stop-color:#79C8E2"/>
		<stop  offset="1" style="stop-color:#D0EFF9"/>
	</linearGradient>
	<path id="fork_1_" class="st5" d="M33.3,224.4l-6.5,24.1c-0.1,0.5-0.7,0.9-1.2,0.7c-0.5-0.1-0.9-0.7-0.7-1.2l6.5-24.1L33.3,224.4z"
		/>
</g>
<g id="c5">
	
		<linearGradient id="knife_14_" gradientUnits="userSpaceOnUse" x1="15.8313" y1="312.0356" x2="15.8313" y2="265.2219" gradientTransform="matrix(0.866 -0.5 0.5 0.866 -125.2537 48.9359)">
		<stop  offset="0" style="stop-color:#79C8E2"/>
		<stop  offset="1" style="stop-color:#D0EFF9"/>
	</linearGradient>
	<path id="knife_3_" class="st6" d="M47.9,309.3c-0.5,0.3-1.1,0.1-1.4-0.4l-9.5-16.5l-6.9,4l-6.1-10.5c-3.4-5.8-2.6-12.7,1.3-17.7
		l7.4,12.7l15.6,26.9C48.6,308.4,48.4,309,47.9,309.3z"/>
	
		<linearGradient id="fork_14_" gradientUnits="userSpaceOnUse" x1="42.2622" y1="312.1442" x2="42.2622" y2="286.1442" gradientTransform="matrix(0.866 0.5 -0.5 0.866 139.155 18.6673)">
		<stop  offset="0" style="stop-color:#79C8E2"/>
		<stop  offset="1" style="stop-color:#D0EFF9"/>
	</linearGradient>
	<path id="fork_2_" class="st7" d="M33.5,288.1L21,309.8c-0.3,0.5-0.9,0.6-1.4,0.4s-0.6-0.9-0.4-1.4l12.5-21.7L33.5,288.1z"/>
</g>
<g id="c6">
	
		<linearGradient id="knife_15_" gradientUnits="userSpaceOnUse" x1="-15.9035" y1="367.7264" x2="-15.9035" y2="320.9126" gradientTransform="matrix(0.7071 -0.7071 0.7071 0.7071 -198.4314 100.8186)">
		<stop  offset="0" style="stop-color:#79C8E2"/>
		<stop  offset="1" style="stop-color:#D0EFF9"/>
	</linearGradient>
	<path id="knife_4_" class="st8" d="M53.2,369.3c-0.4,0.4-1,0.4-1.4,0l-13.4-13.4l-5.7,5.7l-8.6-8.6c-4.8-4.8-5.8-11.6-3.3-17.5
		l10.4,10.4l22,22C53.6,368.2,53.6,368.9,53.2,369.3z"/>
	
		<linearGradient id="fork_15_" gradientUnits="userSpaceOnUse" x1="70.6383" y1="367.6582" x2="70.6383" y2="341.6582" gradientTransform="matrix(0.7071 0.7071 -0.7071 0.7071 224.3494 59.5813)">
		<stop  offset="0" style="stop-color:#79C8E2"/>
		<stop  offset="1" style="stop-color:#D0EFF9"/>
	</linearGradient>
	<path id="fork_3_" class="st9" d="M33.4,351.8l-17.7,17.7c-0.4,0.4-1,0.4-1.4,0s-0.4-1,0-1.4L32,350.4L33.4,351.8z"/>
</g>
<g id="c7">
	
		<linearGradient id="knife_16_" gradientUnits="userSpaceOnUse" x1="-48.1687" y1="422.8868" x2="-48.1687" y2="376.0731" gradientTransform="matrix(0.866 -0.5 0.5 0.866 -125.2537 48.9359)">
		<stop  offset="0" style="stop-color:#79C8E2"/>
		<stop  offset="1" style="stop-color:#D0EFF9"/>
	</linearGradient>
	<path id="knife_5_" class="st10" d="M47.9,437.3c-0.5,0.3-1.1,0.1-1.4-0.4l-9.5-16.5l-6.9,4l-6.1-10.5c-3.4-5.8-2.6-12.7,1.3-17.7
		l7.4,12.7l15.6,26.9C48.6,436.4,48.4,437,47.9,437.3z"/>
	
		<linearGradient id="fork_16_" gradientUnits="userSpaceOnUse" x1="106.2622" y1="422.9955" x2="106.2622" y2="396.9955" gradientTransform="matrix(0.866 0.5 -0.5 0.866 139.155 18.6673)">
		<stop  offset="0" style="stop-color:#79C8E2"/>
		<stop  offset="1" style="stop-color:#D0EFF9"/>
	</linearGradient>
	<path id="fork_4_" class="st11" d="M33.5,416.1L21,437.8c-0.3,0.5-0.9,0.6-1.4,0.4s-0.6-0.9-0.4-1.4l12.5-21.7L33.5,416.1z"/>
</g>
<g id="c8">
	
		<linearGradient id="knife_17_" gradientUnits="userSpaceOnUse" x1="-34.1418" y1="497.4291" x2="-34.1418" y2="450.6154" gradientTransform="matrix(0.9659 -0.2588 0.2588 0.9659 -57.5597 16.0042)">
		<stop  offset="0" style="stop-color:#79C8E2"/>
		<stop  offset="1" style="stop-color:#D0EFF9"/>
	</linearGradient>
	<path id="knife_6_" class="st12" d="M42.1,504.3c-0.5,0.1-1.1-0.2-1.2-0.7l-4.9-18.3l-7.7,2.1l-3.1-11.7c-1.7-6.5,0.8-13,5.9-16.8
		l3.8,14.2l8.1,30C42.9,503.6,42.6,504.1,42.1,504.3z"/>
	
		<linearGradient id="fork_17_" gradientUnits="userSpaceOnUse" x1="95.2898" y1="497.7939" x2="95.2898" y2="471.7939" gradientTransform="matrix(0.9659 0.2588 -0.2588 0.9659 62.431 -0.2066)">
		<stop  offset="0" style="stop-color:#79C8E2"/>
		<stop  offset="1" style="stop-color:#D0EFF9"/>
	</linearGradient>
	<path id="fork_5_" class="st13" d="M33.3,480.4l-6.5,24.1c-0.1,0.5-0.7,0.9-1.2,0.7c-0.5-0.1-0.9-0.7-0.7-1.2l6.5-24.1L33.3,480.4z
		"/>
</g>
<g id="c9">
	<linearGradient id="fork_18_" gradientUnits="userSpaceOnUse" x1="32" y1="570.002" x2="32" y2="544.002">
		<stop  offset="0" style="stop-color:#79C8E2"/>
		<stop  offset="1" style="stop-color:#D0EFF9"/>
	</linearGradient>
	<path id="fork_6_" class="st14" d="M33,544v25c0,0.6-0.4,1-1,1s-1-0.4-1-1v-25H33z"/>
	<linearGradient id="knife_18_" gradientUnits="userSpaceOnUse" x1="32.002" y1="570.0137" x2="32.002" y2="523.2">
		<stop  offset="0" style="stop-color:#79C8E2"/>
		<stop  offset="1" style="stop-color:#D0EFF9"/>
	</linearGradient>
	<path id="knife_7_" class="st15" d="M36,570c-0.6,0-1-0.4-1-1v-19h-8v-12.1c0-6.7,4.1-12.3,10-14.7v14.7V569
		C37,569.6,36.6,570,36,570z"/>
</g>
<g id="c10">
	
		<linearGradient id="fork_19_" gradientUnits="userSpaceOnUse" x1="128.4186" y1="621.4324" x2="128.4186" y2="595.4324" gradientTransform="matrix(0.9659 0.2588 -0.2588 0.9659 62.431 -0.2066)">
		<stop  offset="0" style="stop-color:#79C8E2"/>
		<stop  offset="1" style="stop-color:#D0EFF9"/>
	</linearGradient>
	<path id="fork_7_" class="st16" d="M33.3,608.4l-6.5,24.1c-0.1,0.5-0.7,0.9-1.2,0.7c-0.5-0.1-0.9-0.7-0.7-1.2l6.5-24.1L33.3,608.4z
		"/>
	
		<linearGradient id="knife_19_" gradientUnits="userSpaceOnUse" x1="-67.2706" y1="621.0676" x2="-67.2706" y2="574.2539" gradientTransform="matrix(0.9659 -0.2588 0.2588 0.9659 -57.5597 16.0042)">
		<stop  offset="0" style="stop-color:#79C8E2"/>
		<stop  offset="1" style="stop-color:#D0EFF9"/>
	</linearGradient>
	<path id="knife_8_" class="st17" d="M42.1,632.3c-0.5,0.1-1.1-0.2-1.2-0.7l-4.9-18.3l-7.7,2.1l-3.1-11.7c-1.7-6.5,0.8-13,5.9-16.8
		l3.8,14.2l8.1,30C42.9,631.6,42.6,632.1,42.1,632.3z"/>
</g>
<g id="c11">
	
		<linearGradient id="fork_20_" gradientUnits="userSpaceOnUse" x1="234.3114" y1="644.7831" x2="234.3114" y2="618.7831" gradientTransform="matrix(0.866 0.5 -0.5 0.866 139.155 18.6673)">
		<stop  offset="0" style="stop-color:#79C8E2"/>
		<stop  offset="1" style="stop-color:#D0EFF9"/>
	</linearGradient>
	<path id="fork_8_" class="st18" d="M33.5,672.2L21,693.9c-0.3,0.5-0.9,0.6-1.4,0.4s-0.6-0.9-0.4-1.4l12.5-21.7L33.5,672.2z"/>
	
		<linearGradient id="knife_20_" gradientUnits="userSpaceOnUse" x1="-176.2178" y1="644.6745" x2="-176.2178" y2="597.8608" gradientTransform="matrix(0.866 -0.5 0.5 0.866 -125.2537 48.9359)">
		<stop  offset="0" style="stop-color:#79C8E2"/>
		<stop  offset="1" style="stop-color:#D0EFF9"/>
	</linearGradient>
	<path id="knife_9_" class="st19" d="M47.9,693.3c-0.5,0.3-1.1,0.1-1.4-0.4l-9.5-16.5l-6.9,4L24.1,670c-3.4-5.8-2.6-12.7,1.3-17.7
		l7.4,12.7L48.3,692C48.6,692.5,48.4,693.1,47.9,693.3z"/>
</g>
<g id="c12">
	
		<linearGradient id="fork_21_" gradientUnits="userSpaceOnUse" x1="342.0601" y1="639.08" x2="342.0601" y2="613.08" gradientTransform="matrix(0.7071 0.7071 -0.7071 0.7071 224.3494 59.5813)">
		<stop  offset="0" style="stop-color:#79C8E2"/>
		<stop  offset="1" style="stop-color:#D0EFF9"/>
	</linearGradient>
	<path id="fork_9_" class="st20" d="M33.4,735.7l-17.7,17.7c-0.4,0.4-1,0.4-1.4,0c-0.4-0.4-0.4-1,0-1.4L32,734.3L33.4,735.7z"/>
	
		<linearGradient id="knife_21_" gradientUnits="userSpaceOnUse" x1="-287.3253" y1="639.1481" x2="-287.3253" y2="592.3344" gradientTransform="matrix(0.7071 -0.7071 0.7071 0.7071 -198.4314 100.8186)">
		<stop  offset="0" style="stop-color:#79C8E2"/>
		<stop  offset="1" style="stop-color:#D0EFF9"/>
	</linearGradient>
	<path id="knife_10_" class="st21" d="M53.2,753.1c-0.4,0.4-1,0.4-1.4,0l-13.4-13.4l-5.7,5.7l-8.6-8.6c-4.8-4.8-5.8-11.6-3.3-17.5
		l10.4,10.4l22,22C53.6,752.1,53.6,752.7,53.2,753.1z"/>
</g>
<path id="border" class="st22" d="M12,31.7V57c0,3.9,3.1,7,7,7s7-3.1,7-7V31.7c2.3-0.8,4-3,4-5.7V5c0-0.6-0.4-1-1-1s-1,0.4-1,1v21
	c0,2.2-1.8,4-4,4h-4V5c0-0.6-0.4-1-1-1s-1,0.4-1,1v25h-4c-2.2,0-4-1.8-4-4V5c0-0.6-0.4-1-1-1S8,4.4,8,5v21C8,28.6,9.7,30.8,12,31.7z
	 M18,32h2v25c0,0.6-0.4,1-1,1s-1-0.4-1-1V32z M42,57c0,3.9,3.1,7,7,7s7-3.1,7-7V4c-12.2,0-22,9.8-22,22v18h8V57z M40,38V26
	c0-6.7,4.1-12.5,10-14.8V57c0,0.6-0.4,1-1,1s-1-0.4-1-1V38H40z M30,93.5c-0.6,0.3-1.3,0.5-2,0.5h-4V69c0-0.6-0.4-1-1-1s-1,0.4-1,1
	v25h-4c-2.2,0-4-1.8-4-4V69c0-0.6-0.4-1-1-1s-1,0.4-1,1v21c0,2.6,1.7,4.8,4,5.7V121c0,3.9,3.1,7,7,7s7-3.1,7-7v-13h8v13
	c0,3.9,3.1,7,7,7s7-3.1,7-7V68c-7.4,0-14,3.7-18,9.4V69c0-0.6-0.4-1-1-1s-1,0.4-1,1v11.8c-1.3,2.8-2,5.9-2,9.2V93.5z M24,121
	c0,0.6-0.4,1-1,1s-1-0.4-1-1V96h2V121z M36,90c0-6.7,4.1-12.5,10-14.8V121c0,0.6-0.4,1-1,1s-1-0.4-1-1v-19h-8V90z M22,132
	c-0.6,0-1,0.4-1,1v39h4v13c0,3.9,3.1,7,7,7c0.7,0,1.4-0.1,2-0.3c0.6,0.2,1.3,0.3,2,0.3c3.9,0,7-3.1,7-7v-53c-0.3,0-0.6,0-0.8,0
	c-0.1,0-0.1,0-0.2,0c-0.1,0-0.2,0-0.3,0c-3.1,0.2-6.1,1-8.7,2.4V133c0-0.6-0.4-1-1-1s-1,0.4-1,1v2.6c-3.5,2.3-6.3,5.5-8,9.3V133
	C23,132.4,22.6,132,22,132z M33,141.5c1.2-1,2.5-1.8,4-2.3V158h-4V141.5z M33,160v25c0,0.6-0.4,1-1,1c-0.5,0-0.9-0.3-1-0.8
	c0-0.1,0-0.1,0-0.2v-25H33z M27,154c0-4.1,1.5-7.8,4-10.6V158h-4V154z M19.3,221.2l3.1,11.6l0.3,1l-3.4,12.7c-1,3.7,1.2,7.6,4.9,8.6
	s7.5-1.2,8.5-4.9l1.3-4.7l1,3.7c1,3.7,4.8,5.9,8.5,4.9s5.9-4.8,4.9-8.6l-5.7-21.3c0.9-0.8,1.5-1.8,1.8-2.9l5.4-20.3
	c0.1-0.5-0.2-1.1-0.7-1.2c-0.5-0.1-1.1,0.2-1.2,0.7l-5.4,20.3c-0.1,0.4-0.3,0.8-0.5,1.1l-4-15.1l2.3-8.4c0.1-0.5-0.2-1.1-0.7-1.2
	c-0.5-0.1-1.1,0.2-1.2,0.7l-1.4,5.1l-0.8-2.8l-1-3.9l-0.5-1.9c-1.4,0.4-2.8,0.9-4,1.5l0,0c0.1-0.5-0.2-1.1-0.7-1.2
	c-0.5-0.1-1.1,0.2-1.2,0.7l-0.5,2C20.7,202.3,16.8,211.8,19.3,221.2z M38.1,229.9l4.6,17c0.1,0.5-0.2,1.1-0.7,1.2
	c-0.5,0.1-1.1-0.2-1.2-0.7l-3.7-13.7L38.1,229.9z M35,218.3l1.3,4.8l-2.4-0.6L35,218.3z M25.3,216l2.9-10.7c0.8-0.9,1.7-1.8,2.7-2.5
	l3.1,11.7l-2,7.5l-3.8-1C26,220.3,24.7,218.1,25.3,216z M25.8,222l-0.1,0.2l-0.1-0.3C25.7,221.9,25.7,221.9,25.8,222z M25,248
	l6.4-24.1l1.9,0.5l-1.6,5.8l0,0l-1.8,6.7l0,0l-3.1,11.6c-0.1,0.5-0.7,0.8-1.2,0.7C25.2,249.1,24.9,248.5,25,248z M55.9,269.7
	c0.3-0.5,0.1-1.1-0.4-1.4s-1.1-0.1-1.4,0.4l-10.5,18.2c-0.1,0.1-0.1,0.2-0.2,0.3l-4.6-8l8.4-14.5c0.3-0.5,0.1-1.1-0.4-1.4
	s-1.1-0.1-1.4,0.4l-7.8,13.5l-4.6-8l5.5-9.5c0.3-0.5,0.1-1.1-0.4-1.4s-1.1-0.1-1.4,0.4l-4.9,8.5l-1.8-3.1l-2-3.5l-1-1.7
	c-10.5,6.1-14.2,19.5-8.1,30l2.5,4.2l-7.2,12.5c-1.9,3.3-0.8,7.6,2.6,9.6s7.6,0.8,9.6-2.6l6.3-10.8l2.3-1.4l6.5,11.3
	c1.9,3.3,6.2,4.5,9.6,2.6c3.4-1.9,4.5-6.2,2.6-9.6l-9.1-15.8c0.3-0.3,0.6-0.7,0.9-1.2L55.9,269.7z M25.4,268.2l2.9,5.1l-2.1,3.7
	c-1.3,2.3-1,5,0.6,6.9l-2,3.4l-0.7-1.2C20.8,280.2,21.5,273.2,25.4,268.2z M29.5,295.2L29.5,295.2l-3.5,5.9v0.1l-4.9,8.5
	c-0.3,0.5-0.9,0.6-1.4,0.4c-0.5-0.3-0.6-0.9-0.4-1.4l12.5-21.6l1.7,1L29.5,295.2z M32.9,285.4l-3.5-2c-1.9-1.1-2.6-3.5-1.5-5.5
	l1.5-2.7l4.6,8L32.9,285.4z M34.7,286.4l0.7-1.1l1.3,2.3L34.7,286.4z M48.4,307.8c0.3,0.5,0.1,1.1-0.4,1.4s-1.1,0.1-1.4-0.4l-9-15.6
	l1.2-2L48.4,307.8z M19.9,373.7l8.3-8.3l0.2,0.2l1.4,1.4l2.8,2.8l5.6-5.6l9.2,9.2c2.7,2.7,7.2,2.7,9.9,0s2.7-7.2,0-9.9l-10.8-10.8
	l12.9-12.9c0.4-0.4,0.4-1,0-1.4s-1-0.4-1.4,0l-12.9,12.9l-5.6-5.6l12.9-12.9c0.4-0.4,0.4-1,0-1.4s-1-0.4-1.4,0l-12.9,12.9l-5.6-5.6
	l12.9-12.9c0.4-0.4,0.4-1,0-1.4s-1-0.4-1.4,0l-13,12.8l-6.9-6.9l-2.8-2.8l-1.4-1.4c-8,8-8.5,20.7-1.5,29.4l-8.4,8.4
	c-2.7,2.7-2.7,7.2,0,9.9C12.8,376.4,17.2,376.4,19.9,373.7z M34.1,360l-1.4,1.4l-0.2-0.2l5.4-5.4c0.1,0,0.2,0.1,0.3,0.1L34.1,360z
	 M41.7,356.3l11.5,11.5c0.4,0.4,0.4,1,0,1.4s-1,0.4-1.4,0l-13-13C39.7,356.4,40.7,356.5,41.7,356.3z M35.3,349.9l4.5,4.5
	c-0.8-0.1-1.6-0.5-2.2-1.1l-2.8-2.8L35.3,349.9z M33.9,348.5l-0.5,0.5l-2.8-2.8c-0.6-0.6-1-1.4-1.1-2.2L33.9,348.5z M20.8,335.4
	l6.7,6.7c-0.3,1.3-0.1,2.6,0.4,3.8l-5.3,5.2C19.2,346.6,18.6,340.5,20.8,335.4z M14.3,368.1l17.6-17.6l1.4,1.4l-5.1,5.1l0,0
	l-4.2,4.2l0,0l-8.3,8.3c-0.4,0.4-1,0.4-1.4,0C13.9,369.1,13.9,368.4,14.3,368.1z M55.5,396.4c-0.5-0.3-1.1-0.1-1.4,0.4L43.6,415
	c-0.1,0.1-0.1,0.2-0.2,0.3l-4.6-8l8.4-14.5c0.3-0.5,0.1-1.1-0.4-1.4s-1.1-0.1-1.4,0.4l-7.8,13.5l-4.6-8l5.5-9.5
	c0.3-0.5,0.1-1.1-0.4-1.4s-1.1-0.1-1.4,0.4l-4.9,8.5l-1.8-3.1l-2-3.5l-1-1.7c-10.5,6.1-14.2,19.5-8.1,30l2.5,4.2l-7.2,12.5
	c-1.9,3.3-0.8,7.6,2.6,9.6s7.6,0.8,9.6-2.6l6.3-10.8l2.3-1.4l6.5,11.3c1.9,3.3,6.2,4.5,9.6,2.6c3.4-1.9,4.5-6.2,2.6-9.6L44.6,417
	c0.3-0.3,0.6-0.7,0.9-1.2L56,397.6C56.1,397.3,56,396.7,55.5,396.4z M25.4,396.2l2.9,5.1l-2.1,3.7c-1.3,2.3-1,5,0.6,6.9l-2,3.4
	l-0.7-1.2C20.8,408.2,21.5,401.2,25.4,396.2z M29.5,423.2L29.5,423.2l-3.5,5.9v0.1l-4.9,8.5c-0.3,0.5-0.9,0.6-1.4,0.4
	c-0.5-0.3-0.6-0.9-0.4-1.4l12.5-21.6l1.7,1L29.5,423.2z M32.9,413.4l-3.5-2c-1.9-1.1-2.6-3.5-1.5-5.5l1.5-2.7l4.6,8L32.9,413.4z
	 M34.7,414.4l0.7-1.1l1.3,2.3L34.7,414.4z M48.4,435.8c0.3,0.5,0.1,1.1-0.4,1.4s-1.1,0.1-1.4-0.4l-9-15.6l1.2-2L48.4,435.8z
	 M30,450.5c-0.5-0.1-1.1,0.2-1.2,0.7l-0.5,2c-7.6,5.1-11.5,14.6-9,24l3.1,11.6l0.3,1l-3.4,12.7c-1,3.7,1.2,7.6,4.9,8.6
	s7.5-1.2,8.5-4.9l1.3-4.7l1,3.7c1,3.7,4.8,5.9,8.5,4.9s5.9-4.8,4.9-8.6l-5.7-21.3c0.9-0.8,1.5-1.8,1.8-2.9l5.4-20.3
	c0.1-0.5-0.2-1.1-0.7-1.2s-1.1,0.2-1.2,0.7l-5.4,20.3c-0.1,0.4-0.3,0.8-0.5,1.1l-4-15.1l2.3-8.4c0.1-0.5-0.2-1.1-0.7-1.2
	s-1.1,0.2-1.2,0.7l-1.4,5.1l-0.8-2.8l-1-3.9l-0.5-1.9c-1.4,0.4-2.8,0.9-4,1.5l0,0C30.9,451.2,30.6,450.7,30,450.5z M38.1,485.9
	l4.6,17c0.1,0.5-0.2,1.1-0.7,1.2s-1.1-0.2-1.2-0.7l-3.7-13.7L38.1,485.9z M31.8,486.2L31.8,486.2l-1.8,6.7l0,0l-3.1,11.6
	c-0.1,0.5-0.7,0.8-1.2,0.7c-0.5-0.1-0.8-0.7-0.7-1.2l6.4-24.1l1.9,0.5L31.8,486.2z M25.6,477.9l0.1,0.1l-0.1,0.2V477.9z M35,474.3
	l1.3,4.8l-2.4-0.6L35,474.3z M30.8,458.7l3.1,11.7l-2,7.5l-3.8-1c-2.1-0.6-3.4-2.8-2.8-4.9l2.9-10.7C29,460.3,29.8,459.5,30.8,458.7
	z M32,576c0.7,0,1.4-0.1,2-0.3c0.6,0.2,1.3,0.3,2,0.3c3.9,0,7-3.1,7-7v-53c-0.3,0-0.6,0-0.8,0c-0.1,0-0.1,0-0.2,0
	c-0.1,0-0.2,0-0.3,0c-3.1,0.2-6.1,1-8.7,2.4V517c0-0.6-0.4-1-1-1s-1,0.4-1,1v2.6c-3.5,2.3-6.3,5.5-8,9.3V517c0-0.6-0.4-1-1-1
	s-1,0.4-1,1v39h4v13C25,572.9,28.1,576,32,576z M27,538c0-6.7,4.1-12.5,10-14.8V569c0,0.6-0.4,1-1,1s-1-0.4-1-1v-19h-8V538z
	 M19.3,605.2l3.1,11.6l0.3,1l-3.4,12.7c-1,3.7,1.2,7.6,4.9,8.6s7.5-1.2,8.5-4.9l1.3-4.7l1,3.7c1,3.7,4.8,5.9,8.5,4.9
	s5.9-4.8,4.9-8.6l-5.7-21.3c0.9-0.8,1.5-1.8,1.8-2.9l5.4-20.3c0.1-0.5-0.2-1.1-0.7-1.2c-0.5-0.1-1.1,0.2-1.2,0.7l-5.4,20.3
	c-0.1,0.4-0.3,0.8-0.5,1.1l-4-15.1l2.3-8.4c0.1-0.5-0.2-1.1-0.7-1.2c-0.5-0.1-1.1,0.2-1.2,0.7l-1.4,5.1l-0.8-2.8l-1-3.9l-0.5-1.9
	c-1.4,0.4-2.8,0.9-4,1.5l0,0c0.1-0.5-0.2-1.1-0.7-1.2c-0.5-0.1-1.1,0.2-1.2,0.7l-0.5,2C20.7,586.3,16.8,595.8,19.3,605.2z
	 M26.9,632.5c-0.1,0.5-0.7,0.8-1.2,0.7s-0.8-0.7-0.7-1.2l2.8-10.5l2.2-0.6L26.9,632.5z M30.8,586.7l12,44.3c0.1,0.5-0.2,1.1-0.7,1.2
	c-0.5,0.1-1.1-0.2-1.2-0.7L36,613.2l-5.8,1.6l-1.9,0.5L25,603.6C23.3,597.1,25.8,590.5,30.8,586.7z M55.9,653.7
	c0.3-0.5,0.1-1.1-0.4-1.4c-0.5-0.3-1.1-0.1-1.4,0.4l-10.5,18.2c-0.1,0.1-0.1,0.2-0.2,0.3l-4.6-8l8.4-14.5c0.3-0.5,0.1-1.1-0.4-1.4
	c-0.5-0.3-1.1-0.1-1.4,0.4l-7.8,13.5l-4.6-8l5.5-9.5c0.3-0.5,0.1-1.1-0.4-1.4c-0.5-0.3-1.1-0.1-1.4,0.4l-4.9,8.5l-1.8-3.1l-2-3.5
	l-1-1.7c-10.5,6.1-14.2,19.5-8.1,30l2.5,4.2l-7.2,12.5c-1.9,3.3-0.8,7.6,2.6,9.6c3.4,1.9,7.6,0.8,9.6-2.6l6.3-10.8l2.3-1.4l6.5,11.3
	c1.9,3.3,6.2,4.5,9.6,2.6c3.4-1.9,4.5-6.2,2.6-9.6l-9.1-15.8c0.3-0.3,0.6-0.7,0.9-1.2L55.9,653.7z M21.1,693.8
	c-0.3,0.5-0.9,0.6-1.4,0.4c-0.5-0.3-0.6-0.9-0.4-1.4l5.5-9.5l0.1,0.2l1,1.7l0.1,0.1L21.1,693.8z M48.4,691.8
	c0.3,0.5,0.1,1.1-0.4,1.4c-0.5,0.3-1.1,0.1-1.4-0.4l-9-15.6l0,0l-0.5-0.9l-6.9,4l-0.7-1.1l0,0l-1.2-2l0,0l-3.5-6l0,0l-0.7-1.2
	c-3.4-5.8-2.7-12.9,1.2-17.8L48.4,691.8z M58.1,722.4l-12.9,12.9l-5.6-5.6l12.9-12.9c0.4-0.4,0.4-1,0-1.4s-1-0.4-1.4,0l-12.9,12.9
	l-5.6-5.6l12.9-12.9c0.4-0.4,0.4-1,0-1.4s-1-0.4-1.4,0L31,721.2l-6.9-6.9l-2.8-2.8l-1.4-1.4c-8,8-8.5,20.7-1.5,29.4l-8.4,8.4
	c-2.7,2.7-2.7,7.2,0,9.9s7.2,2.7,9.9,0l8.3-8.3l0.2,0.2l1.4,1.4l2.8,2.8l5.6-5.6l9.2,9.2c2.7,2.7,7.2,2.7,9.9,0s2.7-7.2,0-9.9
	l-10.8-10.8l12.9-12.9c0.4-0.4,0.4-1,0-1.4C59.1,722,58.4,722,58.1,722.4z M15.7,753.5c-0.4,0.4-1,0.4-1.4,0s-0.4-1,0-1.4l8.3-8.3
	l1.4,1.4L15.7,753.5z M53.1,751.7c0.4,0.4,0.4,1,0,1.4s-1,0.4-1.4,0l-13-13l0,0l-0.2-0.2l0,0l-0.2-0.2l-4.2,4.2l-1.4,1.4l-0.2-0.2
	l0,0l-4.2-4.2l0,0l-1.4-1.4l0,0l-2.6-2.6c-0.6-0.6-1.1-1.1-1.5-1.8l0,0c-3.5-4.6-4.1-10.7-1.9-15.8L53.1,751.7z"/>
</svg>
