<?xml version="1.0" encoding="utf-8"?>
<!-- Generator: Adobe Illustrator 21.0.2, SVG Export Plug-In . SVG Version: 6.00 Build 0)  -->
<!DOCTYPE svg PUBLIC "-//W3C//DTD SVG 1.1//EN" "http://www.w3.org/Graphics/SVG/1.1/DTD/svg11.dtd">
<svg version="1.1" id="category-outdoor" xmlns="http://www.w3.org/2000/svg" xmlns:xlink="http://www.w3.org/1999/xlink" x="0px" y="0px"
	 width="64px" height="768px" viewBox="0 0 64 768" enable-background="new 0 0 64 768" xml:space="preserve">
<g id="c12">
	<linearGradient id="SVGID_1_" gradientUnits="userSpaceOnUse" x1="31.0625" y1="754.125" x2="31.0625" y2="729.875">
		<stop  offset="0" style="stop-color:#64C020"/>
		<stop  offset="1" style="stop-color:#829900"/>
	</linearGradient>
	<path fill-rule="evenodd" clip-rule="evenodd" fill="url(#SVGID_1_)" d="M39.813,729.875l14.5,24.25h-46.5l9.658-17.162
		l7.342,12.912h3.5L39.813,729.875z"/>
	<path fill-rule="evenodd" clip-rule="evenodd" fill="#FFFFFF" d="M45.094,738.813l-5.25-8.75l-5,8.5l7.063-0.75L45.094,738.813z"/>
	<g opacity="0.2">
		<g>
			<path fill-rule="evenodd" clip-rule="evenodd" d="M21.25,750l1.727-2.971l-5.586-9.695L21.25,750z M39.813,729.875l5.656,24.25
				L54.183,754L39.813,729.875z"/>
		</g>
	</g>
</g>
<g id="c11">
	<linearGradient id="SVGID_2_" gradientUnits="userSpaceOnUse" x1="31.2188" y1="690.0833" x2="31.2188" y2="666.6776">
		<stop  offset="0" style="stop-color:#64C020"/>
		<stop  offset="1" style="stop-color:#829900"/>
	</linearGradient>
	<path fill-rule="evenodd" clip-rule="evenodd" fill="url(#SVGID_2_)" d="M40.505,666.678l14.12,23.406H7.813l10.127-17.417
		l7.644,13.167h3.764L40.505,666.678z"/>
	<path fill-rule="evenodd" clip-rule="evenodd" fill="#FFFFFF" d="M45.101,674.297l-4.597-7.62l-4.388,7.435l6.183-0.39
		L45.101,674.297z"/>
	<g opacity="0.2">
		<g>
			<path fill-rule="evenodd" clip-rule="evenodd" d="M22.5,686l1.56-2.638l-6.12-10.695L22.5,686z M40.505,666.678l5.964,23.406
				L54.384,690L40.505,666.678z"/>
		</g>
	</g>
</g>
<g id="c10">
	<linearGradient id="SVGID_3_" gradientUnits="userSpaceOnUse" x1="31.4167" y1="626.0833" x2="31.4167" y2="603.3439">
		<stop  offset="0" style="stop-color:#64C020"/>
		<stop  offset="1" style="stop-color:#829900"/>
	</linearGradient>
	<path opacity="0.95" fill-rule="evenodd" clip-rule="evenodd" fill="url(#SVGID_3_)" d="M41.031,603.344l13.594,22.739H8.208
		L18.469,608l8.198,13.833h3.411L41.031,603.344z"/>
	<path opacity="0.95" fill-rule="evenodd" clip-rule="evenodd" fill="#FFFFFF" d="M44.96,609.916l-3.929-6.572l-3.859,6.572
		l5.659-0.214L44.96,609.916z"/>
	<g opacity="0.2">
		<g>
			<path fill-rule="evenodd" clip-rule="evenodd" d="M23.5,622l1.643-2.763L18.469,608L23.5,622z M41.031,603.344l6.438,22.739
				h7.156L41.031,603.344z"/>
		</g>
	</g>
</g>
<g id="c9">
	<linearGradient id="SVGID_4_" gradientUnits="userSpaceOnUse" x1="31.6563" y1="562.0833" x2="31.6563" y2="540.0103">
		<stop  offset="0" style="stop-color:#64C020"/>
		<stop  offset="1" style="stop-color:#829900"/>
	</linearGradient>
	<path opacity="0.9" fill-rule="evenodd" clip-rule="evenodd" fill="url(#SVGID_4_)" d="M41.688,540.01l13.187,22.073H8.438
		l10.561-18.75l8.658,14.5h3.375L41.688,540.01z"/>
	<path opacity="0.9" fill-rule="evenodd" clip-rule="evenodd" fill="#FFFFFF" d="M45.106,545.741l-3.417-5.73l-3.349,5.674
		l5.1,0.017L45.106,545.741z"/>
	<g opacity="0.2">
		<g>
			<path fill-rule="evenodd" clip-rule="evenodd" d="M24.75,558l1.497-2.555l-7.249-12.112L24.75,558z M41.688,540.01l6.78,22.073
				h6.406L41.688,540.01z"/>
		</g>
	</g>
</g>
<g id="c8">
	<linearGradient id="SVGID_5_" gradientUnits="userSpaceOnUse" x1="31.7344" y1="498.0731" x2="31.7344" y2="476.6766">
		<stop  offset="0" style="stop-color:#64C020"/>
		<stop  offset="1" style="stop-color:#829900"/>
	</linearGradient>
	<path opacity="0.85" fill-rule="evenodd" clip-rule="evenodd" fill="url(#SVGID_5_)" d="M42.215,476.677l12.754,21.396H8.5
		l11.16-19.406L28.75,494l2.984-0.047L42.215,476.677z"/>
	<path opacity="0.85" fill-rule="evenodd" clip-rule="evenodd" fill="#FFFFFF" d="M45.116,481.543l-2.901-4.867l-2.97,4.914
		l4.682,0.101L45.116,481.543z"/>
	<g opacity="0.2">
		<g>
			<path fill-rule="evenodd" clip-rule="evenodd" d="M25.75,494l1.513-2.487l-7.603-12.847L25.75,494z M42.215,476.677l7.254,21.396
				h5.5L42.215,476.677z"/>
		</g>
	</g>
</g>
<g id="c7">
	<linearGradient id="SVGID_6_" gradientUnits="userSpaceOnUse" x1="31.9219" y1="434.0314" x2="31.9219" y2="413.343">
		<stop  offset="0" style="stop-color:#64C020"/>
		<stop  offset="1" style="stop-color:#829900"/>
	</linearGradient>
	<path opacity="0.8" fill-rule="evenodd" clip-rule="evenodd" fill="url(#SVGID_6_)" d="M42.745,413.343l12.224,20.688H8.875
		L20.322,414L30,429.958L32.75,430L42.745,413.343z"/>
	<path opacity="0.8" fill-rule="evenodd" clip-rule="evenodd" fill="#FFFFFF" d="M45.24,417.463l-2.496-4.12l-2.468,4.016
		l4.08,0.291L45.24,417.463z"/>
	<g opacity="0.2">
		<g>
			<path fill-rule="evenodd" clip-rule="evenodd" d="M27,430l1.492-2.529L20.322,414L27,430z M42.745,413.343l7.724,20.688h4.5
				L42.745,413.343z"/>
		</g>
	</g>
</g>
<g id="c6">
	<linearGradient id="SVGID_7_" gradientUnits="userSpaceOnUse" x1="32.1284" y1="370.0314" x2="32.1284" y2="349.3333">
		<stop  offset="0" style="stop-color:#64C020"/>
		<stop  offset="1" style="stop-color:#829900"/>
	</linearGradient>
	<path opacity="0.7" fill-rule="evenodd" clip-rule="evenodd" fill="url(#SVGID_7_)" d="M43.407,350.009l11.738,20.022H9.112
		l11.872-20.698L31.024,366H34L43.407,350.009z"/>
	<path opacity="0.7" fill-rule="evenodd" clip-rule="evenodd" fill="#FFFFFF" d="M45.435,353.463l-2.028-3.454l-2.074,3.525
		l3.529,0.116L45.435,353.463z"/>
	<g opacity="0.2">
		<g>
			<path fill-rule="evenodd" clip-rule="evenodd" d="M28.25,366l1.354-2.323l-8.621-14.344L28.25,366z M43.407,350.009l8.062,20.022
				h3.676L43.407,350.009z"/>
		</g>
	</g>
</g>
<g id="c5">
	<linearGradient id="SVGID_8_" gradientUnits="userSpaceOnUse" x1="32.3059" y1="306.0314" x2="32.3059" y2="284.6667">
		<stop  offset="0" style="stop-color:#64C020"/>
		<stop  offset="1" style="stop-color:#829900"/>
	</linearGradient>
	<path opacity="0.6" fill-rule="evenodd" clip-rule="evenodd" fill="url(#SVGID_8_)" d="M43.959,286.676l11.371,19.356H9.282
		l12.23-21.365L31.765,302H35L43.959,286.676z"/>
	<path opacity="0.6" fill-rule="evenodd" clip-rule="evenodd" fill="#FFFFFF" d="M45.594,289.463l-1.635-2.787l-1.676,2.859
		l2.984,0.116L45.594,289.463z"/>
	<g opacity="0.2">
		<g>
			<path fill-rule="evenodd" clip-rule="evenodd" d="M29.5,302l1.128-1.921l-9.116-15.412L29.5,302z M43.959,286.676l8.51,19.356
				h2.848L43.959,286.676z"/>
		</g>
	</g>
</g>
<g id="c4">
	<linearGradient id="SVGID_9_" gradientUnits="userSpaceOnUse" x1="32.4941" y1="242.0314" x2="32.4941" y2="220">
		<stop  offset="0" style="stop-color:#64C020"/>
		<stop  offset="1" style="stop-color:#829900"/>
	</linearGradient>
	<path opacity="0.45" fill-rule="evenodd" clip-rule="evenodd" fill="url(#SVGID_9_)" d="M44.534,223.342l10.968,18.689H9.486
		L22.174,220l10.582,18l3.224,0L44.534,223.342z"/>
	<path opacity="0.45" fill-rule="evenodd" clip-rule="evenodd" fill="#FFFFFF" d="M45.781,225.463l-1.248-2.121l-1.294,2.226
		l2.408,0.082L45.781,225.463z"/>
	<g opacity="0.2">
		<g>
			<path fill-rule="evenodd" clip-rule="evenodd" d="M30.75,238l1.007-1.702L22.174,220L30.75,238z M44.534,223.342l8.935,18.689
				h2.033L44.534,223.342z"/>
		</g>
	</g>
</g>
<g id="c3">
	<linearGradient id="SVGID_10_" gradientUnits="userSpaceOnUse" x1="32.6735" y1="178.0314" x2="32.6735" y2="155.3333">
		<stop  offset="0" style="stop-color:#64C020"/>
		<stop  offset="1" style="stop-color:#829900"/>
	</linearGradient>
	<path opacity="0.3" fill-rule="evenodd" clip-rule="evenodd" fill="url(#SVGID_10_)" d="M45.099,160.008l10.577,18.023H9.671
		l13.033-22.698L33.5,174l3.5,0L45.099,160.008z"/>
	<path opacity="0.3" fill-rule="evenodd" clip-rule="evenodd" fill="#FFFFFF" d="M45.957,161.463l-0.858-1.455l-0.937,1.619
		l1.795,0.022V161.463z"/>
	<g opacity="0.2">
		<g>
			<path fill-rule="evenodd" clip-rule="evenodd" d="M32,174l0.744-1.307l-10.041-17.36L32,174z M45.099,160.008l9.369,18.023h1.208
				L45.099,160.008z"/>
		</g>
	</g>
</g>
<g id="c2">
	<linearGradient id="SVGID_11_" gradientUnits="userSpaceOnUse" x1="32.8647" y1="114.0314" x2="32.8647" y2="90.6666">
		<stop  offset="0" style="stop-color:#64C020"/>
		<stop  offset="1" style="stop-color:#829900"/>
	</linearGradient>
	<path opacity="0.15" fill-rule="evenodd" clip-rule="evenodd" fill="url(#SVGID_11_)" d="M45.67,96.675l10.213,17.357H9.847
		l13.386-23.365L34.259,110l3.935,0L45.67,96.675z"/>
	<path opacity="0.15" fill-rule="evenodd" clip-rule="evenodd" fill="#FFFFFF" d="M46.167,97.52l-0.497-0.845l-0.546,0.953
		l1.043,0.022V97.52z"/>
	<g opacity="0.15">
		<g>
			<path fill-rule="evenodd" clip-rule="evenodd" d="M33.096,110.067L34.259,110L23.233,90.667L33.096,110.067z M45.67,96.675
				l8.799,17.357h1.414L45.67,96.675z"/>
		</g>
	</g>
</g>
<path id="border" fill-rule="evenodd" clip-rule="evenodd" fill="#333333" d="M3.25,690h51.134l-13.88-23.322L29.25,686H22.5
	l1.564-2.693l-6.124-10.641L8.12,690H3.25l14.69-26l8.725,14.83l13.84-23.832L60.5,690l0,0l3.5,6H0L3.25,690z M3.25,626L3.25,626
	l15.219-27l9.267,15.751l13.295-22.753L60.5,626l0,0l3.5,6H0L3.25,626z M54.545,626l-13.515-22.656l-10.028,16.961L32,622h-2h-3.25
	H23.5l1.615-2.764L18.469,608L8.296,626H54.545z M3.25,562L3.25,562l15.748-28l9.879,16.933l12.811-21.935L60.5,562l0,0l3.5,6H0
	L3.25,562z M54.746,562l-13.058-21.99l-9.679,16.291L33,558h-2h-3.25h-3l1.484-2.541l-7.236-12.126L8.472,562H54.746z M3.25,498
	h51.657l-12.693-21.323l-9.193,15.218L34.25,494h-2.5h-3h-3l1.494-2.541l-7.584-12.793L8.691,498H3.25l16.41-29l10.356,17.745
	l12.199-20.747L60.5,498l0,0l3.5,6H0L3.25,498z M3.25,434L3.25,434l17.072-30l10.926,18.716l11.497-19.717L60.5,434l0,0l3.5,6H0
	L3.25,434z M54.907,434l-12.163-20.657l-8.601,14.334L35.5,430h-2.75H30h-3l1.472-2.525L20.322,414L8.91,434H54.907z M3.25,370
	L3.25,370l17.733-31l11.513,19.716l10.911-18.717L60.5,370l3.5,6H0L3.25,370z M55.116,370l-11.709-19.991l-8.027,13.645L36.75,366
	H34h-3h-2.75l1.354-2.323l-8.621-14.344L9.13,370H55.116z M3.25,306h52.04l-11.331-19.324l-7.578,12.963L37.75,302H35h-3.25H29.5
	l1.113-1.925l-9.101-15.408L9.305,306H3.25l18.263-32l12.107,20.877l10.339-17.879L60.5,306l3.5,6H0L3.25,306z M3.25,242L3.25,242
	l18.924-33l12.679,21.854l9.68-16.855L60.5,242l3.5,6H0L3.25,242z M55.471,242l-10.937-18.658l-7.031,12.077L39,238h-3h-3.25h-2
	l0.989-1.722L22.174,220l-12.65,22H55.471z M3.25,178H3.249l19.455-34l13.272,23.019l9.124-16.021L60.5,178l3.5,6H0L3.25,178z
	 M55.649,178l-10.55-17.992l-6.596,11.395L40,174h-3h-3.5H32l0.744-1.307l-10.041-17.36L9.7,178H55.649z M3.25,114h52.579
	L45.67,96.675l-6.086,10.854L41,110h-6.75L23.233,90.667L9.876,114H3.249l19.984-35l13.859,24.182l8.577-15.184L60.5,114l3.5,6H0
	L3.25,114z M0,56l3.25-6H3.249l20.514-36l14.366,25.211l8.085-14.384L60.5,50l0,0l3.5,6H0z M46.213,33.227l-5.687,10.193L41.997,46
	h-6.808L23.762,26L10.051,50H56L46.213,33.227z M3.249,754l14.141-25l8.085,13.728l14.371-24.73L60.5,754l0,0l3.5,6H0L3.249,754
	L3.249,754z M54.183,754l-14.337-23.989l-10.848,18.698L29,748.711h-0.003L28.25,750h-7l1.727-2.971l-5.586-9.695L7.938,754H54.183z
	"/>
</svg>
