<svg width="28" height="28" viewBox="0 0 28 28" fill="none" xmlns="http://www.w3.org/2000/svg">
<path d="M18.375 4.375C18.375 5.53532 17.9141 6.64812 17.0936 7.46859C16.2731 8.28906 15.1603 8.75 14 8.75C12.8397 8.75 11.7269 8.28906 10.9064 7.46859C10.0859 6.64812 9.625 5.53532 9.625 4.375C9.625 3.21468 10.0859 2.10188 10.9064 1.28141C11.7269 0.460936 12.8397 0 14 0C15.1603 0 16.2731 0.460936 17.0936 1.28141C17.9141 2.10188 18.375 3.21468 18.375 4.375ZM27.125 5.25C27.125 6.17826 26.7563 7.0685 26.0999 7.72487C25.4435 8.38125 24.5533 8.75 23.625 8.75C22.6967 8.75 21.8065 8.38125 21.1501 7.72487C20.4937 7.0685 20.125 6.17826 20.125 5.25C20.125 4.32174 20.4937 3.4315 21.1501 2.77513C21.8065 2.11875 22.6967 1.75 23.625 1.75C24.5533 1.75 25.4435 2.11875 26.0999 2.77513C26.7563 3.4315 27.125 4.32174 27.125 5.25ZM4.375 8.75C5.30326 8.75 6.1935 8.38125 6.84987 7.72487C7.50625 7.0685 7.875 6.17826 7.875 5.25C7.875 4.32174 7.50625 3.4315 6.84987 2.77513C6.1935 2.11875 5.30326 1.75 4.375 1.75C3.44674 1.75 2.5565 2.11875 1.90013 2.77513C1.24375 3.4315 0.875 4.32174 0.875 5.25C0.875 6.17826 1.24375 7.0685 1.90013 7.72487C2.5565 8.38125 3.44674 8.75 4.375 8.75ZM7 12.6875C7 11.48 7.98 10.5 9.1875 10.5H18.8125C20.02 10.5 21 11.48 21 12.6875V21C21 22.8565 20.2625 24.637 18.9497 25.9497C17.637 27.2625 15.8565 28 14 28C12.1435 28 10.363 27.2625 9.05025 25.9497C7.7375 24.637 7 22.8565 7 21V12.6875ZM5.25 12.6875C5.25 11.8772 5.495 11.1265 5.91325 10.5H2.1875C0.98 10.5 3.12166e-08 11.48 3.12166e-08 12.6875V19.25C-8.16653e-05 19.9992 0.160193 20.7398 0.470053 21.4219C0.779913 22.104 1.23218 22.7119 1.79647 23.2048C2.36076 23.6976 3.024 24.064 3.74162 24.2792C4.45924 24.4945 5.21462 24.5536 5.957 24.4527C5.48879 23.3619 5.24821 22.187 5.25 21V12.6875ZM22.75 21C22.75 22.225 22.498 23.394 22.043 24.4527C22.7854 24.5536 23.5408 24.4945 24.2584 24.2792C24.976 24.064 25.6392 23.6976 26.2035 23.2048C26.7678 22.7119 27.2201 22.104 27.5299 21.4219C27.8398 20.7398 28.0001 19.9992 28 19.25V12.6875C28 11.48 27.02 10.5 25.8125 10.5H22.0868C22.5068 11.1265 22.75 11.8772 22.75 12.6875V21Z" fill="#0EB4AA"/>
</svg>
