<svg width="27" height="27" viewBox="0 0 27 27" fill="none" xmlns="http://www.w3.org/2000/svg">
<path d="M3.63462 2.07692H10.9038C11.317 2.07692 11.7132 2.24104 12.0053 2.53316C12.2974 2.82529 12.4615 3.22149 12.4615 3.63462C12.4615 4.04774 12.2974 4.44395 12.0053 4.73607C11.7132 5.0282 11.317 5.19231 10.9038 5.19231H3.63462C3.49691 5.19231 3.36484 5.24701 3.26746 5.34439C3.17009 5.44176 3.11538 5.57383 3.11538 5.71154V23.3654C3.11538 23.652 3.348 23.8846 3.63462 23.8846H21.2885C21.4262 23.8846 21.5582 23.8299 21.6556 23.7325C21.753 23.6352 21.8077 23.5031 21.8077 23.3654V16.0962C21.8077 15.683 21.9718 15.2868 22.2639 14.9947C22.5561 14.7026 22.9523 14.5385 23.3654 14.5385C23.7785 14.5385 24.1747 14.7026 24.4668 14.9947C24.759 15.2868 24.9231 15.683 24.9231 16.0962V23.3654C24.9231 24.3293 24.5401 25.2538 23.8585 25.9354C23.1769 26.6171 22.2524 27 21.2885 27H3.63462C2.67066 27 1.74618 26.6171 1.06455 25.9354C0.382932 25.2538 0 24.3293 0 23.3654V5.71154C0 3.70523 1.62831 2.07692 3.63462 2.07692ZM17.8698 8.31444e-07H26.4808C26.6185 8.31444e-07 26.7505 0.0547055 26.8479 0.15208C26.9453 0.249455 27 0.381523 27 0.519232V9.13015C27.0002 9.23298 26.9698 9.33355 26.9128 9.41911C26.8557 9.50467 26.7746 9.57136 26.6796 9.61074C26.5846 9.65012 26.4801 9.6604 26.3792 9.64029C26.2784 9.62018 26.1858 9.57057 26.1132 9.49777L22.9085 6.29308L15.12 14.0815C14.8245 14.3565 14.434 14.5063 14.0304 14.4993C13.6268 14.4924 13.2416 14.3292 12.9558 14.0442C12.6708 13.7584 12.5076 13.3732 12.5007 12.9696C12.4937 12.566 12.6435 12.1755 12.9185 11.88L20.7069 4.09154L17.5022 0.886847C17.4294 0.814228 17.3798 0.721627 17.3597 0.620784C17.3396 0.51994 17.3499 0.415396 17.3893 0.320404C17.4286 0.225413 17.4953 0.144252 17.5809 0.0872107C17.6664 0.0301695 17.767 -0.000183148 17.8698 8.31444e-07Z" fill="#376B68"/>
</svg>
