<svg width="36" height="36" viewBox="0 0 36 36" fill="none" xmlns="http://www.w3.org/2000/svg">
<path d="M32.9659 35.9999H3.04093C2.64146 36.0025 2.24545 35.9258 1.87581 35.7743C1.50618 35.6228 1.17025 35.3995 0.887459 35.1173C0.604671 34.8352 0.380637 34.4997 0.228318 34.1304C0.0759984 33.7611 -0.00158332 33.3653 6.06899e-05 32.9658V3.04089C-0.00247104 2.64142 0.0742308 2.24541 0.225729 1.87578C0.377228 1.50614 0.600515 1.17021 0.882676 0.887423C1.16484 0.604636 1.50027 0.380602 1.86957 0.228283C2.23887 0.0759633 2.6347 -0.00161842 3.03418 2.55912e-05H33.0761C34.6523 2.55912e-05 36 1.34665 36 3.03414V32.9647C36 34.6522 34.6534 35.9999 32.9659 35.9999ZM18 5.96589H13.5C11.5021 5.96678 9.58633 6.76084 8.1736 8.17356C6.76088 9.58629 5.96682 11.5021 5.96593 13.5V22.5C5.96682 24.4979 6.76088 26.4137 8.1736 27.8264C9.58633 29.2391 11.5021 30.0332 13.5 30.0341H22.5C24.4979 30.0332 26.4137 29.2391 27.8265 27.8264C29.2392 26.4137 30.0332 24.4979 30.0341 22.5V16.5341C30.0341 15.6386 29.3603 14.9647 28.4591 14.9647H27C26.2159 14.9647 25.5341 14.2841 25.5341 13.4989C25.5346 12.509 25.3401 11.5288 24.9617 10.6141C24.5833 9.69948 24.0285 8.86831 23.3288 8.16808C22.6292 7.46784 21.7986 6.91226 20.8842 6.53306C19.9699 6.15386 18.9899 5.95845 18 5.95801V5.96589ZM22.6114 23.9658H13.5C12.7159 23.9658 12.0342 23.2852 12.0342 22.5C12.0342 21.7147 12.7148 21.0341 13.5 21.0341H22.6114C23.4034 21.0341 24.0773 21.7091 24.0773 22.5C24.0773 23.2908 23.4034 23.9658 22.6114 23.9658ZM18.7842 12.0341C19.5762 12.0341 20.25 12.7147 20.25 13.5C20.25 14.2852 19.5762 14.9659 18.7842 14.9659H13.3887C12.5967 14.9659 11.9228 14.2852 11.9228 13.5C11.9228 12.7147 12.5967 12.0341 13.3887 12.0341H18.7842Z" fill="white"/>
</svg>
