<svg width="36" height="36" viewBox="0 0 36 36" fill="none" xmlns="http://www.w3.org/2000/svg">
<path d="M26.3077 0H9.69231C7.12259 0.00274885 4.65891 1.02478 2.84185 2.84185C1.02478 4.65891 0.00274885 7.12259 0 9.69231V26.3077C0.00274885 28.8774 1.02478 31.3411 2.84185 33.1582C4.65891 34.9752 7.12259 35.9973 9.69231 36H26.3077C28.8774 35.9973 31.3411 34.9752 33.1582 33.1582C34.9752 31.3411 35.9973 28.8774 36 26.3077V9.69231C35.9973 7.12259 34.9752 4.65891 33.1582 2.84185C31.3411 1.02478 28.8774 0.00274885 26.3077 0ZM18 26.3077C16.3569 26.3077 14.7507 25.8205 13.3845 24.9076C12.0183 23.9947 10.9535 22.6972 10.3247 21.1792C9.6959 19.6612 9.53138 17.9908 9.85194 16.3793C10.1725 14.7677 10.9637 13.2874 12.1256 12.1256C13.2874 10.9637 14.7677 10.1725 16.3793 9.85194C17.9908 9.53138 19.6612 9.6959 21.1792 10.3247C22.6972 10.9535 23.9947 12.0183 24.9076 13.3845C25.8205 14.7507 26.3077 16.3569 26.3077 18C26.3054 20.2026 25.4294 22.3144 23.8719 23.8719C22.3144 25.4294 20.2026 26.3054 18 26.3077ZM28.3846 9.69231C27.9738 9.69231 27.5723 9.5705 27.2307 9.34228C26.8892 9.11407 26.623 8.7897 26.4658 8.41019C26.3086 8.03068 26.2675 7.61308 26.3476 7.2102C26.4277 6.80731 26.6255 6.43724 26.916 6.14678C27.2065 5.85632 27.5765 5.65851 27.9794 5.57837C28.3823 5.49823 28.7999 5.53936 29.1794 5.69656C29.5589 5.85376 29.8833 6.11996 30.1115 6.46151C30.3397 6.80306 30.4615 7.20461 30.4615 7.61538C30.4615 8.16622 30.2427 8.69449 29.8532 9.08399C29.4637 9.47349 28.9355 9.69231 28.3846 9.69231ZM23.5385 18C23.5385 19.0954 23.2136 20.1662 22.6051 21.077C21.9965 21.9878 21.1315 22.6977 20.1195 23.1169C19.1075 23.5361 17.9939 23.6457 16.9195 23.432C15.8451 23.2183 14.8583 22.6909 14.0837 21.9163C13.3091 21.1417 12.7817 20.1549 12.568 19.0805C12.3543 18.0061 12.4639 16.8925 12.8831 15.8805C13.3023 14.8685 14.0122 14.0035 14.923 13.3949C15.8338 12.7864 16.9046 12.4615 18 12.4615C19.4689 12.4615 20.8776 13.0451 21.9163 14.0837C22.9549 15.1224 23.5385 16.5311 23.5385 18Z" fill="white"/>
</svg>
