<svg width="34" height="28" viewBox="0 0 34 28" fill="none" xmlns="http://www.w3.org/2000/svg">
<path d="M4.02198 28C3.10825 28 2.32577 27.657 1.67454 26.971C1.0233 26.285 0.698236 25.4613 0.699344 24.5V3.5C0.699344 2.5375 1.02496 1.71325 1.6762 1.02725C2.32743 0.341253 3.10936 -0.0011637 4.02198 2.97114e-06H30.6031C31.5168 2.97114e-06 32.2993 0.343003 32.9505 1.029C33.6017 1.715 33.9268 2.53867 33.9257 3.5V24.5C33.9257 25.4625 33.6001 26.2867 32.9488 26.9727C32.2976 27.6587 31.5157 28.0012 30.6031 28H4.02198ZM17.3125 15.4437C17.451 15.4437 17.5966 15.4216 17.7494 15.3772C17.9023 15.3329 18.0474 15.2676 18.1847 15.1813L29.9385 7.4375C30.16 7.29167 30.3262 7.10908 30.4369 6.88975C30.5477 6.67042 30.6031 6.43009 30.6031 6.16875C30.6031 5.58542 30.3677 5.14792 29.897 4.85625C29.4263 4.56459 28.9417 4.57917 28.4433 4.9L17.3125 12.25L6.18169 4.9C5.6833 4.57917 5.19875 4.57217 4.72804 4.879C4.25733 5.18584 4.02198 5.61575 4.02198 6.16875C4.02198 6.46042 4.07736 6.71592 4.18811 6.93525C4.29886 7.15458 4.465 7.322 4.68651 7.4375L16.4403 15.1813C16.5788 15.2688 16.7244 15.3347 16.8773 15.379C17.0301 15.4233 17.1752 15.4449 17.3125 15.4437Z" fill="#0EB4AA"/>
</svg>
