<svg width="66" height="44" viewBox="0 0 66 44" fill="none" xmlns="http://www.w3.org/2000/svg">
<path d="M7.33333 0C3.28854 0 0 3.28854 0 7.33333V14.6667C0 15.675 0.847917 16.4656 1.79896 16.7979C3.95312 17.5427 5.5 19.5938 5.5 22C5.5 24.4062 3.95312 26.4573 1.79896 27.2021C0.847917 27.5344 0 28.325 0 29.3333V36.6667C0 40.7115 3.28854 44 7.33333 44H58.6667C62.7115 44 66 40.7115 66 36.6667V29.3333C66 28.325 65.1521 27.5344 64.201 27.2021C62.0469 26.4573 60.5 24.4062 60.5 22C60.5 19.5938 62.0469 17.5427 64.201 16.7979C65.1521 16.4656 66 15.675 66 14.6667V7.33333C66 3.28854 62.7115 0 58.6667 0H7.33333ZM14.6667 12.8333V31.1667C14.6667 32.175 15.4917 33 16.5 33H49.5C50.5083 33 51.3333 32.175 51.3333 31.1667V12.8333C51.3333 11.825 50.5083 11 49.5 11H16.5C15.4917 11 14.6667 11.825 14.6667 12.8333ZM11 11C11 8.97188 12.6385 7.33333 14.6667 7.33333H51.3333C53.3615 7.33333 55 8.97188 55 11V33C55 35.0281 53.3615 36.6667 51.3333 36.6667H14.6667C12.6385 36.6667 11 35.0281 11 33V11Z" fill="#0EB4AA"/>
</svg>
