<svg width="44" height="36" viewBox="0 0 44 36" fill="none" xmlns="http://www.w3.org/2000/svg">
<path d="M44 4.23529C42.3805 4.97647 40.6348 5.46353 38.826 5.69647C40.6769 4.57412 42.1071 2.79529 42.7801 0.656471C41.0344 1.71529 39.0994 2.45647 37.0593 2.88C35.3977 1.05882 33.0631 0 30.413 0C25.4704 0 21.4321 4.06588 21.4321 9.08471C21.4321 9.80471 21.5163 10.5035 21.6635 11.16C14.1759 10.7788 7.50861 7.15765 3.07075 1.67294C2.29254 3.00706 1.85086 4.57412 1.85086 6.22588C1.85086 9.38118 3.4283 12.1765 5.86807 13.7647C4.37476 13.7647 2.98662 13.3412 1.76673 12.7059V12.7694C1.76673 17.1741 4.87954 20.8588 9.00191 21.6847C7.67839 22.0494 6.28892 22.1001 4.94264 21.8329C5.5139 23.6382 6.63268 25.2178 8.14172 26.3497C9.65076 27.4817 11.4742 28.109 13.3556 28.1435C10.1663 30.6856 6.21299 32.0597 2.14532 32.04C1.43021 32.04 0.715105 31.9976 0 31.9129C3.99618 34.4965 8.74952 36 13.8394 36C30.413 36 39.5201 22.1506 39.5201 10.1435C39.5201 9.74118 39.5201 9.36 39.499 8.95765C41.2658 7.68706 42.7801 6.07765 44 4.23529Z" fill="white"/>
</svg>
